<?xml version="1.0" encoding="UTF-8" standalone="no"?>
<!-- Created with Inkscape (http://www.inkscape.org/) -->

<svg
   version="1.1"
   id="svg1"
   width="614.40002"
   height="345.60001"
   viewBox="0 0 614.40002 345.60001"
   sodipodi:docname="branch.svg"
   inkscape:version="1.3.2 (091e20e, 2023-11-25, custom)"
   xmlns:inkscape="http://www.inkscape.org/namespaces/inkscape"
   xmlns:sodipodi="http://sodipodi.sourceforge.net/DTD/sodipodi-0.dtd"
   xmlns="http://www.w3.org/2000/svg"
   xmlns:svg="http://www.w3.org/2000/svg">
  <defs
     id="defs1" />
  <sodipodi:namedview
     id="namedview1"
     pagecolor="#505050"
     bordercolor="#eeeeee"
     borderopacity="1"
     inkscape:showpageshadow="0"
     inkscape:pageopacity="0"
     inkscape:pagecheckerboard="0"
     inkscape:deskcolor="#505050"
     inkscape:zoom="1.1877184"
     inkscape:cx="303.10216"
     inkscape:cy="233.64125"
     inkscape:window-width="1920"
     inkscape:window-height="1009"
     inkscape:window-x="1912"
     inkscape:window-y="-8"
     inkscape:window-maximized="1"
     inkscape:current-layer="g1" />
  <g
     inkscape:groupmode="layer"
     inkscape:label="Image"
     id="g1">
    <path
       style="fill:#000000"
       d="m 409.81211,337.88483 c -2.23266,-0.36742 -2.22468,-0.36874 2.43209,-0.40144 2.56964,-0.0181 5.16164,-0.17845 5.76,-0.35644 0.59835,-0.17799 2.31191,-0.56825 3.80791,-0.86725 1.496,-0.29899 3.32376,-0.67565 4.0617,-0.837 1.88029,-0.41115 9.09602,-0.3654 13.41763,0.0851 2.92323,0.30471 4.14616,0.29507 6.27571,-0.0494 1.45473,-0.23535 2.86096,-0.5339 3.12496,-0.66344 0.264,-0.12954 1.2,-0.57008 2.08,-0.97897 1.88217,-0.87455 5.12042,-3.0903 6.20048,-4.24266 1.22838,-1.31059 0.76667,-1.67841 -2.41147,-1.92109 -2.86596,-0.21885 -7.61907,-1.43649 -10.82901,-2.77415 -2.98226,-1.24277 -5.59309,-1.82169 -12.32,-2.7318 -2.024,-0.27384 -3.8168,-0.63266 -3.984,-0.79739 -0.1672,-0.16473 -0.5547,-0.29951 -0.86112,-0.29951 -0.30641,0 -0.63814,-0.13111 -0.73717,-0.29135 -0.099,-0.16024 0.57646,-0.09 1.50111,0.1562 1.03264,0.2749 3.31504,0.44901 5.91659,0.45135 2.32947,0.002 4.84947,0.14065 5.6,0.30791 0.75052,0.16726 2.94859,0.68205 4.88459,1.14397 9.50904,2.26885 12.43951,2.37138 16.43041,0.57487 1.06648,-0.48008 4.20959,-3.43932 4.20959,-3.96334 0,-0.15155 0.63073,-1.61297 1.40162,-3.24758 1.76594,-3.74455 2.75838,-5.96079 2.75838,-6.1598 0,-0.14365 1.20092,-2.87509 2.0244,-4.6044 0.63445,-1.33235 -0.30556,-1.64783 -4.90986,-1.64783 -3.437,0 -10.50243,-0.69303 -11.15299,-1.09397 -0.11085,-0.0683 -1.8972,-0.29893 -3.96966,-0.51246 -2.95009,-0.30395 -4.58259,-0.30421 -7.52,-10e-4 -4.00395,0.41306 -8.0637,1.06365 -10.15189,1.62689 -0.704,0.18988 -1.64,0.41807 -2.08,0.50708 -0.44,0.089 -1.088,0.27871 -1.44,0.42155 -0.352,0.14284 -1.792,0.62797 -3.2,1.07807 -3.12017,0.99743 -5.20196,1.78744 -7.52,2.85373 -2.04326,0.9399 -4.17803,1.80834 -6.88,2.79884 -1.056,0.38711 -2.208,0.82178 -2.56,0.96593 -0.352,0.14415 -1,0.35584 -1.44,0.47041 -0.44,0.11457 -1.232,0.33195 -1.76,0.48306 -2.15071,0.61553 -6.20516,1.5483 -8.16,1.87732 -5.07971,0.85494 -7.24885,1.02751 -12.43979,0.98968 -3.04233,-0.0222 -5.57427,0.008 -5.62653,0.0674 -0.0523,0.0592 -0.3881,0.68369 -0.74631,1.38769 -1.49703,2.94215 -4.78871,5.01667 -9.34737,5.89102 -2.1377,0.41001 -11.1487,1.00826 -14.24001,0.94542 l -2.24,-0.0455 1.92,-0.26108 c 1.05601,-0.14359 3.43201,-0.41563 5.28001,-0.60453 7.7651,-0.79373 9.5241,-1.13626 12.16,-2.36792 2.50013,-1.16821 5.64082,-4.61225 4.88493,-5.35675 -0.13471,-0.13268 -1.68493,-0.61588 -3.44493,-1.07377 -4.44707,-1.15698 -5.07236,-1.39428 -10.24,-3.88616 -2.61308,-1.26005 -4.19084,-2.11138 -5.10641,-2.75533 -0.18348,-0.12904 -1.52976,-1.03745 -2.99175,-2.01867 -1.46198,-0.98122 -2.90198,-1.9866 -3.2,-2.23417 -0.29801,-0.24758 -1.76585,-1.34891 -3.26185,-2.4474 -1.496,-1.0985 -2.792,-2.08315 -2.88,-2.18811 -0.088,-0.10497 -0.73588,-0.61523 -1.43973,-1.13393 -0.70386,-0.5187 -1.56406,-1.19979 -1.91156,-1.51353 -0.3475,-0.31375 -1.71561,-1.39171 -3.04026,-2.39547 -1.32464,-1.00377 -2.48045,-1.90776 -2.56845,-2.00887 -0.088,-0.10111 -1.168,-0.89245 -2.4,-1.75853 -1.232,-0.86609 -2.288,-1.6854 -2.34666,-1.82069 -0.0587,-0.1353 -0.23145,-0.24599 -0.38396,-0.24599 -0.15251,0 -0.89651,-0.40996 -1.65333,-0.91102 -0.75683,-0.50106 -1.88005,-1.18506 -2.49605,-1.52 -0.616,-0.33494 -1.192,-0.6963 -1.28,-0.80301 -0.088,-0.10672 -1.6,-0.87504 -3.36,-1.70739 -1.76,-0.83235 -3.45004,-1.64503 -3.75565,-1.80597 -0.30562,-0.16094 -0.84562,-0.29262 -1.2,-0.29262 -0.35439,0 -0.64435,-0.144 -0.64435,-0.32 0,-0.176 -0.28995,-0.32 -0.64434,-0.32 -0.35439,0 -0.89439,-0.1353 -1.2,-0.30067 -0.30561,-0.16537 -0.96865,-0.38837 -1.47342,-0.49557 -0.50476,-0.1072 -0.83558,-0.27708 -0.73515,-0.37751 0.27967,-0.27967 4.91841,0.84873 7.41291,1.80323 4.32832,1.6562 8.53042,3.7396 13.12,6.50491 1.12452,0.67755 9.59373,6.40952 9.76,6.60559 0.088,0.10377 1.024,0.76272 2.08,1.46435 1.056,0.70162 1.992,1.3559 2.08,1.45395 0.22009,0.24522 4.42041,3.04917 7.52001,5.02003 3.36461,2.13936 8.05432,4.54372 11.04,5.66007 1.32,0.49355 2.688,1.01231 3.04,1.15279 2.56231,1.02259 9.63497,2.20374 13.28,2.21779 3.52883,0.0136 9.75728,-0.74522 13.2,-1.60817 3.77657,-0.94662 8.77452,-2.51986 10.8,-3.39959 0.616,-0.26755 1.408,-0.60356 1.76,-0.74671 1.97876,-0.80467 8.33627,-3.97748 8.42666,-4.20546 0.0587,-0.14796 0.26925,-0.26902 0.46796,-0.26902 0.36264,0 5.66022,-2.04785 6.70104,-2.59037 0.30561,-0.1593 0.81681,-0.28963 1.136,-0.28963 0.31918,0 0.71714,-0.11897 0.88434,-0.26436 0.1672,-0.1454 0.952,-0.45338 1.744,-0.68441 1.85235,-0.54034 3.20053,-1.08388 3.19803,-1.28935 -0.013,-1.07079 -3.34937,-4.9814 -5.93818,-6.96032 -1.3596,-1.03929 -5.06891,-2.76259 -7.65985,-3.55868 -3.25327,-0.99959 -3.85428,-1.15278 -8.88,-2.26344 -6.503,-1.43712 -9.08468,-2.07452 -9.344,-2.30696 -0.1672,-0.14987 -0.50845,-0.27249 -0.75834,-0.27249 -0.705,0 -6.41489,-2.83511 -8.37766,-4.15972 -0.968,-0.65328 -2.24139,-1.43521 -2.82974,-1.73762 -0.58836,-0.30242 -1.01523,-0.60436 -0.9486,-0.67099 0.0666,-0.0666 2.23873,0.93153 4.82689,2.21814 5.77645,2.87154 8.94176,3.89439 14.55145,4.70219 5.76461,0.83011 7.12791,1.06229 10.96,1.86658 2.09677,0.44007 5.70153,1.59458 7.36,2.35722 3.14376,1.44565 6.9709,4.55453 8.2531,6.70421 0.28869,0.484 0.63784,0.88 0.77589,0.88 0.13806,0 0.25101,0.15777 0.25101,0.3506 0,0.19283 0.30881,0.78429 0.68626,1.31436 0.74452,1.04559 0.43869,1.02962 4.43374,0.23151 3.2219,-0.64364 9.81856,-1.17202 11.68,-0.93553 6.20136,0.78784 11.69003,1.04209 18.11562,0.83916 22.37201,-0.70657 45.0312,-2.69694 59.96438,-5.26723 5.33644,-0.91851 7.56861,-1.37334 9.76,-1.98871 4.06159,-1.14053 3.68,-1.63945 3.68,4.81152 v 5.59569 l -0.84831,0.40659 c -1.9657,0.94213 -11.58325,2.4365 -22.19169,3.44814 -12.6483,1.20615 -20.95654,1.72375 -32.39177,2.01798 -7.81062,0.20096 -8.43544,0.26024 -9.02236,0.85592 -0.34683,0.352 -2.02234,3.376 -3.72337,6.72 -1.70103,3.344 -3.42035,6.66734 -3.82071,7.38521 -1.39035,2.49294 -1.60267,2.85565 -1.76479,3.01479 -0.30905,0.30337 -1.917,2.86669 -1.917,3.05599 0,0.10435 -0.18,0.37852 -0.4,0.60928 -0.22,0.23075 -0.90127,1.04847 -1.51394,1.81714 -3.12401,3.9195 -7.31532,7.33496 -11.20606,9.13171 -2.52336,1.16529 -3.0179,1.30753 -5.93774,1.70782 -2.43345,0.3336 -3.50947,0.31176 -7.18226,-0.14584 -10.64323,-1.32603 -10.1464,-1.32531 -21.12,-0.0309 -4.64019,0.54736 -6.05216,0.55515 -9.12,0.0503 z m -250.40001,-11.123 c -1.496,-0.12779 -4.016,-0.465 -5.6,-0.74935 -1.584,-0.28436 -3.34934,-0.5973 -3.92297,-0.69544 -0.57363,-0.0981 -1.12213,-0.30653 -1.21888,-0.46308 -0.0968,-0.15655 -0.52938,-0.28464 -0.96138,-0.28464 -0.432,0 -1.0715,-0.144 -1.42112,-0.32 -0.34961,-0.176 -0.9217,-0.464 -1.27131,-0.64 -0.34961,-0.176 -0.77768,-0.32 -0.95125,-0.32 -0.47774,0 -3.99773,-1.69784 -4.11976,-1.98713 -0.0587,-0.13908 -0.25638,-0.25287 -0.43936,-0.25287 -0.38224,0 -4.33492,-2.74836 -5.05397,-3.51411 -0.78427,-0.83519 -4.24499,-3.36813 -5.28,-3.86449 -0.528,-0.25321 -1.032,-0.53865 -1.12,-0.63431 -0.20945,-0.22769 -2.43344,-0.86654 -3.78441,-1.08709 -1.0674,-0.17426 -1.29014,-0.0975 -6.07792,2.09422 -1.11228,0.50918 -2.08585,0.92578 -2.16349,0.92578 -0.0776,0 -0.82359,0.30235 -1.65767,0.67189 -0.83408,0.36954 -1.80451,0.78227 -2.15651,0.91718 -0.352,0.13491 -1,0.39063 -1.44,0.56827 -0.44,0.17763 -1.21727,0.4915 -1.72727,0.69749 -0.51,0.20598 -2.958,0.59733 -5.44,0.86966 -3.809022,0.41793 -7.606572,0.46329 -24.352738,0.29092 -18.96815,-0.19524 -23.760464,-0.39594 -27.679997,-1.15923 -2.393493,-0.46611 -5.903297,-1.40239 -7.2,-1.92067 -0.352,-0.14069 -1.792,-0.63386 -3.2,-1.09592 -3.069005,-1.00716 -5.353566,-2.02026 -5.675101,-2.51665 -0.281628,-0.43478 -0.329382,-7.56294 -0.05067,-7.56294 0.106828,0 1.536735,0.936 3.177569,2.08 1.640835,1.144 3.125429,2.08 3.2991,2.08 0.17367,0 0.363764,0.10921 0.422431,0.2427 0.355565,0.80903 6.205412,3.19192 10.346667,4.21463 2.202093,0.54383 16.613929,0.95273 34.154067,0.96905 13.766002,0.0128 17.983352,-0.18967 19.925942,-0.95668 0.352,-0.13898 2.08,-0.78879 3.84,-1.44401 1.76,-0.65523 4.064,-1.58611 5.12,-2.06862 1.056,-0.48252 2.496,-1.13074 3.2,-1.4405 0.704,-0.30975 2.288,-1.03207 3.52,-1.60513 3.77592,-1.75638 7.64221,-3.47529 8.96,-3.98353 0.352,-0.13576 1.288,-0.55124 2.08,-0.92328 2.43561,-1.14414 9.86814,-3.54623 13.12,-4.24022 5.79453,-1.23661 14.03063,-1.62856 18.54732,-0.88264 2.13747,0.35299 2.23989,0.3379 4.22165,-0.62187 4.48282,-2.17107 7.82665,-2.77123 13.88557,-2.49225 14.74817,0.67909 14.81109,0.67695 19.66546,-0.66901 1.90034,-0.52691 6.64101,-2.69636 8.09842,-3.70604 1.53708,-1.06487 1.29742,-0.36911 -0.32088,0.9316 -0.84565,0.67969 -1.60954,1.3078 -1.69754,1.3958 -0.20682,0.20682 -1.3256,0.85366 -3.52,2.03515 -0.968,0.52119 -1.81652,0.99301 -1.8856,1.04849 -0.34719,0.27888 0.97876,1.263 2.83995,2.10781 1.14711,0.52068 2.3357,1.07761 2.64131,1.23762 0.30561,0.16001 2.60961,0.30567 5.12,0.32368 4.81711,0.0346 4.71791,0.36095 -0.23566,0.7753 -3.32192,0.27787 -5.6325,-0.169 -8.89451,-1.72022 -4.25985,-2.02574 -4.49653,-2.09012 -5.88667,-1.60138 -0.93795,0.32976 -3.45276,0.40866 -10.91282,0.34238 -9.27435,-0.0824 -10.86146,0.0272 -13.026,0.89957 -2.3479,0.94628 -2.71164,1.13667 -2.63141,1.37736 0.0493,0.14798 1.23757,0.86513 2.64054,1.59368 1.40298,0.72854 2.83002,1.58021 3.17121,1.89259 0.34118,0.31238 0.74747,0.56797 0.90285,0.56797 0.15539,0 0.47423,0.18 0.70855,0.4 0.23432,0.22 1.24846,0.976 2.25366,1.68 1.0052,0.704 2.35121,1.74465 2.99112,2.31257 0.63991,0.56792 1.26119,1.03592 1.38062,1.04 0.11943,0.004 0.40743,0.19216 0.64,0.41796 0.23257,0.22579 0.92686,0.75885 1.54286,1.18458 0.616,0.42573 1.192,0.85299 1.28,0.94947 0.60975,0.66851 7.069,3.85542 7.81419,3.85542 0.25742,0 0.54677,0.12739 0.64301,0.2831 0.0962,0.15571 0.57273,0.35214 1.05888,0.43652 0.48616,0.0844 2.03592,0.41806 3.44392,0.74151 2.06125,0.47352 3.83804,0.58393 9.12,0.56671 6.49914,-0.0212 10.51668,-0.50435 16.96,-2.03971 2.75807,-0.65721 8.67716,-1.91269 8.96,-1.90047 0.73411,0.0317 -7.50402,2.98559 -10.8,3.87249 -0.572,0.15391 -1.58,0.43471 -2.24,0.62398 -1.57938,0.45293 -3.79282,0.93573 -5.26774,1.149 -1.04735,0.15145 -2.38165,1.03125 -1.65144,1.08891 0.15355,0.0121 0.63918,0.0662 1.07918,0.12005 0.44,0.0539 2.72675,0.19846 5.08167,0.32124 2.35492,0.12278 5.59492,0.51957 7.2,0.88175 4.59755,1.03743 5.66913,1.24714 7.71833,1.51054 l 1.92,0.24678 -2.24,0.0424 c -1.232,0.0233 -3.464,-0.17809 -4.96,-0.44758 -4.02706,-0.72545 -10.32312,-1.15192 -13.64098,-0.924 -4.72735,0.32474 -10.4783,-0.34804 -15.31902,-1.7921 -1.056,-0.31502 -2.64,-0.66839 -3.52,-0.78527 -0.88,-0.11688 -2.32,-0.40234 -3.2,-0.63436 -2.79369,-0.73658 -3.49679,-1.01298 -6.56,-2.57884 -1.32,-0.67476 -2.72288,-1.37889 -3.11751,-1.56474 -0.39462,-0.18585 -0.71862,-0.44591 -0.72,-0.57791 -0.001,-0.132 -0.20649,-0.24 -0.45583,-0.24 -0.24933,0 -0.50133,-0.11603 -0.56,-0.25783 -0.0587,-0.1418 -1.54666,-1.25121 -3.30666,-2.46535 -1.76,-1.21414 -3.272,-2.29851 -3.36,-2.4097 -0.26822,-0.33892 -3.88367,-2.59129 -5.92,-3.68808 -3.40331,-1.83304 -5.82702,-2.51743 -11.2,-3.16255 -2.93988,-0.35298 -4.17923,-0.35073 -7.52,0.0137 -4.24713,0.46326 -6.35409,0.80379 -8.6575,1.39923 -2.79029,0.72129 -5.90741,1.71638 -6.2065,1.98132 -0.1672,0.14811 -0.49277,0.26929 -0.72349,0.26929 -0.23072,0 -1.02992,0.27061 -1.776,0.60137 -0.74608,0.33076 -2.14851,0.9215 -3.11651,1.31276 -2.96444,1.19822 -5.65611,2.53511 -6.04318,3.0015 -0.39907,0.48085 -0.0997,0.73643 2.31197,1.97387 0.67584,0.34677 2.4384,1.66366 3.91679,2.92642 1.4784,1.26276 3.15744,2.62382 3.73121,3.02458 0.57376,0.40076 1.11521,0.81946 1.20321,0.93043 0.25514,0.32177 3.89933,2.37813 5.03282,2.83995 1.14697,0.46732 2.20498,0.37385 5.04718,-0.44591 5.84274,-1.68518 7.36727,-2.01169 12.1061,-2.59278 1.88523,-0.23117 7.92876,0.35982 8.8539,0.86581 0.26859,0.1469 -1.63411,0.26959 -4.32,0.27856 -4.42397,0.0148 -7.71964,0.39725 -10.72,1.24411 -0.616,0.17386 -1.48,0.40986 -1.92,0.52443 -0.44,0.11457 -1.088,0.32822 -1.44,0.47478 -0.352,0.14655 -1.10825,0.4578 -1.68055,0.69165 -0.5723,0.23385 -0.99719,0.55524 -0.94421,0.7142 0.15739,0.47217 5.70651,2.14791 8.78772,2.65375 0.57363,0.0942 1.12213,0.29932 1.21889,0.45587 0.0967,0.15656 0.49142,0.28685 0.87703,0.28955 0.79911,0.006 1.70815,0.4881 1.29528,0.68753 -0.15079,0.0728 -1.49816,0.0279 -2.99416,-0.0999 z m 57.92,-7.63251 c 0,-0.176 -0.1355,-0.32 -0.30112,-0.32 -0.16561,0 -0.39011,0.144 -0.49888,0.32 -0.10877,0.176 0.0267,0.32 0.30111,0.32 0.27439,0 0.49889,-0.144 0.49889,-0.32 z m 24.88,2.34807 c 0.22,-0.0888 0.58,-0.0888 0.8,0 0.22,0.0888 0.04,0.1614 -0.4,0.1614 -0.44,0 -0.62,-0.0726 -0.4,-0.1614 z m 69.78,-42.24667 c 0.231,-0.0924 0.507,-0.0811 0.61334,0.0253 0.10633,0.10633 -0.0827,0.18197 -0.42,0.16807 -0.37279,-0.0153 -0.44861,-0.0912 -0.19334,-0.19333 z m 73.50001,-5.54141 c -0.52173,-0.22419 -0.54001,-0.27917 -0.0989,-0.2975 0.29761,-0.0124 0.63011,0.1215 0.73889,0.2975 0.22741,0.36797 0.21629,0.36797 -0.64,0 z M 206.2921,234.11595 c -0.88,-0.45751 -1.672,-0.9236 -1.76,-1.03575 -0.41368,-0.52722 -2.10741,-0.99089 -3.61958,-0.99089 -3.4948,0 -7.19842,-2.19385 -8.80264,-5.21429 -1.05571,-1.98769 -2.04601,-2.98348 -3.18674,-3.20436 -0.47907,-0.0928 -1.37504,-0.31219 -1.99104,-0.48761 -4.5524,-1.29641 -4.40908,-1.2812 -7.63812,-0.81071 -1.69503,0.24698 -4.16188,0.59472 -5.48188,0.77277 -1.32,0.17805 -3.408,0.47407 -4.64,0.65783 -13.62666,2.03252 -14.46237,2.10107 -22.24,1.8244 -20.18404,-0.71801 -39.05864,-2.03221 -56.800008,-3.95486 -9.43971,-1.02299 -10.5463,-1.14809 -18.239996,-2.06207 -1.584,-0.18817 -4.104,-0.47667 -5.6,-0.6411 -11.672392,-1.28295 -20.685366,-2.51018 -24.320001,-3.31147 -7.378714,-1.6267 -6.720001,-1.02674 -6.720001,-6.12061 0,-4.38119 0.07281,-4.62549 1.204342,-4.04079 0.305612,0.15793 1.635658,0.60733 2.955658,0.99868 1.32,0.39134 2.760001,0.82658 3.200001,0.96718 0.44,0.1406 1.88,0.49018 3.2,0.77684 1.32,0.28667 2.904,0.65139 3.52,0.8105 0.616,0.1591 1.552,0.37529 2.08,0.48041 0.528,0.10511 1.68,0.34062 2.56,0.52334 3.128042,0.64951 4.504235,0.91725 6.4,1.24514 2.289836,0.39605 7.562258,1.21712 10.240001,1.59466 1.056,0.14888 3.072,0.43376 4.48,0.63305 9.629416,1.36299 18.633236,2.38858 31.040004,3.53564 1.76,0.16272 4.784,0.44246 6.72,0.62164 6.1141,0.56586 10.73435,0.9444 15.52,1.27156 2.552,0.17445 5.144,0.38706 5.76,0.47245 0.616,0.0854 2.992,0.24755 5.28,0.36036 2.288,0.1128 4.232,0.24769 4.32,0.29975 0.57961,0.34287 11.86566,0.48189 14.72,0.18131 1.848,-0.1946 4.64352,-0.4882 6.21228,-0.65244 1.56876,-0.16424 2.93676,-0.43236 3.04,-0.59584 0.89179,-1.412 5.2033,-6.56911 6.41433,-7.67234 1.74432,-1.58904 3.51156,-2.5977 5.94235,-3.39162 1.3933,-0.45507 2.74369,-0.8274 3.00086,-0.8274 0.5855,0 3.90634,-1.13285 5.70669,-1.94675 0.74608,-0.33728 1.53966,-0.61325 1.7635,-0.61325 0.22384,0 0.98141,-0.50748 1.68349,-1.12774 2.38056,-2.10314 5.47469,-4.20916 9.72002,-6.61594 1.02304,-0.57998 2.55438,-0.84175 8.99648,-1.53784 1.496,-0.16164 3.008,-0.36154 3.36,-0.44421 2.57051,-0.60371 5.57361,-0.87969 6.11981,-0.56239 0.52417,0.3045 0.47036,0.34989 -0.42475,0.35839 -0.56372,0.005 -1.35572,0.14 -1.76,0.29922 -0.40428,0.15921 -1.59906,0.47138 -2.65506,0.69371 -1.056,0.22232 -2.064,0.5086 -2.24,0.63617 -0.176,0.12758 -0.968,0.3012 -1.76,0.38582 -2.92182,0.3122 -7.71896,1.19257 -8.40892,1.54321 -1.85615,0.94327 -5.33046,3.36656 -5.23537,3.6516 0.12892,0.38642 0.93748,0.3537 3.88429,-0.15717 2.76327,-0.47906 16.30176,-0.81109 16.04366,-0.39348 -0.10019,0.16212 -1.51901,0.46874 -3.15292,0.68137 -9.69581,1.26176 -12.63554,1.87849 -19.45074,4.08063 -1.848,0.59712 -4.008,1.38809 -4.8,1.75771 -2.44861,1.14272 -4.2349,1.77813 -8,2.84572 -3.32507,0.94281 -4.63259,1.74934 -7.56624,4.66714 -1.46167,1.45377 -2.52662,2.93189 -2.28584,3.17267 0.13553,0.13553 3.20128,-0.11273 8.83545,-0.71548 0.9759,-0.10441 2.00089,-0.0336 2.4,0.16584 0.38315,0.19144 2.35263,0.87214 4.37663,1.51267 2.024,0.64052 3.93004,1.29459 4.23566,1.45349 0.30561,0.15889 0.77556,0.28889 1.04434,0.28889 0.26877,0 0.81073,0.16649 1.20434,0.36996 1.50298,0.77697 1.84159,0.91004 2.31566,0.91004 0.26877,0 0.73873,0.13358 1.04434,0.29685 0.30561,0.16326 1.77966,0.68257 3.27566,1.15401 1.496,0.47144 2.97005,0.98586 3.27566,1.14316 0.30561,0.15729 0.86332,0.28598 1.23936,0.28598 0.72445,0 4.13614,-2.29027 6.09545,-4.09189 1.69663,-1.56008 3.15354,-2.59733 4.42953,-3.15362 0.616,-0.26856 1.37005,-0.62018 1.67566,-0.78139 0.30561,-0.1612 0.79132,-0.2931 1.07936,-0.2931 0.4598,0 4.50152,-2.64214 4.92498,-3.21954 0.25224,-0.34394 4.53673,-2.9986 5.6,-3.46974 0.528,-0.23396 1.21005,-0.55259 1.51566,-0.70805 0.30561,-0.15547 0.84756,-0.28267 1.20434,-0.28267 0.35678,0 0.89873,-0.12589 1.20434,-0.27977 0.30561,-0.15387 1.18516,-0.60492 1.95456,-1.00233 1.21618,-0.62819 1.69147,-0.69538 3.63886,-0.51439 3.41092,0.31701 3.76818,0.79382 0.55747,0.74403 -2.44065,-0.0378 -2.84467,0.0437 -3.99523,0.80638 -0.704,0.46667 -2.144,1.1663 -3.2,1.55475 -2.03094,0.74706 -3.47349,1.67118 -3.13581,2.00885 0.11136,0.11137 0.85225,0.20248 1.64642,0.20248 0.79418,0 1.88618,0.13194 2.42667,0.2932 0.5405,0.16126 1.91872,0.58393 3.06272,0.93927 1.22518,0.38056 3.9869,0.80002 6.72,1.02067 4.93951,0.39877 7.15823,1.08817 8.96,2.78404 l 0.8,0.75299 -0.8,-0.30773 c -0.44,-0.16924 -1.304,-0.57203 -1.92,-0.89508 -0.89593,-0.46985 -2.17631,-0.62772 -6.4,-0.78909 -5.1664,-0.19739 -5.83312,-0.29274 -9.76,-1.39577 -1.07404,-0.30168 -3.11845,-0.54718 -4.64,-0.55719 -3.01827,-0.0198 -4.65779,0.54494 -6.72,2.3149 -0.616,0.5287 -2.128,1.34275 -3.36,1.80899 -1.232,0.46624 -2.672,1.14177 -3.2,1.50119 -1.54734,1.05329 -6.39037,5.0404 -6.50601,5.35619 -0.18844,0.51459 1.29702,0.82468 5.70601,1.19115 4.33011,0.35991 8.4882,0.0688 11.92,-0.83447 2.14746,-0.56524 1.22947,0.23536 -1.68,1.46517 -4.20708,1.7783 -16.11638,2.18893 -20.8,0.71719 -1.91257,-0.601 -8.89989,-2.47789 -10.16,-2.72912 -1.4604,-0.29116 -1.36276,0.38423 0.29247,2.02307 1.68648,1.66979 3.69651,2.62043 5.54061,2.62043 1.51852,0 4.35864,0.92657 5.24283,1.71043 1.53673,1.36237 2.92794,1.80957 5.62941,1.80957 2.4749,0 5.78489,0.4891 6.31836,0.93362 0.12302,0.10251 -2.03698,0.21754 -4.8,0.25562 -4.85288,0.0669 -5.07808,0.041 -6.62368,-0.7626 z m 172.81882,-1.80545 c -1.81845,-1.11586 -2.75202,-2.59524 -3.37059,-5.34119 -0.21806,-0.968 -0.52512,-2.01004 -0.68235,-2.31565 -0.15723,-0.30562 -0.28587,-0.75922 -0.28587,-1.008 0,-0.24879 -0.49801,-0.95035 -1.10668,-1.55902 -1.18244,-1.18244 -2.45616,-1.51733 -5.77105,-1.51733 -2.23641,0 -5.60257,-0.36395 -5.60105,-0.60558 6.7e-4,-0.10693 2.15405,-0.23511 4.78529,-0.28486 3.74243,-0.0707 5.0409,0.0169 5.96361,0.40241 1.36125,0.56876 2.50432,1.76818 3.2098,3.36803 0.27163,0.616 0.62577,1.37005 0.78698,1.67566 0.1612,0.30561 0.2931,0.72757 0.2931,0.93768 0,0.21011 0.31123,1.07068 0.69163,1.91239 0.88365,1.95521 2.22561,2.67733 4.37615,2.35484 1.79302,-0.26888 2.78195,-0.92111 5.49222,-3.6223 1.9861,-1.97945 5.14168,-4.2355 7.2,-5.14755 0.528,-0.23396 1.21004,-0.55259 1.51565,-0.70805 0.30562,-0.15547 0.78332,-0.28267 1.06157,-0.28267 0.74054,0 0.31974,-1.06661 -1.34163,-3.40063 -0.76758,-1.07835 -1.39559,-2.03729 -1.39559,-2.13097 0,-0.52807 -4.29874,-7.14122 -5.17266,-7.95758 -1.47862,-1.38124 -3.65458,-2.83082 -4.24934,-2.83082 -0.27868,0 -0.75673,-0.13365 -1.06235,-0.297 -0.66004,-0.35279 -5.39337,-0.98193 -7.43565,-0.98832 -2.16147,-0.007 -6.27793,-1.1429 -8.8,-2.42879 -4.24918,-2.16646 -8.94404,-6.30785 -12.72127,-11.22158 -0.8353,-1.08663 -1.51947,-2.02263 -1.52037,-2.08 -9e-4,-0.0574 1.6911,1.55265 3.76,3.57783 3.89941,3.81699 6.7575,5.9197 10.32164,7.59369 3.02634,1.42139 4.92823,1.73901 11.36,1.89712 4.76185,0.11706 6.09271,0.25732 7.68,0.80942 3.24979,1.13036 6.52034,3.80268 8.8565,7.23652 0.56169,0.82561 1.11357,1.57311 1.22639,1.66111 0.11283,0.088 0.83531,1.096 1.60552,2.24 1.87291,2.78188 3.97527,4.98911 5.74058,6.02695 1.30196,0.76543 1.76327,0.85193 4.49101,0.84212 2.77826,-0.01 3.22406,-0.1015 5.17783,-1.06275 2.44146,-1.2012 10.18217,-7.57147 10.18217,-8.37949 0,-0.12494 -1.044,-0.76271 -2.32,-1.41728 -2.76308,-1.41742 -5.20975,-3.20412 -6.86903,-5.01619 -0.66604,-0.72735 -1.39142,-1.50858 -1.61197,-1.73605 -0.22055,-0.22748 -1.56959,-2.71935 -2.99787,-5.53751 -2.06969,-4.08372 -2.93024,-5.44185 -4.23901,-6.69004 -1.63486,-1.55919 -4.99467,-3.3617 -7.88212,-4.22867 -0.792,-0.2378 -1.5768,-0.55133 -1.744,-0.69673 -0.1672,-0.1454 -0.6267,-0.26436 -1.02112,-0.26436 -0.39441,0 -0.80611,-0.144 -0.91488,-0.32 -0.10878,-0.176 -0.47923,-0.32 -0.82323,-0.32 -0.344,0 -0.8755,-0.13091 -1.18112,-0.29092 -0.30561,-0.16001 -1.50416,-0.7217 -2.66346,-1.2482 -1.16664,-0.52985 -2.92016,-1.70652 -3.92715,-2.63526 -1.87154,-1.7261 -2.28647,-2.63686 -0.52672,-1.15613 1.12364,0.94548 4.79396,2.77051 5.57177,2.77051 0.28522,0 0.76864,0.12997 1.07425,0.28881 0.67555,0.35113 2.46925,0.81893 5.03566,1.31332 4.51146,0.86907 7.85003,1.79949 9.31616,2.5963 4.04339,2.1975 5.53959,3.67236 8.68696,8.56305 2.88895,4.48912 6.32638,7.38994 10.47688,8.84135 1.9075,0.66704 5.18536,1.11772 8.15988,1.1219 3.08081,0.004 5.40188,0.34915 8.80012,1.30731 2.95365,0.83281 5.17387,1.94314 11.86085,5.93157 3.89587,2.32368 5.03659,2.9514 7.97915,4.39082 8.54605,4.18048 11.82847,5.03658 24.16,6.3012 4.02476,0.41274 19.62654,0.22546 24.96,-0.29962 5.88152,-0.57903 9.45329,-0.99747 11.35706,-1.3305 1.05762,-0.18501 2.78694,-0.48521 3.84294,-0.6671 2.92966,-0.50464 5.01784,-0.93678 6.10272,-1.26295 0.5405,-0.1625 1.288,-0.29546 1.66112,-0.29546 0.37311,0 0.76739,-0.144 0.87616,-0.32 0.10878,-0.176 0.5139,-0.32 0.90027,-0.32 0.38638,0 1.70022,-0.36188 2.91964,-0.80419 1.7233,-0.62506 2.27429,-0.71416 2.47372,-0.4 0.32159,0.50662 0.34113,10.51654 0.0215,10.9991 -0.78901,1.19108 -12.35827,3.26803 -23.7551,4.26458 -9.72334,0.85022 -18.19468,1.0832 -25.52,0.70184 -16.91736,-0.88071 -25.39348,-2.61719 -34.93736,-7.15749 -2.63881,-1.25536 -10.43449,-6.31918 -12.30796,-7.99484 -0.33882,-0.30305 -1.52016,-0.98705 -2.6252,-1.52 -2.2926,-1.1057 -4.69584,-1.27577 -7.21669,-0.51071 -2.40415,0.72965 -2.74373,0.93073 -10.80394,6.39752 -5.4635,3.70558 -8.19987,4.66419 -13.31395,4.66419 -3.59254,0 -4.59829,-0.18555 -7.11142,-1.31198 -0.74608,-0.33441 -1.86001,-0.60802 -2.4754,-0.60802 -1.22843,0 -3.84898,0.55355 -4.72374,0.99781 -0.30561,0.1552 -0.7167,0.28219 -0.91353,0.28219 -1.00941,0 -5.86245,3.11802 -7.01081,4.50436 -0.4221,0.50957 -3.16073,2.31945 -4.11908,2.72218 -1.29741,0.54521 -5.07419,0.56723 -5.94211,0.0346 z m -18.09881,-13.01114 c 0,-0.17048 0.216,-0.22707 0.48,-0.12577 0.264,0.10131 0.48,0.24079 0.48,0.30996 0,0.0692 -0.216,0.12576 -0.48,0.12576 -0.264,0 -0.48,-0.13948 -0.48,-0.30995 z M 127.38909,154.35061 c -2.23892,-0.8536 -3.23483,-1.5489 -4.45699,-3.11166 -2.24352,-2.86877 -3.3964,-4.1611 -6.05457,-6.78696 -1.49065,-1.47253 -3.02177,-3.27253 -3.4025,-4 -2.09456,-4.00222 -3.00945,-5.26805 -4.57323,-6.32742 -1.39918,-0.94786 -1.87618,-1.23573 -4.68045,-2.82459 -1.81566,-1.02873 -3.80293,-2.3671 -4.529772,-3.05067 -0.37428,-0.352 -1.59828,-1.52008 -2.72,-2.59573 -1.245506,-1.19436 -2.537786,-2.11347 -3.319486,-2.36092 -0.704,-0.22286 -1.64,-0.56034 -2.08,-0.74995 -0.48914,-0.2108 -4.4059,-0.38683 -10.08,-0.45303 -9.765639,-0.11395 -9.587024,-0.0909 -13.599996,-1.75438 -1.016511,-0.42137 -2.220211,-0.90292 -3.040001,-1.21618 -0.352,-0.1345 -1.144,-0.45414 -1.76,-0.7103 -0.616,-0.25616 -1.984,-0.7914 -3.04,-1.18942 -1.056,-0.39802 -2.53043,-0.99512 -3.276512,-1.32688 -0.746082,-0.33176 -1.637584,-0.60321 -1.981115,-0.60321 -0.343531,0 -0.704198,-0.12879 -0.801482,-0.2862 -0.09728,-0.1574 -0.717782,-0.36026 -1.378885,-0.45079 -0.661103,-0.0905 -2.354006,-0.3357 -3.762006,-0.54482 -3.369385,-0.50044 -8.009431,-0.20354 -10.522391,0.67329 -1.076685,0.37568 -2.09441,0.81029 -2.26161,0.96579 -0.673939,0.62679 -0.816,0.15359 -0.816,-2.71809 0,-2.36513 0.108876,-3.09117 0.513962,-3.42736 0.643226,-0.53383 10.904165,-0.58941 12.606039,-0.0683 0.616,0.18863 1.984,0.51786 3.04,0.73164 4.690504,0.94954 7.160067,1.64043 10.24,2.86479 1.598854,0.63558 2.295845,0.91795 3.04,1.23157 0.44,0.18544 1.880001,0.72025 3.200001,1.18847 2.353183,0.83471 3.307519,1.20929 4.690046,1.84086 0.425155,0.19422 2.881952,0.23845 6.4,0.11522 5.75131,-0.20145 11.27589,0.0935 13.78995,0.73623 3.091766,0.79043 3.868896,0.97517 6.159996,1.46439 7.161942,1.5293 16.220492,3.09032 24.255382,4.17982 4.08452,0.55385 5.56209,0.39859 9.18523,-0.96516 2.94223,-1.10745 4.98629,-2.45531 6.61918,-4.36473 0.73686,-0.86164 1.52885,-1.56663 1.75998,-1.56663 0.23113,0 0.42024,-0.1272 0.42024,-0.28268 0,-0.15547 0.252,-0.36281 0.56,-0.46076 0.62062,-0.19736 5.14557,-2.65664 5.6686,-3.08084 0.18227,-0.14783 1.0514,-0.66741 1.9314,-1.15461 0.88,-0.4872 2.176,-1.22078 2.88,-1.63018 3.77889,-2.19753 6.6981,-3.35396 9.24546,-3.66254 1.427,-0.17286 3.56921,-0.45247 4.76048,-0.62134 2.70063,-0.38285 4.16448,-0.39223 3.93767,-0.0253 -0.0958,0.15499 -0.50028,0.36097 -0.89888,0.45774 -0.3986,0.0968 -1.30073,0.34082 -2.00473,0.54234 -1.31055,0.37514 -2.95446,0.75146 -5.36,1.22697 -1.7913,0.35409 -3.30889,1.02292 -5.49694,2.4226 -0.98752,0.63171 -1.93669,1.14856 -2.10928,1.14856 -0.17258,0 -0.31378,0.144 -0.31378,0.32 0,0.176 -0.14602,0.32 -0.32449,0.32 -0.17847,0 -0.82469,0.324 -1.43604,0.72 -1.35638,0.87859 -1.45967,1.7518 -0.23947,2.02441 2.50235,0.55907 4.79976,1.19381 5.45279,1.50652 0.91335,0.43737 3.45935,0.41661 4.90027,-0.04 3.01642,-0.95579 5.57027,-1.32261 8.91826,-1.28098 1.95932,0.0244 3.44534,0.16136 3.30226,0.30444 -0.14307,0.14307 -1.69866,0.32343 -3.45686,0.4008 -1.7582,0.0774 -3.70072,0.28955 -4.31672,0.47153 -7.58615,2.24104 -7.08596,2.20675 -11.84,0.81165 -0.968,-0.28407 -2.22934,-0.58683 -2.80297,-0.6728 -0.57363,-0.086 -1.12213,-0.2844 -1.21888,-0.44095 -0.0968,-0.15656 -0.79719,-0.28465 -1.55651,-0.28465 -1.8972,0 -5.69674,2.27666 -8.82164,5.28586 -1.32,1.27112 -2.868,2.50896 -3.44,2.75075 -0.572,0.2418 -1.04,0.54847 -1.04,0.68151 0,0.13303 -0.1873,0.24188 -0.41621,0.24188 -0.66844,0 -2.11833,0.764 -2.29074,1.20707 -0.16709,0.42942 1.10645,1.08257 7.18695,3.68587 0.616,0.26373 1.768,0.75997 2.56,1.10276 0.792,0.34278 1.872,0.78072 2.4,0.9732 0.61059,0.22259 6.35645,0.42238 15.78693,0.54894 l 14.82694,0.19898 3.03505,-2.97841 c 1.66928,-1.63812 3.69699,-3.84241 4.50602,-4.89841 0.80904,-1.056 1.72806,-2.10321 2.04229,-2.32713 0.31422,-0.22392 0.75888,-0.58392 0.98813,-0.8 0.22925,-0.21608 1.56832,-1.25687 2.97573,-2.31287 1.4074,-1.056 2.60691,-2.028 2.66558,-2.16 0.0587,-0.132 0.29866,-0.24 0.53333,-0.24 0.23467,0 0.47467,-0.11143 0.53333,-0.24762 0.15012,-0.34848 3.78217,-3.14637 4.74667,-3.65651 0.44,-0.23272 2.75819,-1.54166 5.15152,-2.90875 l 4.35153,-2.48562 3.32847,-0.29997 c 4.26449,-0.38433 8.0561,-0.40219 7.83033,-0.0369 -0.0967,0.15655 -0.64525,0.36456 -1.21888,0.46223 -0.57364,0.0977 -1.76297,0.33673 -2.64297,0.53123 -0.88,0.1945 -2.56335,0.48079 -3.74078,0.63621 -2.36145,0.31172 -2.7494,0.47677 -5.53922,2.3567 -2.62613,1.76962 -2.94992,2.10723 -2.3719,2.47312 0.24855,0.15733 0.81252,0.28827 1.25329,0.29096 0.44076,0.003 1.80876,0.37167 3.04,0.81994 1.99372,0.72588 2.55367,0.79446 5.11861,0.62689 2.85877,-0.18677 4.77794,-0.56447 6.15952,-1.21222 0.39573,-0.18554 0.8073,-0.24956 0.91458,-0.14227 0.21327,0.21327 -1.9335,1.19256 -2.61429,1.19256 -0.23212,0 -0.49892,0.12439 -0.59288,0.27643 -0.094,0.15203 -1.14646,0.36593 -2.33889,0.47533 -1.19242,0.10939 -2.92404,0.29132 -3.84804,0.40428 -1.15455,0.14115 -1.68,0.0926 -1.68,-0.15532 0,-0.1984 -0.21795,-0.36072 -0.48434,-0.36072 -0.26639,0 -0.73439,-0.12632 -1.04,-0.28072 -2.02071,-1.02086 -4.90502,-1.2855 -6.82791,-0.62648 -0.59826,0.20504 -2.31175,1.36409 -3.80775,2.57567 -1.496,1.21158 -2.94019,2.37582 -3.20931,2.5872 -1.82451,1.43305 -3.69549,2.9515 -3.83069,3.1089 -0.088,0.10245 -0.6438,0.52438 -1.23511,0.93764 -0.5913,0.41325 -1.69741,1.59671 -2.45801,2.62991 -0.76059,1.0332 -2.1128,2.4555 -3.00489,3.16066 -1.9872,1.57079 -2.11579,2.38186 -0.42199,2.66183 1.71627,0.28368 2.88523,0.25103 3.52434,-0.0984 0.30561,-0.16711 2.28366,-0.83824 4.39566,-1.4914 2.112,-0.65316 3.9768,-1.30843 4.144,-1.45616 0.1672,-0.14773 0.56515,-0.2686 0.88434,-0.2686 0.31919,0 0.83039,-0.13231 1.136,-0.29403 0.30561,-0.16171 2.64366,-0.95698 5.19566,-1.76725 2.552,-0.81028 4.89005,-1.61397 5.19566,-1.78597 0.30561,-0.17201 0.77556,-0.31275 1.04434,-0.31275 0.26878,0 0.73873,-0.13837 1.04434,-0.30748 0.58619,-0.32438 6.22872,-2.13882 7.99286,-2.57022 0.94333,-0.23068 6.98496,-0.0109 14.2665,0.51901 1.73746,0.12644 3.27621,0.0706 4,-0.14506 1.51348,-0.45103 4.95311,-1.31796 6.6963,-1.68775 6.69734,-1.42073 7.8137,-1.62147 7.99713,-1.43804 0.096,0.096 -0.0981,0.26292 -0.43133,0.37103 -0.33319,0.1081 -0.8938,0.31308 -1.2458,0.45552 -0.352,0.14244 -1.504,0.5009 -2.56,0.79658 -1.056,0.29569 -2.28,0.65269 -2.72,0.79334 -0.44,0.14065 -1.88,0.57828 -3.2,0.9725 -1.32,0.39423 -2.688,0.82722 -3.04,0.9622 -2.30748,0.88485 -3.56096,0.98488 -11.2,0.89378 -6.18792,-0.0738 -8.30427,0.006 -9.3433,0.3503 -1.72485,0.5723 -2.00224,1.25958 -0.8478,2.10054 0.48595,0.35399 1.73418,1.53806 2.77383,2.63128 1.22748,1.29072 2.24214,2.06282 2.89378,2.20202 0.55192,0.11789 1.14749,0.31579 1.32349,0.43976 0.176,0.12398 0.968,0.42129 1.76,0.66069 0.792,0.23941 1.584,0.52741 1.76,0.64 0.176,0.1126 0.968,0.4006 1.76,0.64 0.792,0.23941 1.62156,0.57227 1.84347,0.7397 0.2219,0.16743 1.20129,0.29725 2.17641,0.28849 1.65597,-0.0149 3.17069,-0.20871 8.51607,-1.08973 1.27436,-0.21003 2.75879,-0.24827 3.68,-0.0948 0.84923,0.1415 2.62405,0.34826 3.94405,0.45947 2.05032,0.17274 2.26194,0.24285 1.45245,0.48117 -0.58558,0.1724 -1.99609,0.13057 -3.69241,-0.10952 -1.94087,-0.2747 -3.16301,-0.29365 -4.17245,-0.0647 -0.78517,0.17809 -2.29159,0.47955 -3.34759,0.66989 -1.056,0.19035 -2.53407,0.48422 -3.28459,0.65304 -0.75053,0.16883 -1.65053,0.30696 -2,0.30696 -0.34948,0 -0.63127,0.18 -0.62621,0.4 0.0105,0.45816 2.98102,3.67264 4.15145,4.49244 0.42996,0.30116 0.60109,0.54756 0.38027,0.54756 -1.06547,0 -2.72433,-1.09469 -5.11555,-3.3758 -1.78333,-1.7012 -3.05849,-2.64181 -3.98408,-2.93881 -0.74871,-0.24024 -1.64929,-0.56789 -2.00129,-0.72812 -0.352,-0.16022 -1.92039,-0.71507 -3.48531,-1.233 -1.56493,-0.51793 -3.04483,-1.13577 -3.28868,-1.37298 -0.24384,-0.23721 -1.5135,-1.54305 -2.82147,-2.90187 -1.30796,-1.35883 -2.7503,-2.56401 -3.2052,-2.67818 -0.74011,-0.18575 -2.09232,0.16232 -4.55934,1.17362 -0.396,0.16233 -1.044,0.42599 -1.44,0.58592 -0.396,0.15993 -2.232,0.81735 -4.08,1.46092 -1.848,0.64357 -3.648,1.29019 -4,1.43692 -0.352,0.14674 -1.144,0.43986 -1.76,0.65138 -0.616,0.21153 -1.408,0.50251 -1.76,0.64664 -0.352,0.14412 -1.72,0.64514 -3.04,1.11336 -2.3966,0.85011 -2.83301,1.01488 -4.64,1.75184 -0.69634,0.28399 -6.52276,0.46461 -21.21408,0.65763 -21.82674,0.28677 -20.21344,0.37448 -23.91962,-1.30041 -0.71153,-0.32155 -2.26262,-0.94935 -3.44686,-1.39509 -1.18424,-0.44575 -2.69008,-1.04642 -3.3463,-1.33484 -0.65623,-0.28841 -1.48114,-0.63935 -1.83314,-0.77986 -0.352,-0.14052 -1.288,-0.53905 -2.08,-0.88563 -0.792,-0.34658 -1.8,-0.73856 -2.24,-0.87106 -0.44,-0.1325 -0.944,-0.3441 -1.12,-0.47022 -0.30669,-0.21978 -2.47173,-0.61087 -7.12,-1.28616 -4.76365,-0.69204 -7.38826,-1.09055 -10.48,-1.59124 -1.056,-0.17101 -3.30531,-0.52968 -4.99847,-0.79705 -1.69315,-0.26736 -3.30626,-0.57353 -3.58468,-0.68037 -0.88494,-0.33958 -1.19282,0.1665 -0.51415,0.84517 0.79311,0.79311 3.4549,2.46599 5.5773,3.50522 0.88,0.43089 1.672,0.86607 1.76,0.96707 0.088,0.10099 1.168,0.89224 2.4,1.75832 1.232,0.86608 2.288,1.68539 2.34666,1.82069 0.0587,0.1353 0.24015,0.24599 0.40328,0.24599 0.16314,0 0.97914,0.47766 1.81334,1.06146 0.83419,0.58381 1.98472,1.26696 2.55672,1.51812 0.572,0.25116 1.04,0.5655 1.04,0.69854 0,0.13303 0.2795,0.24188 0.62111,0.24188 0.34161,0 0.69985,0.1274 0.79608,0.28311 0.0962,0.15571 0.57273,0.36015 1.05889,0.45431 1.68032,0.32546 6.64751,1.52444 7.65006,1.84658 0.68693,0.22072 1.50303,1.00427 2.57226,2.46965 2.2674,3.10748 3.37605,4.89857 3.16361,5.11101 -0.10226,0.10226 -1.48333,-1.16312 -3.06904,-2.81196 l -2.88311,-2.99789 -2.63493,-0.38297 c -1.44921,-0.21063 -3.35493,-0.4819 -4.23493,-0.60282 -1.77827,-0.24435 -1.86174,-0.27392 -5.35613,-1.89812 -2.84423,-1.32199 -2.80387,-1.31256 -2.80387,-0.65501 0,0.95187 1.04219,2.49775 2.99388,4.44083 2.32214,2.31188 4.28271,4.64741 5.39552,6.42738 1.51994,2.4312 4.70419,4.94622 6.28084,4.9608 0.29136,0.003 0.74576,0.14449 1.00976,0.3151 0.82039,0.53018 -0.94415,0.32613 -2.58301,-0.2987 z m 328.02302,-1.38908 c 0,-0.28294 0.144,-0.60344 0.32,-0.71222 0.176,-0.10877 0.32,-0.40701 0.32,-0.66276 0,-0.58524 2.27711,-5.37991 2.62345,-5.5239 0.1411,-0.0587 0.25655,-0.24401 0.25655,-0.41187 0,-0.16786 0.72,-1.33045 1.6,-2.58352 0.88,-1.25308 1.6,-2.45177 1.6,-2.66376 0,-0.43142 -1.4967,-0.26022 -1.78362,0.20402 -0.0958,0.15499 -0.42886,0.28179 -0.74017,0.28179 -0.31131,0 -1.84982,0.504 -3.41891,1.12 -1.5691,0.616 -2.96189,1.12 -3.0951,1.12 -0.52645,0 -0.19657,-0.52902 0.6378,-1.02282 0.484,-0.28644 1.19635,-0.78549 1.583,-1.10899 0.38666,-0.3235 2.92704,-2.02819 5.64529,-3.78819 5.37685,-3.48137 6.14366,-4.32136 3.94175,-4.31792 -7.80563,0.0122 -38.42659,-0.3796 -39.38333,-0.50388 -2.22536,-0.28908 -20.63023,-0.91019 -27.38671,-0.92423 -3.608,-0.007 -8,0.17143 -9.76,0.39762 -7.46851,0.9598 -10.24449,1.40638 -13.44,2.16213 -1.232,0.29137 -2.70934,0.60339 -3.28297,0.69338 -0.57363,0.09 -1.12213,0.2917 -1.21889,0.44826 -0.0968,0.15655 -0.45737,0.28464 -0.80137,0.28464 -0.344,0 -0.8755,0.1272 -1.18112,0.28267 -0.30561,0.15546 -0.91565,0.42665 -1.35565,0.60262 -4.43181,1.77251 -5.41858,2.19337 -6.32,2.69545 -0.572,0.31859 -1.58,0.88283 -2.24,1.25385 -1.51369,0.85093 -5.20501,3.44718 -5.84001,4.10749 -0.264,0.27452 -0.768,0.71238 -1.12,0.97301 l -0.64,0.47388 0.64,-0.79148 c 0.62267,-0.77004 2.01434,-2.09972 4.95867,-4.73781 0.79126,-0.70896 1.3528,-1.37488 1.24786,-1.47982 -0.17731,-0.17731 -2.35933,0.10616 -6.20653,0.80629 -3.3393,0.60771 -5.18634,0.92334 -7.2,1.2304 -1.144,0.17445 -3.52,0.5423 -5.28,0.81744 -1.76,0.27515 -4.208,0.63859 -5.44,0.80764 -1.232,0.16906 -2.816,0.40224 -3.52,0.51817 -0.704,0.11593 -1.1834,0.10582 -1.06535,-0.0225 0.22518,-0.24471 1.58481,-0.61437 4.26535,-1.15965 0.88,-0.17901 2.176,-0.45696 2.88,-0.61766 1.5584,-0.35572 3.60859,-0.76545 7.2,-1.43892 3.18843,-0.59789 5.61765,-1.05815 7.84,-1.48542 1.84655,-0.35502 4.36277,-0.81052 6.88001,-1.24546 4.00726,-0.69239 4.78984,-0.93591 8.05647,-2.50702 1.87906,-0.90375 3.61426,-1.64318 3.856,-1.64318 0.24174,0 0.57633,-0.11911 0.74353,-0.26468 0.1672,-0.14558 1.348,-0.61025 2.624,-1.03259 1.276,-0.42235 2.32,-0.86384 2.32,-0.98108 0,-0.56784 -3.29132,-0.98274 -12.64,-1.59341 -6.02461,-0.39353 -10.07697,-0.71738 -15.36001,-1.22751 -3.98724,-0.385 -8.23279,-0.79049 -13.6,-1.29893 -2.024,-0.19173 -5.264,-0.54492 -7.2,-0.78487 l -3.52,-0.43627 4.64,0.088 c 2.552,0.0484 11.264,0.28397 19.36,0.52345 18.57983,0.54957 43.09853,0.55148 62.08001,0.005 17.84868,-0.51404 19.10869,-0.5911 18.97805,-1.16066 -0.0539,-0.23512 -0.99122,-1.35489 -2.08286,-2.48838 l -1.98482,-2.06089 -3.13518,-0.19033 c -3.2439,-0.19692 -8.54766,-0.71605 -11.61519,-1.13688 -3.55027,-0.48705 -0.0992,-0.78269 6.49141,-0.55608 5.80705,0.19967 6.36799,0.17263 6.1873,-0.29825 -0.10929,-0.28481 -0.19871,-0.6229 -0.19871,-0.75132 0,-0.12842 -0.26305,-0.51583 -0.58454,-0.86092 -0.3215,-0.34509 -1.11301,-1.41624 -1.75891,-2.38034 -0.6459,-0.9641 -1.28286,-1.90424 -1.41546,-2.0892 -0.1326,-0.18497 -0.4431,-0.68897 -0.69,-1.12 -0.2469,-0.43104 -0.65946,-1.10771 -0.91681,-1.50371 -0.72069,-1.10901 -0.0143,-0.84659 0.86919,0.32291 1.36869,1.81175 8.42191,8.70143 10.41653,10.17501 1.056,0.78014 1.992,1.49995 2.08,1.59958 0.43347,0.49072 4.40183,3.12875 4.96593,3.30117 2.24663,0.68672 44.09765,-2.028 65.59407,-4.25484 1.584,-0.16409 3.06,-0.30858 3.28,-0.32109 0.22,-0.0125 0.3936,-0.20274 0.38577,-0.42274 -0.0176,-0.4947 -4.33029,-5.08863 -5.42577,-5.7796 -1.87072,-1.17993 -10.74732,-2.76825 -15.65212,-2.80068 -2.38766,-0.0158 -2.8905,-0.0916 -2.26788,-0.34196 0.84014,-0.33781 11.20591,-0.17481 13.68,0.21512 1.69816,0.26764 1.78054,-0.19278 0.31722,-1.77288 -0.57047,-0.616 -1.60834,-1.84 -2.30637,-2.72 -0.69803,-0.88 -1.34603,-1.672 -1.44,-1.76 -0.53265,-0.49882 -2.29629,-2.94122 -2.19615,-3.04136 0.0654,-0.0654 1.62788,0.97352 3.47212,2.30875 4.10578,2.97259 11.98329,8.09261 12.45104,8.09261 0.18818,0 0.34214,0.12721 0.34214,0.28268 0,0.15547 0.252,0.36515 0.56,0.46594 0.308,0.1008 1.136,0.52431 1.84,0.94113 1.92823,1.14167 5.52331,3.08733 7.68,4.15642 l 1.92,0.95177 3.2,-0.37862 c 1.76,-0.20824 3.632,-0.45249 4.16,-0.54277 0.528,-0.0903 2.184,-0.29213 3.68,-0.44856 2.86682,-0.29977 6.07354,-0.68616 10.531,-1.26891 2.15931,-0.28231 2.74318,-0.26955 2.9551,0.0645 0.14526,0.22901 0.26631,3.38897 0.269,7.02214 0.004,5.95586 -0.0493,6.62655 -0.54572,6.81705 -1.04673,0.40167 -26.6971,1.63783 -49.52938,2.38695 -7.545,0.24755 -8.87435,0.42425 -12.96929,1.72389 -0.78689,0.24974 -2.07871,0.63287 -2.87071,0.85139 -0.792,0.21853 -1.69005,0.52729 -1.99566,0.68614 -0.30561,0.15885 -0.77556,0.28881 -1.04434,0.28881 -0.26878,0 -0.73873,0.13183 -1.04434,0.29296 -0.30561,0.16113 -1.63566,0.61425 -2.95566,1.00694 -2.56188,0.76214 -3.71756,1.69036 -6.54915,5.2601 -0.69803,0.88 -1.36225,1.672 -1.47604,1.76 -0.38152,0.29504 -3.17481,4.80265 -3.17481,5.12328 0,0.1742 -0.12721,0.31672 -0.28268,0.31672 -0.15547,0 -0.36753,0.252 -0.47124,0.56 -0.20117,0.59742 -1.31264,2.57322 -1.62101,2.8816 -0.10179,0.10179 -0.18507,-0.0464 -0.18507,-0.32938 z M 220.5321,113.67927 c 0,-0.17048 0.216,-0.30996 0.48,-0.30996 0.264,0 0.48,0.0566 0.48,0.12577 0,0.0692 -0.216,0.20865 -0.48,0.30995 -0.264,0.10131 -0.48,0.0447 -0.48,-0.12576 z M 360.31314,81.855947 c -1.12088,-0.76166 -2.18103,-2.34635 -2.18103,-3.26015 0,-0.23935 -0.17023,-0.70776 -0.37829,-1.04091 -0.29275,-0.46877 -0.28518,-1.02856 0.0335,-2.47566 0.49532,-2.24922 0.62033,-2.58296 1.93754,-5.17247 0.56585,-1.1124 0.93913,-2.11223 0.82953,-2.22184 -0.10961,-0.10961 -1.59946,0.53412 -3.31079,1.43051 -3.10837,1.62816 -4.75701,2.28301 -8.0715,3.20606 -2.11575,0.58921 -9.81777,0.71905 -10.94145,0.18444 -0.4062,-0.19325 -1.29024,-0.59436 -1.96453,-0.89134 -0.6743,-0.29699 -1.16227,-0.6037 -1.08438,-0.68158 0.0779,-0.0779 0.55757,0.0337 1.06598,0.24789 0.54987,0.23169 2.545,0.39716 4.92438,0.40841 7.94191,0.0375 12.73851,-2.15563 24.32707,-11.1231 1.19984,-0.92846 5.13429,-3.4169 5.40243,-3.4169 0.16345,0 0.34517,-0.1193 0.40384,-0.26511 0.0873,-0.21696 2.63489,-1.31198 6.82667,-2.93426 0.59275,-0.2294 1.40351,-0.45531 4.56,-1.27057 0.66,-0.17047 2.28,-0.46635 3.6,-0.65752 5.0629,-0.73322 5.19697,-0.90439 2,-2.55349 -1.188,-0.61281 -2.232,-1.18752 -2.32,-1.27714 -0.088,-0.0896 -0.592,-0.3787 -1.12,-0.64242 -0.528,-0.26372 -2.00815,-1.09149 -3.28922,-1.83949 -1.28107,-0.748 -2.38935,-1.36 -2.46286,-1.36 -0.0735,0 -0.96935,-0.48561 -1.99078,-1.07913 -3.76428,-2.18731 -9.30046,-4.90771 -12.25714,-6.023 -4.08428,-1.54062 -4.17915,-1.57416 -5.28,-1.86703 -0.528,-0.14046 -1.824,-0.50199 -2.88,-0.80338 -3.57821,-1.02127 -14.02346,-0.6551 -15.34401,0.5379 -0.1672,0.15105 -0.56515,0.27464 -0.88434,0.27464 -0.31919,0 -0.83039,0.1272 -1.136,0.28266 -0.65854,0.33501 -1.73748,0.7784 -3.27566,1.34614 -2.77698,1.02499 -5.24016,3.68098 -6.25927,6.74922 -0.46172,1.39011 -0.47909,1.79673 -0.12285,2.87614 0.22819,0.69143 0.64032,1.3833 0.91584,1.53749 0.67881,0.37988 0.32406,0.6663 -0.54407,0.43928 -0.9094,-0.23781 -1.96382,-1.95678 -2.05056,-3.3429 -0.0374,-0.59842 0.0433,-1.91603 0.17944,-2.92803 0.13614,-1.012 0.19054,-1.84 0.12089,-1.84 -0.0697,0 -1.34001,0.3644 -2.82302,0.80979 -6.00807,1.80438 -10.45883,2.20242 -14.69652,1.31433 -2.30976,-0.48406 -5.43988,-1.72896 -5.43988,-2.16353 0,-0.15433 -0.19286,-0.28059 -0.42858,-0.28059 -0.39577,0 -1.61453,-1.19853 -2.77142,-2.72542 -0.34563,-0.45617 -0.15334,-0.38982 0.68695,0.23703 1.47759,1.10228 4.77673,2.6072 6.75765,3.08254 4.34187,1.04188 11.26412,-0.13989 17.15092,-2.92801 1.16846,-0.55342 2.17248,-1.1187 2.23115,-1.25618 0.0587,-0.13748 0.32561,-0.24996 0.59321,-0.24996 0.26759,0 1.44359,-0.48279 2.61333,-1.07287 7.51478,-3.79086 10.95201,-4.82737 17.31617,-5.22179 5.06837,-0.31412 13.21406,1.18253 17.04628,3.13199 0.30562,0.15547 0.81682,0.28267 1.136,0.28267 0.31919,0 0.71715,0.11812 0.88435,0.26249 0.1672,0.14437 1.312,0.67919 2.544,1.18848 1.232,0.50929 3.608,1.63185 5.28,2.49456 15.25886,7.87327 19.54394,9.89778 23.52,11.1122 0.704,0.21502 1.568,0.50415 1.92,0.6425 1.49207,0.58647 7.54875,1.5558 9.76,1.56202 2.30739,0.006 7.72295,-0.95246 10.4,-1.84157 2.61565,-0.86872 5.64754,-2.15736 9.50735,-4.0409 4.05672,-1.97963 5.64875,-2.92125 5.34929,-3.16388 -0.0751,-0.0609 -1.57664,-0.29143 -3.33664,-0.5123 -1.76,-0.22087 -3.92,-0.59794 -4.8,-0.83793 -0.88,-0.23999 -1.96,-0.52942 -2.4,-0.64318 -0.44,-0.11375 -1.376,-0.46156 -2.08,-0.77291 -0.704,-0.31135 -1.64,-0.67322 -2.08,-0.80414 -1.85594,-0.55225 -6.46488,-3.27406 -9.34221,-5.51704 -0.89053,-0.69419 -5.74681,-5.5852 -9.85779,-9.92827 -2.94007,-3.10605 -7.41549,-6.800135 -8.23844,-6.800135 -0.22086,0 -0.40156,-0.108848 -0.40156,-0.241884 0,-0.435852 -5.06117,-2.318116 -6.23312,-2.318116 -0.42301,0 -0.85811,-0.144 -0.96688,-0.32 -0.43499,-0.703825 3.4573,-0.21622 6.4,0.801759 1.7168,0.593899 4.78093,2.23242 6.27717,3.356673 0.91781,0.689632 1.78892,1.179613 1.93579,1.088833 0.14687,-0.0908 0.26704,-1.290951 0.26704,-2.66707 0,-1.47198 0.19273,-2.96331 0.46815,-3.622484 1.00625,-2.4082868 3.11533,-4.0894428 5.10101,-4.0660258 l 0.99084,0.01168 -1.35019,0.633117 c -2.68634,1.259649 -4.09026,4.2366058 -3.53863,7.5035128 0.1486,0.88 0.87737,2.824005 1.61949,4.320005 1.04525,2.10704 1.92623,3.2969 3.90933,5.28 3.62007,3.62007 7.25833,6.56 8.11822,6.56 0.19898,0 0.36178,0.12888 0.36178,0.28641 0,0.36737 4.74379,2.65443 7.04,3.39409 0.968,0.31181 2.048,0.67924 2.4,0.81651 2.60333,1.01518 6.87063,1.57018 12.12287,1.57669 5.3584,0.007 6.99078,-0.25559 9.79713,-1.57385 0.264,-0.12401 2.64,-0.91421 5.28,-1.756 2.64,-0.84179 5.05005,-1.65953 5.35566,-1.81719 0.30561,-0.15767 0.84756,-0.28666 1.20434,-0.28666 0.35678,0 0.89873,-0.13355 1.20434,-0.29677 1.10756,-0.59153 11.12346,-2.52198 16.87566,-3.25259 7.54481,-0.9583 25.69372,-1.13563 28.67644,-0.28019 0.59363,0.17025 1.6093,0.30955 2.25704,0.30955 0.64773,0 1.94468,0.15338 2.88211,0.34086 0.93743,0.18747 2.46041,0.47547 3.38441,0.64 5.43417,0.9676 10.56404,2.15042 12.4,2.85914 0.352,0.13587 1.288,0.42387 2.08,0.64 0.792,0.21612 1.728,0.51323 2.08,0.66025 0.352,0.14701 1.90187,0.6966 3.44416,1.22129 1.54228,0.52469 3.48628,1.28799 4.32,1.69622 l 1.51584,0.74224 0.0944,2.52964 c 0.0519,1.39131 -0.0342,2.6582 -0.19132,2.81532 -0.16757,0.16757 -0.66963,0.13057 -1.21436,-0.0895 -0.51077,-0.20634 -1.21668,-0.4923 -1.56868,-0.63546 -0.84551,-0.34389 -5.06414,-1.69794 -6.88,-2.20827 -0.792,-0.22258 -1.728,-0.52143 -2.08,-0.66412 -0.352,-0.14268 -1,-0.33224 -1.44,-0.42126 -0.44,-0.089 -1.376,-0.32543 -2.08,-0.52538 -14.45444,-4.10529 -36.0508,-5.19343 -50.88,-2.56361 -0.88,0.15606 -2.968,0.51959 -4.64,0.80784 -4.25232,0.7331 -9.11202,1.89559 -11.36,2.71745 -0.352,0.12869 -2.368,0.77862 -4.48,1.44428 -2.112,0.66567 -3.9768,1.33243 -4.144,1.48168 -0.1672,0.14926 -0.49277,0.27138 -0.72349,0.27138 -0.23072,0 -1.06592,0.288 -1.856,0.64 -0.79008,0.352 -2.08294,0.928 -2.87302,1.28 -0.79009,0.352 -1.5144,0.64 -1.6096,0.64 -0.0952,0 -2.36476,1.06117 -5.04348,2.35815 -2.67873,1.29699 -5.59041,2.68112 -6.47041,3.07584 -0.88,0.39472 -2.32,1.04102 -3.2,1.43623 -2.27686,1.02253 -6.69641,2.38765 -10.80459,3.33734 -1.89916,0.43902 -10.31157,0.46299 -12.15082,0.0346 -0.75053,-0.17481 -2.30059,-0.56176 -3.44459,-0.8599 -3.84925,-1.00315 -12.62868,-0.75796 -18.88,0.52727 -3.02788,0.62252 -3.37795,0.70573 -4,0.95084 -0.352,0.13869 -1.432,0.50836 -2.4,0.82148 -6.56323,2.12298 -11.14379,5.69608 -15.14435,11.81344 -2.57608,3.93916 -3.18215,5.43762 -3.18625,7.8778 -0.004,2.63935 0.81662,4.19988 2.82146,5.36257 0.62165,0.36052 0.62145,0.36498 -0.0166,0.37459 -0.35515,0.005 -1.17111,-0.34728 -1.81325,-0.78363 z M 156.2121,60.997477 c -1.34383,-0.0933 -2.12925,-0.226 -6.72,-1.13508 -3.73083,-0.73879 -9.64864,-2.43506 -10.1121,-2.89852 -0.12901,-0.12902 -0.50052,-0.23457 -0.82558,-0.23457 -0.32505,0 -0.84105,-0.13414 -1.14667,-0.29808 -0.30561,-0.16395 -2.57165,-1.26896 -5.03565,-2.45558 -4.0998,-1.9744 -8.80557,-4.73888 -9.06667,-5.32634 -0.0587,-0.132 -0.29867,-0.24 -0.53333,-0.24 -0.23467,0 -0.47467,-0.10837 -0.53334,-0.24082 -0.0587,-0.13245 -1.46739,-1.32045 -3.13049,-2.64 l -3.02383,-2.39918 -10.25617,-0.19142 c -5.6409,-0.10527 -20.408178,-0.36547 -32.816174,-0.57822 -12.408001,-0.21275 -25.944001,-0.48661 -30.080001,-0.60859 l -7.520001,-0.22177 -0.08749,-5.70618 -0.08749,-5.70618 3.28749,0.19496 c 1.80812,0.10723 4.871491,0.33234 6.807491,0.50026 5.113738,0.44354 11.455584,0.93134 17.12,1.31683 2.728,0.18565 6.544001,0.4657 8.480001,0.62234 1.936,0.15664 4.888,0.36653 6.56,0.46642 l 3.039996,0.18162 1.65558,-2.33504 c 2.34707,-3.31033 3.39826,-4.54971 6.32514,-7.45747 2.6016,-2.58461 5.9111,-5.10651 7.796476,-5.941057 0.56254,-0.249007 1.0228,-0.561587 1.0228,-0.694623 0,-0.133037 0.264,-0.241885 0.58667,-0.241885 0.32267,0 0.68536,-0.09869 0.80598,-0.219308 0.37887,-0.378875 2.531272,-1.03805 4.527352,-1.386514 1.05601,-0.184349 2.33402,-0.417853 2.84004,-0.518897 0.62786,-0.125376 0.85051,-0.07123 0.70111,0.170501 -0.1204,0.19482 -0.57237,0.354218 -1.00437,0.354218 -0.432,0 -1.03551,0.12638 -1.34112,0.280844 -0.30561,0.154463 -1.78925,0.871034 -3.29697,1.592378 -4.571122,2.186973 -8.263228,5.739303 -12.086938,11.629313 -1.53014,2.35703 -2.61175,4.41829 -2.61175,4.97734 0,0.39389 11.001056,1.37532 29.920008,2.66923 2.464,0.16852 6.424,0.44678 8.8,0.61836 10.17103,0.73448 14.27532,0.96825 20.16,1.14827 l 6.24,0.19088 1.11276,-2.1933 c 3.55061,-6.99846 9.03982,-13.30323 15.20724,-17.46667 1.936,-1.306939 4.096,-2.636042 4.8,-2.953564 0.704,-0.317522 1.84705,-0.846361 2.5401,-1.175197 0.69306,-0.328836 1.51256,-0.597884 1.82112,-0.597884 0.30855,0 0.65,-0.144 0.75878,-0.32 0.10877,-0.176 0.44127,-0.316798 0.73888,-0.312884 0.4225,0.0056 0.36575,0.144291 -0.25888,0.632884 -0.44,0.344173 -0.90762,0.628971 -1.03914,0.632885 -0.13153,0.0039 -1.64353,0.940188 -3.36,2.08061 -4.29268,2.85205 -8.66305,7.18102 -11.53573,11.42647 -2.34618,3.46733 -5.26692,9.88525 -4.73877,10.41277 0.68543,0.6846 29.12949,0.0228 37.95364,-0.883 9.24289,-0.94882 16.59665,-1.92797 21.92,-2.91864 3.08693,-0.57446 3.83816,-0.66595 3.62535,-0.44151 -0.11806,0.12451 -0.76606,0.36736 -1.44,0.53967 -5.02273,1.2842 -5.74834,1.45569 -9.86535,2.33159 -2.112,0.44932 -4.704,0.95429 -5.76,1.12214 -1.056,0.16785 -2.784,0.46562 -3.84,0.66171 -1.056,0.19609 -2.63808,0.45525 -3.51574,0.57591 -2.24393,0.30851 -2.26773,0.96391 -0.11517,3.17062 2.33904,2.39788 4.47887,3.94731 7.66001,5.54653 3.03399,1.52526 3.51329,1.73025 5.0909,2.17736 0.616,0.17458 1.84,0.53665 2.72,0.8046 l 1.6,0.48717 -2.4,-0.15738 c -2.45176,-0.16078 -3.19809,-0.30323 -6.56,-1.2521 -4.26832,-1.20469 -9.2191,-4.13128 -12.63594,-7.46957 -2.42405,-2.36833 -2.13203,-2.32287 -9.76406,-1.51985 -4.55661,0.47943 -9.88255,0.88242 -19.36,1.46488 -2.904,0.17847 -12.66,0.41889 -21.68,0.53425 -9.02,0.11536 -16.4,0.3152 -16.4,0.44408 0,0.5223 6.52003,5.74881 7.17159,5.74881 0.11834,0 0.49906,0.26448 0.84604,0.58775 0.79611,0.74168 10.85045,5.81691 11.51837,5.81423 0.2728,-10e-4 0.6328,0.11609 0.8,0.26039 0.1672,0.14431 1.384,0.59371 2.704,0.99868 1.32,0.40496 2.76,0.85307 3.2,0.9958 3.72069,1.20694 10.11664,2.15658 16.64,2.47061 4.257,0.20493 4.4551,0.24027 2.4,0.4282 -2.27505,0.20805 -11.2923,0.25502 -13.92,0.0725 z m 65.92,-27.30817 c 0.264,-0.17061 0.768,-0.30229 1.12,-0.29261 l 0.64,0.0176 -0.64,0.27502 c -0.352,0.15125 -0.856,0.28293 -1.12,0.2926 -0.42667,0.0156 -0.42667,-0.0169 0,-0.2926 z M 179.818,12.835398 c 0.18595,-0.185952 0.52698,-0.275134 0.75785,-0.19818 0.23966,0.07989 0.0946,0.224941 -0.3381,0.338096 -0.53227,0.139192 -0.65721,0.09755 -0.41975,-0.139916 z"
       id="path1" />
  </g>
</svg>
