<svg width="1469" height="863" stroke-linejoin="round" stroke-linecap="round" version="1.1" xmlns="http://www.w3.org/2000/svg">

 <defs>

  <style>
     .export_svg_global_model_material {
          stroke-width : 0.3499999940395355;
          stroke : rgb(255,255,255);
          stroke-opacity : 1.0;
          fill : rgb(128,128,128);
          fill-opacity : 1.0;
     }

     .export_svg_global_curve_material {
          stroke-width : 1.0;
          stroke : rgb(0,0,0);
          stroke-opacity : 1.0;
          fill : rgb(0,0,0);
          fill-opacity : 0.0;
     }

     .export_svg_global_text_material {
          stroke-width : 1.0;
          stroke : rgb(255,255,255);
          stroke-opacity : 1.0;
          fill : rgb(255,255,255);
          fill-opacity : 0.0;
          font-size : 12.0px;
     }

     .bl_matrenamed_0 {
          stroke-width : 1.0;
          stroke : rgb(255,255,255);
          stroke-opacity : 1.0;
          fill : rgb(7,231,0);
          fill-opacity : 1.0;
          font-size : 12.0px;
     }

     .polygon_bl_matrenamed_0 {
          stroke-width : 1.0;
          stroke : rgb(255,255,255);
          stroke-opacity : 1.0;
          font-size : 12.0px;
     }

     .bl_matrenamed_1 {
          stroke-width : 1.0;
          stroke : rgb(0,0,0);
          stroke-opacity : 1.0;
          fill : rgb(0,0,0);
          fill-opacity : 1.0;
          font-size : 12.0px;
     }

     .polygon_bl_matrenamed_1 {
          stroke-width : 1.0;
          stroke : rgb(0,0,0);
          stroke-opacity : 1.0;
          font-size : 12.0px;
     }

     .bl_matrenamed_2 {
          stroke-width : 1.0;
          stroke : rgb(0,0,0);
          stroke-opacity : 1.0;
          fill : rgb(0,0,0);
          fill-opacity : 1.0;
          font-size : 12.0px;
     }

     .polygon_bl_matrenamed_2 {
          stroke-width : 1.0;
          stroke : rgb(0,0,0);
          stroke-opacity : 1.0;
          font-size : 12.0px;
     }

     .bl_matrenamed_3 {
          stroke-width : 1.0;
          stroke : rgb(0,0,0);
          stroke-opacity : 1.0;
          fill : rgb(0,0,0);
          fill-opacity : 1.0;
          font-size : 12.0px;
     }

     .polygon_bl_matrenamed_3 {
          stroke-width : 1.0;
          stroke : rgb(0,0,0);
          stroke-opacity : 1.0;
          font-size : 12.0px;
     }

     .bl_matrenamed_4 {
          stroke-width : 1.0;
          stroke : rgb(255,255,255);
          stroke-opacity : 1.0;
          fill : rgb(63,63,206);
          fill-opacity : 1.0;
          font-size : 12.0px;
     }

     .polygon_bl_matrenamed_4 {
          stroke-width : 1.0;
          stroke : rgb(255,255,255);
          stroke-opacity : 1.0;
          font-size : 12.0px;
     }

     .bl_matrenamed_5 {
          stroke-width : 1.0;
          stroke : rgb(0,0,0);
          stroke-opacity : 1.0;
          fill : rgb(0,0,0);
          fill-opacity : 1.0;
          font-size : 12.0px;
     }

     .polygon_bl_matrenamed_5 {
          stroke-width : 1.0;
          stroke : rgb(0,0,0);
          stroke-opacity : 1.0;
          font-size : 12.0px;
     }

     .bl_matrenamed_6 {
          stroke-width : 1.0;
          stroke : rgb(255,255,255);
          stroke-opacity : 1.0;
          fill : rgb(231,61,216);
          fill-opacity : 1.0;
          font-size : 12.0px;
     }

     .polygon_bl_matrenamed_6 {
          stroke-width : 1.0;
          stroke : rgb(255,255,255);
          stroke-opacity : 1.0;
          font-size : 12.0px;
     }

     .bl_matrenamed_7 {
          stroke-width : 1.0;
          stroke : rgb(0,0,0);
          stroke-opacity : 1.0;
          fill : rgb(0,0,0);
          fill-opacity : 1.0;
          font-size : 12.0px;
     }

     .polygon_bl_matrenamed_7 {
          stroke-width : 1.0;
          stroke : rgb(0,0,0);
          stroke-opacity : 1.0;
          font-size : 12.0px;
     }

     .bl_matrenamed_8 {
          stroke-width : 1.0;
          stroke : rgb(0,0,0);
          stroke-opacity : 1.0;
          fill : rgb(0,0,0);
          fill-opacity : 1.0;
          font-size : 12.0px;
     }

     .polygon_bl_matrenamed_8 {
          stroke-width : 1.0;
          stroke : rgb(0,0,0);
          stroke-opacity : 1.0;
          font-size : 12.0px;
     }

     .bl_matrenamed_9 {
          stroke-width : 1.0;
          stroke : rgb(255,255,255);
          stroke-opacity : 1.0;
          fill : rgb(231,83,94);
          fill-opacity : 1.0;
          font-size : 12.0px;
     }

     .polygon_bl_matrenamed_9 {
          stroke-width : 1.0;
          stroke : rgb(255,255,255);
          stroke-opacity : 1.0;
          font-size : 12.0px;
     }

     .bl_matrenamed_10 {
          stroke-width : 1.0;
          stroke : rgb(255,255,255);
          stroke-opacity : 1.0;
          fill : rgb(231,112,218);
          fill-opacity : 1.0;
          font-size : 12.0px;
     }

     .polygon_bl_matrenamed_10 {
          stroke-width : 1.0;
          stroke : rgb(255,255,255);
          stroke-opacity : 1.0;
          font-size : 12.0px;
     }

     .bl_matrenamed_11 {
          stroke-width : 1.0;
          stroke : rgb(255,255,255);
          stroke-opacity : 1.0;
          fill : rgb(231,220,17);
          fill-opacity : 1.0;
          font-size : 12.0px;
     }

     .polygon_bl_matrenamed_11 {
          stroke-width : 1.0;
          stroke : rgb(255,255,255);
          stroke-opacity : 1.0;
          font-size : 12.0px;
     }

     .bl_mat_Material {
          stroke-width : 1.0;
          stroke : rgb(252,252,252);
          stroke-opacity : 1.0;
          fill : rgb(204,0,0);
          fill-opacity : 1.0;
          font-size : 12.0px;
     }

     .polygon_bl_mat_Material {
          stroke-width : 1.0;
          stroke : rgb(252,252,252);
          stroke-opacity : 1.0;
          fill : rgb(204,0,0);
          fill-opacity : 1.0;
          font-size : 12.0px;
     }

     .bl_matrenamed_12 {
          stroke-width : 1.0;
          stroke : rgb(0,0,0);
          stroke-opacity : 1.0;
          fill : rgb(0,0,0);
          fill-opacity : 1.0;
          font-size : 12.0px;
     }

     .polygon_bl_matrenamed_12 {
          stroke-width : 1.0;
          stroke : rgb(0,0,0);
          stroke-opacity : 1.0;
          font-size : 12.0px;
     }

     .bl_matrenamed_13 {
          stroke-width : 1.0;
          stroke : rgb(255,255,255);
          stroke-opacity : 1.0;
          fill : rgb(116,118,231);
          fill-opacity : 1.0;
          font-size : 12.0px;
     }

     .polygon_bl_matrenamed_13 {
          stroke-width : 1.0;
          stroke : rgb(255,255,255);
          stroke-opacity : 1.0;
          font-size : 12.0px;
     }

     .bl_matrenamed_14 {
          stroke-width : 1.0;
          stroke : rgb(0,0,0);
          stroke-opacity : 1.0;
          fill : rgb(0,0,0);
          fill-opacity : 1.0;
          font-size : 12.0px;
     }

     .polygon_bl_matrenamed_14 {
          stroke-width : 1.0;
          stroke : rgb(0,0,0);
          stroke-opacity : 1.0;
          font-size : 12.0px;
     }

     .bl_matrenamed_15 {
          stroke-width : 1.0;
          stroke : rgb(0,0,0);
          stroke-opacity : 1.0;
          fill : rgb(0,0,0);
          fill-opacity : 1.0;
          font-size : 12.0px;
     }

     .polygon_bl_matrenamed_15 {
          stroke-width : 1.0;
          stroke : rgb(0,0,0);
          stroke-opacity : 1.0;
          font-size : 12.0px;
     }

     .bl_matrenamed_16 {
          stroke-width : 1.0;
          stroke : rgb(0,0,0);
          stroke-opacity : 1.0;
          fill : rgb(116,118,231);
          fill-opacity : 1.0;
          font-size : 12.0px;
     }

     .polygon_bl_matrenamed_16 {
          stroke-width : 1.0;
          stroke : rgb(0,0,0);
          stroke-opacity : 1.0;
          font-size : 12.0px;
     }

     .bl_matrenamed_17 {
          stroke-width : 1.0;
          stroke : rgb(0,0,0);
          stroke-opacity : 1.0;
          fill : rgb(0,0,0);
          fill-opacity : 1.0;
          font-size : 12.0px;
     }

     .polygon_bl_matrenamed_17 {
          stroke-width : 1.0;
          stroke : rgb(0,0,0);
          stroke-opacity : 1.0;
          font-size : 12.0px;
     }

  </style>
 </defs>



 <g id="scene">
   <polygon points="747.8,289.3 748.3,218.1 748.7,218.0 748.3,289.2 "  class="polygon_bl_mat_Material" />
   <polygon points="737.7,330.6 737.8,278.2 738.2,278.1 738.2,330.4 " fill="rgb(231,83,94)" class="polygon_bl_matrenamed_9" />
   <polygon points="748.3,289.2 1066.4,439.6 1065.9,439.8 747.8,289.3 "  class="polygon_bl_mat_Material" />
   <polygon points="748.3,289.2 748.7,218.0 1082.3,347.4 1066.4,439.6 "  class="polygon_bl_mat_Material" />
   <polygon points="1065.9,439.8 1081.8,347.6 748.3,218.1 747.8,289.3 "  class="polygon_bl_mat_Material" />
   <polygon points="1082.3,347.4 748.7,218.0 748.3,218.1 1081.8,347.6 "  class="polygon_bl_mat_Material" />
  <g class="bl_matrenamed_17" >
   <path d="M 827.7,280.3 C 829.4,281.0 831.0,281.7 832.7,282.4 C 836.4,284.0 838.1,281.4 838.4,278.7 C 838.7,275.7 837.5,273.0 835.3,271.5 C 835.3,271.4 835.3,271.4 835.3,271.4 C 837.0,271.1 837.8,269.9 838.0,267.6 C 838.3,264.8 837.2,261.4 834.0,260.1 C 832.5,259.5 831.1,258.9 829.7,258.4 C 829.0,265.7 828.3,273.0 827.7,280.3  M 831.5,262.1 C 832.2,262.3 832.8,262.6 833.5,262.8 C 835.5,263.6 836.0,265.3 835.8,267.0 C 835.6,269.3 834.4,270.1 832.3,269.2 C 831.9,269.0 831.4,268.9 830.9,268.7 C 831.1,266.5 831.3,264.3 831.5,262.1  M 830.7,271.5 C 831.5,271.8 832.4,272.2 833.2,272.5 C 835.5,273.5 836.4,275.3 836.2,277.3 C 836.0,279.0 835.2,280.5 832.7,279.5 C 831.8,279.1 830.9,278.7 830.0,278.4 C 830.3,276.1 830.5,273.8 830.7,271.5  M 847.6,286.0 C 847.1,286.3 846.7,286.4 846.5,286.3 C 846.2,286.2 846.1,286.0 846.2,285.4 C 846.4,282.9 846.7,280.4 846.9,277.9 C 847.2,274.6 845.8,272.4 843.7,271.6 C 842.3,271.0 841.1,271.2 840.2,272.2 C 840.1,273.3 840.0,274.3 839.9,275.4 C 841.1,274.1 842.2,273.8 843.3,274.3 C 844.5,274.8 845.1,275.7 844.9,277.6 C 844.8,277.8 844.8,278.1 844.8,278.4 C 844.2,278.4 843.6,278.5 843.0,278.5 C 841.3,278.7 839.4,278.9 839.1,281.7 C 839.0,283.6 839.8,285.7 841.2,286.3 C 842.1,286.7 843.1,286.6 844.0,285.9 C 844.1,287.0 844.5,287.7 845.4,288.1 C 846.0,288.3 846.4,288.2 847.4,287.7 C 847.5,287.2 847.5,286.6 847.6,286.0  M 844.2,284.2 C 843.6,284.7 843.0,284.9 842.4,284.7 C 841.6,284.3 841.1,283.2 841.2,282.0 C 841.3,280.3 842.9,280.1 844.6,279.9 C 844.5,281.4 844.4,282.8 844.2,284.2  M 858.0,278.4 C 857.1,277.4 856.3,276.7 855.2,276.2 C 852.1,275.0 849.8,277.3 849.3,282.1 C 848.9,286.4 850.7,290.3 853.7,291.6 C 854.8,292.0 856.1,292.2 856.9,292.0 C 857.0,291.1 857.1,290.1 857.2,289.1 C 856.1,289.4 855.2,289.3 854.3,289.0 C 852.3,288.1 851.1,285.7 851.4,282.7 C 851.7,279.7 853.2,278.2 855.0,279.0 C 855.9,279.3 856.6,280.0 857.7,281.6 C 857.8,280.5 857.9,279.5 858.0,278.4  M 869.8,282.5 C 869.0,282.1 868.2,281.8 867.4,281.5 C 865.5,283.3 863.7,285.1 861.9,286.9 C 863.4,290.1 864.9,293.4 866.4,296.6 C 867.3,297.0 868.2,297.4 869.2,297.8 C 867.6,294.5 866.1,291.2 864.6,288.0 C 866.3,286.1 868.1,284.3 869.8,282.5  M 863.4,271.8 C 862.7,271.5 862.1,271.2 861.4,271.0 C 860.6,278.5 859.8,286.0 859.0,293.5 C 859.7,293.8 860.4,294.1 861.1,294.4 C 861.8,286.9 862.6,279.4 863.4,271.8  M 880.3,286.7 C 878.8,286.1 877.4,285.5 875.9,284.9 C 873.0,283.8 871.0,285.0 870.7,288.2 C 870.5,289.3 870.6,290.3 870.9,291.3 C 871.2,292.2 871.8,293.1 872.5,293.9 C 872.5,293.9 872.5,293.9 872.5,293.9 C 871.4,293.9 870.7,294.4 870.6,295.4 C 870.5,296.0 870.8,296.8 871.4,297.7 C 869.5,297.6 868.6,298.5 868.3,300.7 C 868.0,303.3 869.8,306.0 872.7,307.2 C 875.8,308.6 877.9,307.6 878.2,304.6 C 878.4,302.8 877.8,300.8 875.6,299.2 C 873.5,297.7 872.5,296.7 872.6,295.9 C 872.8,294.1 875.5,296.4 877.2,294.9 C 877.8,294.4 878.5,293.1 878.6,291.9 C 878.7,290.6 878.5,289.7 877.8,288.2 C 878.6,288.5 879.3,288.8 880.0,289.1 C 880.1,288.3 880.2,287.5 880.3,286.7  M 876.7,290.8 C 876.5,292.4 875.6,293.2 874.4,292.7 C 873.1,292.2 872.4,290.7 872.5,289.1 C 872.7,287.6 873.8,286.8 875.0,287.3 C 876.1,287.7 876.9,289.3 876.7,290.8  M 876.2,304.0 C 876.0,305.4 874.8,305.7 873.0,304.9 C 871.1,304.1 870.1,302.9 870.3,301.4 C 870.5,300.1 871.5,299.6 873.0,300.2 C 874.2,300.7 876.4,302.1 876.2,304.0  M 882.1,287.5 C 881.5,292.5 881.0,297.5 880.4,302.5 C 881.1,302.8 881.8,303.1 882.5,303.4 C 882.8,300.8 883.1,298.2 883.4,295.6 C 883.7,293.0 885.1,291.4 886.6,292.0 C 887.1,292.2 887.9,293.2 888.5,294.3 C 889.0,293.6 889.4,292.9 889.9,292.2 C 889.2,290.6 888.4,289.7 887.5,289.3 C 886.5,288.9 885.3,289.6 883.9,291.8 C 883.9,291.8 883.9,291.8 883.9,291.8 C 884.0,290.7 884.1,289.5 884.3,288.3 C 883.6,288.1 882.8,287.8 882.1,287.5  M 896.9,293.1 C 893.5,291.8 890.6,294.2 890.1,298.5 C 889.5,303.2 891.5,307.6 894.9,309.0 C 898.5,310.5 901.4,308.3 902.0,303.4 C 902.5,298.9 900.4,294.6 896.9,293.1  M 896.5,295.9 C 898.7,296.8 900.1,299.6 899.7,302.5 C 899.3,305.8 897.6,307.3 895.2,306.3 C 893.1,305.4 891.9,302.7 892.3,299.4 C 892.7,296.5 894.4,295.0 896.5,295.9  M 913.0,316.3 C 913.6,311.1 914.3,306.0 915.0,300.8 C 914.2,300.5 913.4,300.2 912.7,299.9 C 912.2,303.6 911.7,307.3 911.3,310.9 C 910.3,312.0 909.3,312.4 908.3,312.0 C 906.7,311.3 906.1,309.8 906.4,307.6 C 906.8,304.3 907.2,301.1 907.6,297.8 C 906.8,297.5 906.1,297.2 905.3,296.9 C 904.9,300.1 904.5,303.3 904.1,306.5 C 903.6,310.3 905.0,313.2 907.3,314.2 C 908.4,314.7 909.8,314.3 910.9,313.4 C 910.9,314.0 910.8,314.7 910.7,315.3 C 911.4,315.6 912.2,316.0 913.0,316.3  M 920.5,303.0 C 919.7,302.7 918.9,302.4 918.2,302.1 C 917.5,307.3 916.8,312.5 916.1,317.6 C 916.9,317.9 917.7,318.3 918.4,318.6 C 918.9,314.9 919.4,311.2 919.9,307.5 C 921.2,306.3 922.1,306.0 923.1,306.4 C 924.5,307.0 925.2,308.8 924.9,311.1 C 924.5,314.4 924.1,317.6 923.6,320.8 C 924.4,321.1 925.2,321.4 926.0,321.8 C 926.4,318.6 926.8,315.4 927.3,312.1 C 927.9,307.8 926.3,305.1 924.1,304.2 C 922.8,303.6 921.4,304.0 920.3,305.1 C 920.3,305.1 920.2,305.1 920.2,305.1 C 920.3,304.4 920.4,303.7 920.5,303.0  M 943.0,303.4 C 942.2,303.1 941.4,302.8 940.6,302.5 C 940.2,305.3 939.8,308.2 939.4,311.0 C 938.5,310.2 937.7,309.7 936.9,309.4 C 933.4,308.0 930.5,310.2 929.8,314.8 C 929.2,319.8 930.9,323.9 934.5,325.4 C 936.2,326.1 937.9,326.8 939.6,327.5 C 940.7,319.5 941.9,311.5 943.0,303.4  M 937.6,323.9 C 936.7,323.5 935.9,323.2 935.1,322.9 C 932.4,321.7 931.8,319.1 932.2,316.2 C 932.7,312.9 934.5,311.4 936.8,312.3 C 937.6,312.7 938.2,313.1 939.0,313.8 C 938.5,317.2 938.0,320.5 937.6,323.9  M 960.6,310.4 C 958.5,308.7 957.0,308.8 955.7,309.8 C 954.5,310.7 953.7,311.9 953.2,315.1 C 953.2,315.5 953.1,315.9 953.1,316.3 C 952.5,316.0 951.9,315.8 951.3,315.6 C 951.2,316.5 951.0,317.5 950.9,318.4 C 951.5,318.7 952.1,318.9 952.6,319.1 C 952.0,323.5 951.4,327.9 950.7,332.2 C 951.5,332.6 952.3,332.9 953.2,333.3 C 953.8,328.9 954.5,324.5 955.1,320.1 C 955.9,320.5 956.6,320.8 957.4,321.1 C 957.5,320.1 957.7,319.2 957.8,318.2 C 957.1,317.9 956.3,317.6 955.5,317.3 C 955.6,316.8 955.7,316.3 955.8,315.7 C 956.1,313.3 957.0,312.0 959.0,312.8 C 959.5,313.0 959.7,313.2 960.1,313.6 C 960.3,312.5 960.4,311.5 960.6,310.4  M 967.6,336.3 C 967.0,336.6 966.4,336.7 966.2,336.6 C 965.8,336.5 965.7,336.2 965.8,335.6 C 966.2,332.8 966.7,330.1 967.1,327.3 C 967.7,323.6 965.9,321.1 963.3,320.1 C 961.4,319.3 959.9,319.5 958.7,320.6 C 958.6,321.7 958.4,322.9 958.2,324.0 C 959.7,322.7 961.2,322.5 962.6,323.0 C 964.1,323.6 964.8,324.8 964.5,326.8 C 964.4,327.1 964.4,327.4 964.3,327.7 C 963.5,327.7 962.8,327.7 962.0,327.7 C 959.8,327.8 957.4,327.9 956.9,331.0 C 956.6,333.1 957.5,335.4 959.4,336.2 C 960.5,336.7 961.8,336.7 963.0,336.0 C 963.1,337.3 963.6,338.0 964.7,338.5 C 965.5,338.8 966.0,338.7 967.3,338.2 C 967.4,337.6 967.5,337.0 967.6,336.3  M 963.4,334.1 C 962.6,334.6 961.7,334.8 961.0,334.5 C 959.9,334.1 959.3,332.8 959.5,331.5 C 959.8,329.6 961.8,329.5 964.1,329.4 C 963.8,331.0 963.6,332.5 963.4,334.1  M 972.1,324.0 C 971.3,329.4 970.4,334.8 969.6,340.2 C 970.5,340.6 971.3,340.9 972.1,341.3 C 972.6,338.5 973.0,335.6 973.5,332.8 C 973.9,330.0 975.7,328.4 977.4,329.1 C 978.0,329.4 979.0,330.4 979.6,331.7 C 980.2,331.0 980.8,330.2 981.4,329.5 C 980.5,327.7 979.7,326.7 978.6,326.3 C 977.4,325.8 975.9,326.5 974.2,328.8 C 974.2,328.8 974.1,328.8 974.1,328.8 C 974.3,327.6 974.5,326.3 974.7,325.1 C 973.9,324.7 973.0,324.4 972.1,324.0  " />
  </g>
   <polygon points="595.6,354.1 594.4,336.1 594.9,335.9 596.2,353.9 " fill="rgb(7,231,0)" class="polygon_bl_matrenamed_0" />
   <polygon points="738.2,330.4 877.9,404.3 877.4,404.4 737.7,330.6 " fill="rgb(231,83,94)" class="polygon_bl_matrenamed_9" />
   <polygon points="698.6,354.5 697.8,312.6 698.4,312.5 699.1,354.3 " fill="rgb(63,63,206)" class="polygon_bl_matrenamed_4" />
   <polygon points="738.2,330.4 738.2,278.1 882.2,345.1 877.9,404.3 " fill="rgb(231,83,94)" class="polygon_bl_matrenamed_9" />
   <polygon points="877.4,404.4 881.7,345.3 737.8,278.2 737.7,330.6 " fill="rgb(255,135,153)" class="polygon_bl_matrenamed_9" />
   <polygon points="635.5,355.7 633.7,320.3 634.3,320.2 636.0,355.6 " fill="rgb(116,118,231)" class="polygon_bl_matrenamed_16" />
   <polygon points="635.5,355.7 633.7,320.3 634.3,320.2 636.0,355.6 " fill="rgb(116,118,231)" class="polygon_bl_matrenamed_13" />
   <polygon points="882.2,345.1 738.2,278.1 737.8,278.2 881.7,345.3 " fill="rgb(255,115,130)" class="polygon_bl_matrenamed_9" />
   <polygon points="416.0,396.7 400.0,297.9 400.6,297.8 416.6,396.6 " fill="rgb(231,61,216)" class="polygon_bl_matrenamed_6" />
   <polygon points="699.1,354.3 781.6,402.6 781.1,402.8 698.6,354.5 " fill="rgb(63,63,206)" class="polygon_bl_matrenamed_4" />
   <polygon points="699.1,354.3 698.4,312.5 782.7,357.4 781.6,402.6 " fill="rgb(63,63,206)" class="polygon_bl_matrenamed_4" />
   <polygon points="781.1,402.8 782.2,357.5 697.8,312.6 698.6,354.5 " fill="rgb(98,98,255)" class="polygon_bl_matrenamed_4" />
  <g class="bl_matrenamed_1" >
   <path d="M 753.7,314.3 C 754.7,314.8 755.7,315.3 756.8,315.8 C 759.0,317.0 760.0,315.3 760.1,313.6 C 760.2,311.6 759.5,309.8 758.1,308.7 C 758.1,308.7 758.1,308.7 758.1,308.7 C 759.1,308.5 759.6,307.8 759.7,306.3 C 759.8,304.5 759.1,302.2 757.1,301.3 C 756.3,300.8 755.4,300.4 754.5,300.0 C 754.2,304.8 754.0,309.6 753.7,314.3  M 755.7,302.5 C 756.1,302.7 756.5,302.9 756.9,303.1 C 758.1,303.6 758.4,304.8 758.3,305.8 C 758.3,307.4 757.6,307.8 756.3,307.2 C 756.0,307.1 755.7,306.9 755.4,306.8 C 755.5,305.3 755.6,303.9 755.7,302.5  M 755.3,308.6 C 755.9,308.9 756.4,309.1 756.9,309.4 C 758.3,310.1 758.8,311.3 758.8,312.6 C 758.7,313.7 758.2,314.7 756.7,313.9 C 756.2,313.6 755.6,313.4 755.1,313.1 C 755.2,311.6 755.2,310.1 755.3,308.6  M 765.7,318.6 C 765.4,318.7 765.2,318.8 765.1,318.8 C 764.9,318.7 764.8,318.5 764.9,318.2 C 765.0,316.5 765.1,314.9 765.2,313.3 C 765.3,311.1 764.4,309.7 763.2,309.1 C 762.3,308.6 761.6,308.7 761.1,309.4 C 761.0,310.1 761.0,310.8 761.0,311.4 C 761.6,310.6 762.3,310.5 763.0,310.8 C 763.7,311.2 764.0,311.8 763.9,313.0 C 763.9,313.2 763.9,313.3 763.9,313.5 C 763.5,313.5 763.2,313.6 762.8,313.6 C 761.8,313.7 760.7,313.7 760.6,315.6 C 760.5,316.8 761.0,318.2 761.9,318.6 C 762.5,318.9 763.0,318.8 763.6,318.4 C 763.7,319.2 763.9,319.6 764.4,319.9 C 764.8,320.1 765.1,320.0 765.6,319.7 C 765.7,319.3 765.7,318.9 765.7,318.6  M 763.7,317.3 C 763.3,317.6 763.0,317.8 762.6,317.6 C 762.1,317.3 761.8,316.6 761.8,315.8 C 761.9,314.7 762.8,314.6 763.8,314.5 C 763.8,315.5 763.7,316.4 763.7,317.3  M 771.7,313.9 C 771.2,313.2 770.7,312.8 770.0,312.4 C 768.2,311.5 766.9,312.9 766.7,316.1 C 766.5,318.9 767.6,321.5 769.4,322.4 C 770.1,322.7 770.9,322.8 771.3,322.7 C 771.3,322.1 771.4,321.5 771.4,320.9 C 770.8,321.0 770.3,320.9 769.8,320.7 C 768.5,320.1 767.8,318.5 767.9,316.5 C 768.0,314.6 768.9,313.7 770.0,314.2 C 770.5,314.5 771.0,314.9 771.6,316.0 C 771.7,315.3 771.7,314.6 771.7,313.9  M 778.7,316.9 C 778.3,316.6 777.8,316.4 777.3,316.2 C 776.2,317.3 775.2,318.4 774.2,319.5 C 775.1,321.6 776.1,323.8 777.0,325.9 C 777.5,326.2 778.1,326.5 778.6,326.8 C 777.7,324.6 776.7,322.4 775.8,320.3 C 776.8,319.1 777.7,318.0 778.7,316.9  M 774.8,309.8 C 774.4,309.6 774.0,309.4 773.6,309.2 C 773.2,314.1 772.9,318.9 772.6,323.7 C 773.0,323.9 773.4,324.2 773.8,324.4 C 774.1,319.5 774.5,314.7 774.8,309.8  M 784.9,319.9 C 784.0,319.5 783.2,319.0 782.3,318.6 C 780.6,317.8 779.5,318.5 779.3,320.6 C 779.3,321.3 779.4,322.0 779.5,322.6 C 779.7,323.2 780.1,323.8 780.5,324.3 C 780.5,324.3 780.5,324.3 780.5,324.3 C 779.9,324.3 779.5,324.6 779.4,325.2 C 779.4,325.7 779.6,326.1 780.0,326.8 C 778.8,326.6 778.3,327.2 778.2,328.6 C 778.1,330.3 779.2,332.1 780.9,333.0 C 782.7,333.9 783.9,333.3 784.1,331.4 C 784.1,330.2 783.7,328.9 782.4,327.8 C 781.2,326.8 780.6,326.1 780.6,325.6 C 780.7,324.5 782.3,326.0 783.3,325.1 C 783.6,324.7 784.0,324.0 784.0,323.2 C 784.1,322.4 783.9,321.7 783.5,320.7 C 783.9,320.9 784.4,321.2 784.8,321.4 C 784.8,320.9 784.9,320.4 784.9,319.9  M 782.9,322.4 C 782.8,323.4 782.3,323.9 781.6,323.6 C 780.8,323.2 780.4,322.3 780.4,321.2 C 780.5,320.3 781.1,319.7 781.8,320.1 C 782.5,320.4 783.0,321.5 782.9,322.4  M 782.8,330.9 C 782.8,331.8 782.1,332.0 781.0,331.5 C 779.9,330.9 779.3,330.1 779.4,329.1 C 779.4,328.3 780.1,328.0 780.9,328.4 C 781.7,328.8 782.9,329.7 782.8,330.9  M 786.0,320.4 C 785.7,323.6 785.5,326.9 785.3,330.1 C 785.7,330.3 786.1,330.5 786.5,330.7 C 786.6,329.0 786.8,327.3 786.9,325.6 C 787.0,324.0 787.8,323.0 788.7,323.4 C 789.0,323.6 789.4,324.2 789.8,324.9 C 790.0,324.5 790.3,324.1 790.6,323.6 C 790.1,322.6 789.6,322.0 789.1,321.7 C 788.5,321.4 787.9,321.9 787.1,323.3 C 787.1,323.3 787.1,323.2 787.1,323.2 C 787.1,322.5 787.2,321.8 787.2,321.0 C 786.8,320.8 786.4,320.6 786.0,320.4  M 794.6,324.4 C 792.6,323.4 791.0,324.9 790.8,327.7 C 790.6,330.7 791.8,333.5 793.8,334.5 C 795.9,335.6 797.4,334.2 797.7,331.1 C 797.9,328.2 796.6,325.4 794.6,324.4  M 794.4,326.1 C 795.7,326.8 796.5,328.6 796.4,330.5 C 796.2,332.6 795.3,333.5 793.9,332.8 C 792.7,332.2 791.9,330.4 792.1,328.3 C 792.2,326.5 793.2,325.5 794.4,326.1  M 804.2,339.5 C 804.5,336.3 804.7,333.0 805.0,329.7 C 804.6,329.5 804.1,329.3 803.7,329.0 C 803.5,331.4 803.3,333.7 803.1,336.1 C 802.6,336.8 802.0,337.0 801.4,336.7 C 800.5,336.2 800.2,335.2 800.3,333.8 C 800.4,331.8 800.6,329.7 800.8,327.6 C 800.3,327.4 799.9,327.2 799.5,327.0 C 799.3,329.0 799.1,331.0 799.0,333.1 C 798.8,335.6 799.6,337.4 800.9,338.1 C 801.6,338.4 802.4,338.2 803.0,337.6 C 803.0,338.0 802.9,338.5 802.9,338.9 C 803.3,339.1 803.8,339.3 804.2,339.5  M 808.2,331.2 C 807.7,331.0 807.3,330.8 806.8,330.6 C 806.6,333.9 806.3,337.2 806.0,340.4 C 806.5,340.7 806.9,340.9 807.3,341.1 C 807.5,338.7 807.7,336.4 807.9,334.0 C 808.6,333.3 809.1,333.1 809.7,333.4 C 810.5,333.8 810.9,335.0 810.8,336.5 C 810.6,338.5 810.5,340.5 810.3,342.6 C 810.7,342.8 811.2,343.0 811.6,343.2 C 811.8,341.2 812.0,339.2 812.1,337.1 C 812.4,334.4 811.5,332.6 810.2,332.0 C 809.4,331.6 808.7,331.8 808.1,332.5 C 808.1,332.5 808.1,332.5 808.0,332.5 C 808.1,332.1 808.1,331.7 808.2,331.2  M 820.7,331.9 C 820.2,331.7 819.8,331.5 819.3,331.2 C 819.2,333.0 819.0,334.9 818.8,336.7 C 818.3,336.1 817.9,335.8 817.5,335.6 C 815.5,334.6 813.9,336.0 813.6,338.8 C 813.4,342.0 814.5,344.6 816.5,345.7 C 817.4,346.1 818.4,346.6 819.3,347.1 C 819.8,342.0 820.2,337.0 820.7,331.9  M 818.1,344.8 C 817.7,344.5 817.2,344.3 816.8,344.1 C 815.2,343.3 814.8,341.7 815.0,339.8 C 815.2,337.7 816.2,336.8 817.5,337.4 C 817.9,337.6 818.3,337.9 818.7,338.4 C 818.5,340.5 818.3,342.6 818.1,344.8  M 831.5,343.1 C 830.8,342.4 830.3,341.8 829.5,341.4 C 827.4,340.4 825.9,341.9 825.6,345.2 C 825.3,348.1 826.5,350.9 828.6,351.9 C 829.3,352.3 830.3,352.5 830.8,352.4 C 830.8,351.7 830.9,351.1 830.9,350.4 C 830.2,350.5 829.6,350.5 829.0,350.2 C 827.6,349.5 826.8,347.8 827.0,345.7 C 827.2,343.6 828.2,342.7 829.4,343.3 C 830.0,343.6 830.5,344.1 831.3,345.3 C 831.3,344.5 831.4,343.8 831.5,343.1  M 835.1,338.9 C 834.7,338.6 834.2,338.4 833.7,338.2 C 833.2,343.3 832.8,348.5 832.3,353.5 C 832.7,353.8 833.2,354.0 833.7,354.2 C 834.2,349.1 834.6,344.0 835.1,338.9  M 840.0,346.6 C 837.9,345.5 836.0,347.0 835.8,349.9 C 835.5,353.0 836.8,356.0 839.0,357.1 C 841.3,358.2 843.1,356.9 843.4,353.7 C 843.7,350.6 842.3,347.7 840.0,346.6  M 839.8,348.4 C 841.2,349.1 842.1,351.0 841.9,353.0 C 841.7,355.2 840.6,356.0 839.1,355.3 C 837.8,354.6 837.0,352.7 837.2,350.6 C 837.4,348.7 838.5,347.7 839.8,348.4  M 849.6,352.1 C 848.9,351.2 848.3,350.6 847.6,350.2 C 846.1,349.5 845.1,350.1 844.9,351.9 C 844.6,354.6 847.9,357.0 847.8,358.4 C 847.7,359.2 847.2,359.3 846.6,359.1 C 846.0,358.8 845.2,357.9 844.4,356.6 C 844.3,357.3 844.2,358.0 844.2,358.7 C 845.0,359.9 845.7,360.5 846.6,360.9 C 848.0,361.6 849.1,360.9 849.3,359.1 C 849.4,358.1 849.0,357.1 847.9,355.4 C 846.8,353.8 846.3,353.0 846.4,352.5 C 846.4,352.0 846.9,351.8 847.4,352.0 C 848.0,352.3 848.7,353.0 849.4,354.2 C 849.5,353.5 849.6,352.8 849.6,352.1  M 857.1,362.8 C 856.2,363.2 855.3,363.2 854.4,362.8 C 853.0,362.1 852.3,360.6 852.3,358.5 C 854.0,359.3 855.7,360.2 857.5,361.0 C 857.9,357.2 856.8,354.7 854.8,353.8 C 852.8,352.8 851.2,354.2 850.9,357.3 C 850.6,360.1 851.6,363.4 853.8,364.5 C 855.1,365.2 855.9,365.2 856.9,364.8 C 857.0,364.1 857.1,363.5 857.1,362.8  M 852.4,357.1 C 852.8,355.6 853.6,355.0 854.7,355.6 C 855.7,356.1 856.3,357.4 856.1,359.0 C 854.9,358.4 853.7,357.7 852.4,357.1  " />
  </g>
   <polygon points="523.1,389.1 516.9,331.3 517.5,331.1 523.7,388.9 " fill="rgb(231,112,218)" class="polygon_bl_matrenamed_10" />
   <polygon points="782.7,357.4 698.4,312.5 697.8,312.6 782.2,357.5 " fill="rgb(88,88,255)" class="polygon_bl_matrenamed_4" />
   <polygon points="636.0,355.6 749.9,428.1 749.3,428.3 635.5,355.7 " fill="rgb(116,118,231)" class="polygon_bl_matrenamed_16" />
   <polygon points="636.0,355.6 749.9,428.1 749.3,428.3 635.5,355.7 " fill="rgb(116,118,231)" class="polygon_bl_matrenamed_13" />
   <polygon points="636.0,355.6 634.3,320.2 750.2,388.5 749.9,428.1 " fill="rgb(116,118,231)" class="polygon_bl_matrenamed_16" />
   <polygon points="636.0,355.6 634.3,320.2 750.2,388.5 749.9,428.1 " fill="rgb(116,118,231)" class="polygon_bl_matrenamed_13" />
   <polygon points="749.3,428.3 749.6,388.7 633.7,320.3 635.5,355.7 " fill="rgb(177,180,255)" class="polygon_bl_matrenamed_16" />
   <polygon points="749.3,428.3 749.6,388.7 633.7,320.3 635.5,355.7 " fill="rgb(177,180,255)" class="polygon_bl_matrenamed_13" />
   <polygon points="596.2,353.9 748.8,456.4 748.2,456.6 595.6,354.1 " fill="rgb(7,231,0)" class="polygon_bl_matrenamed_0" />
   <polygon points="596.2,353.9 594.9,335.9 749.0,435.5 748.8,456.4 " fill="rgb(7,231,0)" class="polygon_bl_matrenamed_0" />
   <polygon points="748.2,456.6 748.4,435.7 594.4,336.1 595.6,354.1 " fill="rgb(11,255,0)" class="polygon_bl_matrenamed_0" />
   <polygon points="750.2,388.5 634.3,320.2 633.7,320.3 749.6,388.7 " fill="rgb(166,169,255)" class="polygon_bl_matrenamed_16" />
   <polygon points="750.2,388.5 634.3,320.2 633.7,320.3 749.6,388.7 " fill="rgb(166,169,255)" class="polygon_bl_matrenamed_13" />
  <g class="bl_matrenamed_5" >
   <path d="M 715.6,332.5 C 715.2,332.3 714.8,332.1 714.4,331.9 C 713.4,333.4 712.3,334.8 711.2,336.3 C 710.3,333.8 709.4,331.2 708.5,328.6 C 708.1,328.4 707.7,328.2 707.3,328.0 C 707.1,332.9 706.9,337.8 706.8,342.7 C 707.2,342.9 707.6,343.2 708.0,343.4 C 708.2,339.6 708.3,335.8 708.4,331.9 C 708.5,331.9 708.5,331.9 708.5,332.0 C 709.3,334.4 710.2,336.8 711.0,339.2 C 711.1,339.2 711.1,339.3 711.2,339.3 C 712.2,337.9 713.2,336.5 714.2,335.1 C 714.2,335.1 714.2,335.1 714.2,335.1 C 714.1,339.0 713.9,342.8 713.8,346.6 C 714.2,346.9 714.6,347.1 715.0,347.4 C 715.2,342.4 715.4,337.5 715.6,332.5  M 718.4,339.3 C 718.0,339.1 717.6,338.8 717.3,338.6 C 717.1,341.9 717.0,345.1 716.8,348.4 C 717.2,348.6 717.6,348.8 718.0,349.1 C 718.2,345.8 718.3,342.5 718.4,339.3  M 718.7,336.4 C 718.7,335.7 718.4,335.0 718.0,334.8 C 717.6,334.6 717.3,334.9 717.3,335.6 C 717.2,336.2 717.5,336.9 717.9,337.1 C 718.3,337.3 718.7,337.0 718.7,336.4  M 725.6,338.0 C 725.2,337.7 724.8,337.5 724.4,337.3 C 724.3,339.1 724.2,340.9 724.2,342.6 C 723.7,342.1 723.3,341.8 722.9,341.5 C 721.1,340.6 719.8,341.9 719.7,344.8 C 719.6,347.9 720.6,350.5 722.4,351.5 C 723.2,352.0 724.1,352.5 724.9,353.0 C 725.2,348.0 725.4,343.0 725.6,338.0  M 723.8,350.6 C 723.4,350.4 723.0,350.2 722.6,350.0 C 721.2,349.2 720.8,347.6 720.9,345.7 C 721.0,343.7 721.8,342.7 723.0,343.4 C 723.4,343.6 723.7,343.9 724.1,344.4 C 724.0,346.5 723.9,348.6 723.8,350.6  M 731.9,346.7 C 731.1,346.3 730.2,345.8 729.4,345.3 C 727.7,344.4 726.7,345.1 726.6,347.3 C 726.5,348.0 726.6,348.7 726.8,349.3 C 727.0,349.9 727.3,350.6 727.8,351.1 C 727.8,351.1 727.8,351.1 727.8,351.2 C 727.2,351.0 726.8,351.4 726.7,352.0 C 726.7,352.5 726.9,353.0 727.3,353.6 C 726.2,353.4 725.7,354.0 725.6,355.5 C 725.6,357.2 726.7,359.1 728.3,360.0 C 730.1,361.1 731.2,360.5 731.3,358.5 C 731.4,357.3 731.0,355.9 729.7,354.8 C 728.5,353.7 727.9,353.0 727.9,352.5 C 727.9,351.3 729.6,352.9 730.5,352.0 C 730.8,351.7 731.1,350.9 731.1,350.1 C 731.2,349.2 731.0,348.6 730.6,347.6 C 731.0,347.8 731.4,348.0 731.9,348.3 C 731.9,347.7 731.9,347.2 731.9,346.7  M 730.1,349.2 C 730.0,350.3 729.5,350.8 728.8,350.4 C 728.1,350.0 727.6,349.0 727.6,347.9 C 727.7,347.0 728.3,346.4 728.9,346.8 C 729.6,347.2 730.1,348.3 730.1,349.2  M 730.2,358.0 C 730.1,358.9 729.5,359.1 728.4,358.5 C 727.3,357.9 726.7,357.0 726.8,356.0 C 726.8,355.1 727.4,354.8 728.2,355.3 C 729.0,355.7 730.2,356.8 730.2,358.0  M 733.0,347.3 C 732.8,350.6 732.6,353.9 732.5,357.2 C 732.9,357.4 733.3,357.7 733.7,357.9 C 733.8,356.2 733.9,354.5 734.0,352.7 C 734.1,351.0 734.8,350.0 735.6,350.5 C 735.9,350.7 736.4,351.3 736.7,352.1 C 737.0,351.7 737.2,351.2 737.5,350.8 C 737.0,349.7 736.5,349.1 736.0,348.8 C 735.5,348.5 734.8,348.9 734.1,350.3 C 734.1,350.3 734.1,350.3 734.1,350.3 C 734.1,349.5 734.2,348.7 734.2,348.0 C 733.8,347.7 733.4,347.5 733.0,347.3  M 741.4,351.7 C 739.5,350.7 737.9,352.1 737.8,355.0 C 737.6,358.0 738.9,361.0 740.8,362.1 C 742.8,363.3 744.3,361.9 744.5,358.7 C 744.7,355.8 743.3,352.8 741.4,351.7  M 741.2,353.5 C 742.5,354.2 743.3,356.1 743.2,358.0 C 743.1,360.2 742.2,361.1 740.9,360.3 C 739.7,359.7 738.9,357.8 739.0,355.7 C 739.1,353.8 740.1,352.8 741.2,353.5  M 751.0,367.7 C 751.2,364.3 751.4,360.9 751.6,357.6 C 751.1,357.3 750.7,357.1 750.3,356.8 C 750.1,359.3 750.0,361.7 749.9,364.1 C 749.4,364.8 748.8,364.9 748.3,364.6 C 747.4,364.1 747.0,363.1 747.1,361.7 C 747.2,359.5 747.3,357.4 747.4,355.3 C 747.0,355.0 746.6,354.8 746.2,354.6 C 746.0,356.7 745.9,358.7 745.8,360.8 C 745.7,363.4 746.5,365.3 747.8,366.1 C 748.4,366.4 749.2,366.3 749.8,365.7 C 749.7,366.1 749.7,366.5 749.7,366.9 C 750.1,367.2 750.6,367.4 751.0,367.7  M 754.6,359.3 C 754.2,359.0 753.8,358.8 753.4,358.5 C 753.2,361.9 753.0,365.3 752.8,368.7 C 753.2,368.9 753.6,369.1 754.0,369.4 C 754.2,367.0 754.3,364.6 754.5,362.1 C 755.2,361.4 755.6,361.3 756.2,361.6 C 757.0,362.0 757.4,363.3 757.3,364.7 C 757.2,366.8 757.1,368.9 757.0,371.0 C 757.4,371.3 757.8,371.5 758.3,371.8 C 758.4,369.7 758.5,367.6 758.6,365.5 C 758.8,362.7 757.9,360.8 756.6,360.1 C 755.9,359.7 755.2,359.9 754.6,360.6 C 754.6,360.6 754.6,360.6 754.6,360.6 C 754.6,360.1 754.6,359.7 754.6,359.3  M 766.8,360.4 C 766.4,360.2 765.9,359.9 765.5,359.7 C 765.4,361.6 765.2,363.4 765.1,365.3 C 764.6,364.7 764.2,364.3 763.8,364.1 C 761.8,363.0 760.3,364.4 760.1,367.3 C 759.9,370.6 761.0,373.3 763.0,374.4 C 763.9,375.0 764.9,375.5 765.8,376.0 C 766.1,370.8 766.5,365.7 766.8,360.4  M 764.6,373.6 C 764.1,373.3 763.7,373.1 763.3,372.8 C 761.7,372.0 761.3,370.3 761.4,368.4 C 761.6,366.2 762.5,365.3 763.8,366.0 C 764.2,366.2 764.6,366.5 765.0,367.1 C 764.9,369.2 764.7,371.4 764.6,373.6  " />
  </g>
   <polygon points="877.9,404.3 882.2,345.1 881.7,345.3 877.4,404.4 " fill="rgb(255,136,154)" class="polygon_bl_matrenamed_9" />
   <polygon points="749.0,435.5 594.9,335.9 594.4,336.1 748.4,435.7 " fill="rgb(10,255,0)" class="polygon_bl_matrenamed_0" />
   <polygon points="781.6,402.6 782.7,357.4 782.2,357.5 781.1,402.8 " fill="rgb(107,107,255)" class="polygon_bl_matrenamed_4" />
   <polygon points="523.7,388.9 643.8,485.9 643.1,486.1 523.1,389.1 " fill="rgb(231,112,218)" class="polygon_bl_matrenamed_10" />
  <g class="bl_matrenamed_8" >
   <path d="M 664.0,347.9 C 663.7,347.7 663.3,347.5 663.0,347.3 C 662.2,348.5 661.4,349.8 660.6,351.0 C 659.8,348.8 659.1,346.7 658.3,344.5 C 658.0,344.3 657.7,344.1 657.4,343.9 C 657.3,348.0 657.3,352.2 657.2,356.3 C 657.5,356.5 657.9,356.7 658.2,356.9 C 658.3,353.7 658.3,350.5 658.4,347.3 C 658.4,347.3 658.4,347.3 658.4,347.3 C 659.1,349.3 659.8,351.4 660.5,353.4 C 660.5,353.4 660.6,353.5 660.6,353.5 C 661.4,352.3 662.1,351.2 662.9,350.0 C 662.9,350.0 662.9,350.0 662.9,350.0 C 662.8,353.3 662.8,356.5 662.7,359.7 C 663.1,359.9 663.4,360.1 663.8,360.3 C 663.8,356.2 663.9,352.0 664.0,347.9  M 666.3,353.6 C 665.9,353.4 665.6,353.2 665.3,353.0 C 665.3,355.8 665.2,358.5 665.2,361.2 C 665.5,361.4 665.8,361.6 666.1,361.8 C 666.2,359.1 666.2,356.3 666.3,353.6  M 666.4,351.2 C 666.4,350.6 666.2,350.0 665.9,349.8 C 665.6,349.7 665.3,350.0 665.3,350.5 C 665.3,351.0 665.5,351.6 665.8,351.8 C 666.1,352.0 666.4,351.7 666.4,351.2  M 671.8,352.6 C 671.5,352.4 671.2,352.2 670.8,352.0 C 670.8,353.5 670.8,355.0 670.8,356.5 C 670.4,356.0 670.1,355.8 669.8,355.6 C 668.4,354.7 667.4,355.8 667.3,358.2 C 667.3,360.8 668.1,363.0 669.5,363.9 C 670.2,364.3 670.9,364.7 671.5,365.1 C 671.6,361.0 671.7,356.8 671.8,352.6  M 670.6,363.2 C 670.3,363.0 670.0,362.8 669.7,362.6 C 668.6,361.9 668.2,360.6 668.3,359.0 C 668.3,357.3 668.9,356.5 669.9,357.1 C 670.2,357.3 670.4,357.5 670.7,357.9 C 670.7,359.7 670.7,361.4 670.6,363.2  M 676.8,360.0 C 676.2,359.6 675.5,359.2 674.9,358.8 C 673.6,358.0 672.7,358.6 672.7,360.4 C 672.7,361.0 672.8,361.6 672.9,362.1 C 673.1,362.7 673.4,363.2 673.7,363.6 C 673.7,363.6 673.7,363.7 673.7,363.7 C 673.2,363.6 672.9,363.8 672.9,364.4 C 672.9,364.7 673.1,365.2 673.4,365.7 C 672.5,365.6 672.1,366.0 672.1,367.2 C 672.1,368.7 673.0,370.3 674.3,371.1 C 675.7,372.0 676.6,371.5 676.6,369.9 C 676.6,368.8 676.3,367.7 675.3,366.7 C 674.3,365.8 673.8,365.2 673.8,364.8 C 673.8,363.8 675.1,365.2 675.8,364.4 C 676.0,364.2 676.3,363.5 676.3,362.8 C 676.3,362.1 676.2,361.6 675.8,360.7 C 676.2,360.9 676.5,361.1 676.8,361.3 C 676.8,360.9 676.8,360.5 676.8,360.0  M 675.4,362.1 C 675.4,363.0 675.0,363.4 674.5,363.1 C 673.9,362.7 673.5,361.9 673.6,361.0 C 673.6,360.2 674.0,359.7 674.5,360.1 C 675.0,360.4 675.5,361.3 675.4,362.1  M 675.7,369.4 C 675.7,370.2 675.2,370.3 674.3,369.8 C 673.5,369.3 673.0,368.5 673.0,367.7 C 673.0,367.0 673.5,366.8 674.1,367.2 C 674.7,367.5 675.7,368.4 675.7,369.4  M 677.7,360.5 C 677.6,363.3 677.5,366.1 677.5,368.8 C 677.8,369.0 678.1,369.2 678.4,369.4 C 678.5,368.0 678.5,366.5 678.5,365.1 C 678.6,363.7 679.1,362.8 679.8,363.2 C 680.0,363.4 680.4,364.0 680.6,364.6 C 680.8,364.2 681.0,363.9 681.2,363.5 C 680.8,362.6 680.4,362.1 680.1,361.8 C 679.6,361.5 679.1,361.9 678.6,363.0 C 678.6,363.0 678.6,363.0 678.6,363.0 C 678.6,362.4 678.6,361.8 678.6,361.1 C 678.3,360.9 678.0,360.7 677.7,360.5  M 684.2,364.3 C 682.7,363.4 681.6,364.6 681.5,367.0 C 681.4,369.6 682.5,372.1 684.0,373.0 C 685.5,374.0 686.7,372.9 686.8,370.2 C 686.8,367.8 685.8,365.3 684.2,364.3  M 684.1,365.8 C 685.1,366.4 685.8,368.0 685.8,369.6 C 685.7,371.4 685.0,372.2 684.0,371.5 C 683.1,370.9 682.4,369.4 682.5,367.6 C 682.5,366.0 683.2,365.3 684.1,365.8  M 691.9,377.8 C 692.0,375.0 692.1,372.2 692.1,369.4 C 691.8,369.1 691.5,368.9 691.1,368.7 C 691.1,370.8 691.0,372.8 691.0,374.8 C 690.6,375.3 690.2,375.5 689.7,375.2 C 689.1,374.8 688.7,373.9 688.8,372.7 C 688.8,370.9 688.9,369.2 688.9,367.4 C 688.6,367.2 688.3,367.0 687.9,366.8 C 687.9,368.5 687.8,370.3 687.8,372.0 C 687.7,374.1 688.4,375.8 689.4,376.4 C 689.9,376.7 690.5,376.6 690.9,376.1 C 690.9,376.4 690.9,376.8 690.9,377.1 C 691.2,377.3 691.6,377.5 691.9,377.8  M 694.5,370.8 C 694.2,370.6 693.9,370.4 693.5,370.2 C 693.4,373.0 693.4,375.8 693.3,378.6 C 693.6,378.8 693.9,379.0 694.3,379.2 C 694.3,377.2 694.4,375.2 694.5,373.2 C 695.0,372.6 695.3,372.5 695.8,372.7 C 696.4,373.1 696.7,374.2 696.7,375.4 C 696.6,377.2 696.6,378.9 696.5,380.6 C 696.9,380.8 697.2,381.0 697.5,381.3 C 697.6,379.5 697.6,377.8 697.7,376.0 C 697.8,373.7 697.0,372.2 696.1,371.6 C 695.5,371.2 694.9,371.4 694.5,371.9 C 694.5,371.9 694.5,371.9 694.5,371.9 C 694.5,371.6 694.5,371.2 694.5,370.8  M 703.8,371.9 C 703.5,371.7 703.2,371.5 702.8,371.3 C 702.8,372.9 702.7,374.4 702.7,375.9 C 702.2,375.4 701.9,375.1 701.6,374.9 C 700.1,374.0 699.0,375.1 698.9,377.6 C 698.8,380.3 699.7,382.6 701.2,383.5 C 701.9,384.0 702.7,384.4 703.4,384.9 C 703.5,380.6 703.7,376.3 703.8,371.9  M 702.4,382.8 C 702.1,382.6 701.7,382.4 701.4,382.2 C 700.2,381.5 699.9,380.0 699.9,378.5 C 700.0,376.7 700.7,375.9 701.7,376.5 C 702.0,376.7 702.3,377.0 702.6,377.4 C 702.5,379.2 702.5,381.0 702.4,382.8  M 712.2,382.0 C 711.7,381.3 711.3,380.8 710.7,380.5 C 709.1,379.5 708.0,380.7 707.9,383.5 C 707.8,386.0 708.8,388.4 710.4,389.4 C 711.0,389.7 711.6,389.9 712.0,389.9 C 712.0,389.3 712.0,388.8 712.1,388.2 C 711.5,388.3 711.1,388.2 710.6,387.9 C 709.6,387.2 708.9,385.8 709.0,384.0 C 709.0,382.3 709.7,381.5 710.7,382.1 C 711.1,382.4 711.5,382.8 712.1,383.8 C 712.1,383.2 712.2,382.6 712.2,382.0  M 714.7,378.5 C 714.4,378.3 714.0,378.1 713.7,377.9 C 713.5,382.2 713.3,386.6 713.2,390.9 C 713.5,391.2 713.9,391.4 714.2,391.6 C 714.4,387.2 714.6,382.9 714.7,378.5  M 718.6,385.3 C 717.0,384.3 715.7,385.5 715.6,388.0 C 715.5,390.6 716.6,393.2 718.2,394.2 C 719.9,395.3 721.2,394.2 721.3,391.5 C 721.4,388.9 720.3,386.3 718.6,385.3  M 718.5,386.8 C 719.6,387.5 720.3,389.1 720.2,390.8 C 720.1,392.7 719.4,393.4 718.3,392.7 C 717.2,392.1 716.6,390.4 716.7,388.6 C 716.7,387.0 717.5,386.2 718.5,386.8  M 725.9,390.4 C 725.3,389.6 724.8,389.1 724.3,388.7 C 723.2,388.1 722.4,388.5 722.4,390.0 C 722.3,392.3 724.8,394.5 724.7,395.7 C 724.7,396.4 724.3,396.5 723.9,396.2 C 723.5,396.0 722.8,395.2 722.2,394.0 C 722.1,394.6 722.1,395.2 722.1,395.8 C 722.8,396.8 723.3,397.4 723.9,397.8 C 725.0,398.4 725.8,397.9 725.8,396.4 C 725.9,395.5 725.6,394.7 724.7,393.2 C 723.8,391.7 723.5,391.0 723.5,390.6 C 723.5,390.2 723.8,390.0 724.2,390.3 C 724.6,390.5 725.2,391.1 725.8,392.1 C 725.8,391.6 725.8,391.0 725.9,390.4  M 731.7,399.8 C 731.0,400.1 730.4,400.1 729.7,399.7 C 728.7,399.0 728.1,397.8 728.0,395.9 C 729.3,396.7 730.6,397.5 731.9,398.3 C 732.0,395.1 731.2,392.9 729.7,392.0 C 728.2,391.1 727.1,392.3 726.9,394.9 C 726.8,397.3 727.7,400.1 729.4,401.2 C 730.3,401.7 730.9,401.8 731.6,401.5 C 731.7,400.9 731.7,400.4 731.7,399.8  M 728.1,394.8 C 728.3,393.5 728.8,393.1 729.7,393.6 C 730.4,394.0 730.9,395.2 730.9,396.5 C 729.9,395.9 729.0,395.4 728.1,394.8  " />
  </g>
   <polygon points="1066.4,439.6 1082.3,347.4 1081.8,347.6 1065.9,439.8 "  class="polygon_bl_mat_Material" />
   <polygon points="523.7,388.9 517.5,331.1 640.6,419.9 643.8,485.9 " fill="rgb(231,112,218)" class="polygon_bl_matrenamed_10" />
   <polygon points="643.1,486.1 639.9,420.1 516.9,331.3 523.1,389.1 " fill="rgb(255,160,255)" class="polygon_bl_matrenamed_10" />
   <polygon points="596.9,380.9 595.1,355.2 593.8,355.5 595.6,381.2 " fill="rgb(231,220,17)" class="polygon_bl_matrenamed_11" />
   <polygon points="749.9,428.1 750.2,388.5 749.6,388.7 749.3,428.3 " fill="rgb(199,202,255)" class="polygon_bl_matrenamed_16" />
   <polygon points="749.9,428.1 750.2,388.5 749.6,388.7 749.3,428.3 " fill="rgb(199,202,255)" class="polygon_bl_matrenamed_13" />
   <polygon points="640.6,419.9 517.5,331.1 516.9,331.3 639.9,420.1 " fill="rgb(255,163,255)" class="polygon_bl_matrenamed_10" />
   <polygon points="416.6,396.6 618.9,597.3 618.1,597.6 416.0,396.7 " fill="rgb(231,61,216)" class="polygon_bl_matrenamed_6" />
   <polygon points="595.6,381.2 664.4,430.2 665.7,429.7 596.9,380.9 " fill="rgb(231,220,17)" class="polygon_bl_matrenamed_11" />
   <polygon points="416.6,396.6 400.6,297.8 610.6,470.8 618.9,597.3 " fill="rgb(231,61,216)" class="polygon_bl_matrenamed_6" />
   <polygon points="618.1,597.6 609.8,471.1 400.0,297.9 416.0,396.7 " fill="rgb(255,84,255)" class="polygon_bl_matrenamed_6" />
   <polygon points="665.7,429.7 664.7,402.1 595.1,355.2 596.9,380.9 " fill="rgb(231,220,17)" class="polygon_bl_matrenamed_11" />
  <g class="bl_matrenamed_12" >
   <path d="M 649.9,379.4 C 649.1,378.9 648.3,378.4 647.5,377.8 C 647.5,378.4 647.5,378.9 647.5,379.5 C 647.9,379.8 648.4,380.1 648.9,380.4 C 648.9,381.3 648.9,382.2 648.8,383.1 C 648.3,383.0 647.8,382.9 647.3,382.5 C 645.5,381.4 644.3,378.6 644.4,375.7 C 644.4,372.9 645.6,371.5 647.2,372.6 C 648.1,373.1 649.0,374.2 649.8,375.6 C 649.8,374.9 649.9,374.3 649.9,373.7 C 648.7,372.1 648.1,371.4 647.3,370.9 C 645.0,369.4 643.3,371.2 643.3,375.0 C 643.3,378.8 644.9,382.6 647.1,384.1 C 648.1,384.8 648.9,385.0 649.9,384.9 C 649.9,383.1 649.9,381.3 649.9,379.4  M 651.4,378.2 C 651.4,381.1 651.4,383.9 651.3,386.8 C 651.7,387.0 652.0,387.2 652.3,387.4 C 652.3,385.9 652.3,384.4 652.4,383.0 C 652.4,381.5 652.9,380.7 653.6,381.1 C 653.8,381.3 654.2,381.8 654.5,382.5 C 654.6,382.2 654.8,381.8 655.0,381.4 C 654.6,380.5 654.2,379.9 653.8,379.6 C 653.4,379.3 652.9,379.7 652.4,380.9 C 652.4,380.8 652.4,380.8 652.4,380.8 C 652.4,380.2 652.4,379.5 652.4,378.9 C 652.1,378.7 651.8,378.5 651.4,378.2  M 658.0,382.4 C 656.5,381.4 655.4,382.6 655.3,385.0 C 655.3,387.7 656.4,390.3 657.9,391.3 C 659.5,392.3 660.6,391.2 660.6,388.5 C 660.7,386.0 659.6,383.4 658.0,382.4  M 658.0,383.9 C 659.0,384.5 659.6,386.2 659.6,387.9 C 659.6,389.7 658.9,390.4 657.9,389.8 C 656.9,389.1 656.3,387.5 656.3,385.7 C 656.4,384.0 657.0,383.3 658.0,383.9  M 665.8,396.4 C 665.9,393.5 665.9,390.6 666.0,387.8 C 665.6,387.5 665.3,387.3 665.0,387.1 C 664.9,389.2 664.9,391.2 664.9,393.3 C 664.5,393.9 664.1,394.0 663.6,393.7 C 663.0,393.2 662.6,392.3 662.7,391.1 C 662.7,389.3 662.7,387.5 662.7,385.6 C 662.4,385.4 662.1,385.2 661.8,385.0 C 661.7,386.8 661.7,388.6 661.7,390.4 C 661.6,392.5 662.3,394.2 663.3,394.9 C 663.8,395.2 664.4,395.1 664.8,394.6 C 664.8,395.0 664.8,395.4 664.8,395.7 C 665.2,396.0 665.5,396.2 665.8,396.4  M 668.4,389.3 C 668.0,389.1 667.7,388.9 667.4,388.7 C 667.3,391.6 667.3,394.4 667.2,397.3 C 667.5,397.6 667.9,397.8 668.2,398.0 C 668.3,395.9 668.3,393.9 668.3,391.8 C 668.8,391.2 669.2,391.1 669.6,391.4 C 670.2,391.8 670.6,392.9 670.6,394.1 C 670.5,395.9 670.5,397.7 670.5,399.5 C 670.8,399.7 671.1,400.0 671.5,400.2 C 671.5,398.4 671.6,396.6 671.6,394.8 C 671.7,392.4 670.9,390.8 669.9,390.2 C 669.4,389.8 668.8,389.9 668.4,390.5 C 668.4,390.5 668.4,390.5 668.4,390.5 C 668.4,390.1 668.4,389.7 668.4,389.3  M 677.7,390.8 C 677.3,390.5 677.0,390.3 676.6,390.1 C 676.6,391.7 676.6,393.3 676.5,394.8 C 676.1,394.3 675.8,394.0 675.5,393.8 C 673.9,392.8 672.8,393.9 672.8,396.4 C 672.7,399.2 673.6,401.6 675.2,402.6 C 675.9,403.1 676.6,403.6 677.4,404.1 C 677.5,399.7 677.6,395.2 677.7,390.8  M 676.4,401.9 C 676.0,401.7 675.7,401.5 675.3,401.3 C 674.1,400.5 673.8,399.0 673.8,397.4 C 673.9,395.5 674.6,394.8 675.5,395.4 C 675.9,395.6 676.2,395.9 676.5,396.4 C 676.5,398.2 676.4,400.1 676.4,401.9  " />
  </g>
  <g class="bl_matrenamed_15" >
   <path d="M 536.4,362.4 C 535.0,361.4 533.6,360.3 532.2,359.3 C 532.5,364.7 532.7,370.2 532.9,375.5 C 533.3,375.8 533.7,376.1 534.0,376.4 C 533.9,373.9 533.8,371.4 533.7,368.9 C 534.7,369.6 535.7,370.4 536.8,371.2 C 536.7,370.5 536.7,369.8 536.7,369.1 C 535.6,368.3 534.6,367.5 533.6,366.8 C 533.6,365.3 533.5,363.8 533.4,362.3 C 534.4,363.0 535.5,363.8 536.5,364.5 C 536.4,363.8 536.4,363.1 536.4,362.4  M 540.1,370.4 C 538.5,369.3 537.5,370.8 537.6,373.9 C 537.7,377.1 539.0,380.4 540.5,381.6 C 542.2,382.9 543.3,381.5 543.1,378.1 C 543.0,374.9 541.7,371.7 540.1,370.4  M 540.2,372.4 C 541.2,373.1 542.0,375.2 542.1,377.3 C 542.2,379.6 541.5,380.5 540.5,379.7 C 539.5,378.9 538.7,376.9 538.6,374.7 C 538.5,372.6 539.2,371.6 540.2,372.4  M 544.2,373.7 C 544.3,377.3 544.4,381.0 544.6,384.5 C 544.9,384.8 545.3,385.1 545.6,385.3 C 545.5,383.5 545.5,381.6 545.4,379.7 C 545.3,377.8 545.8,376.8 546.6,377.3 C 546.8,377.5 547.2,378.3 547.6,379.2 C 547.7,378.7 547.9,378.2 548.1,377.7 C 547.6,376.5 547.2,375.8 546.8,375.5 C 546.3,375.1 545.8,375.5 545.3,377.0 C 545.3,377.0 545.3,377.0 545.3,377.0 C 545.3,376.2 545.2,375.4 545.2,374.5 C 544.9,374.3 544.5,374.0 544.2,373.7  M 553.5,388.4 C 552.9,388.8 552.3,388.8 551.7,388.3 C 550.7,387.5 550.0,385.9 549.8,383.6 C 551.0,384.6 552.3,385.5 553.6,386.5 C 553.4,382.5 552.4,379.8 551.0,378.7 C 549.5,377.6 548.6,379.0 548.7,382.3 C 548.8,385.3 549.8,388.8 551.5,390.1 C 552.4,390.8 553.0,390.9 553.6,390.5 C 553.6,389.8 553.6,389.1 553.5,388.4  M 549.8,382.2 C 549.8,380.6 550.3,380.0 551.1,380.6 C 551.9,381.2 552.4,382.6 552.5,384.3 C 551.6,383.6 550.7,382.9 549.8,382.2  M 558.9,384.9 C 558.1,384.3 557.4,383.8 556.6,383.2 C 555.2,382.1 554.3,382.8 554.4,385.2 C 554.4,386.0 554.5,386.7 554.7,387.4 C 555.0,388.2 555.3,388.9 555.7,389.5 C 555.7,389.5 555.7,389.6 555.7,389.6 C 555.2,389.4 554.9,389.8 554.9,390.5 C 554.9,391.0 555.1,391.5 555.5,392.3 C 554.6,392.0 554.2,392.6 554.2,394.2 C 554.3,396.1 555.4,398.3 556.8,399.5 C 558.4,400.7 559.4,400.2 559.3,398.0 C 559.2,396.6 558.8,395.1 557.6,393.7 C 556.5,392.4 555.9,391.6 555.9,391.0 C 555.9,389.7 557.4,391.7 558.0,390.7 C 558.3,390.3 558.5,389.5 558.5,388.6 C 558.5,387.7 558.3,386.9 557.8,385.7 C 558.2,386.0 558.6,386.3 559.0,386.6 C 558.9,386.0 558.9,385.5 558.9,384.9  M 557.5,387.6 C 557.5,388.8 557.1,389.3 556.5,388.8 C 555.9,388.3 555.4,387.2 555.4,386.0 C 555.3,384.9 555.8,384.4 556.4,384.8 C 556.9,385.3 557.5,386.5 557.5,387.6  M 558.2,397.4 C 558.3,398.3 557.7,398.5 556.8,397.8 C 555.8,397.0 555.3,396.0 555.2,394.9 C 555.2,393.9 555.7,393.7 556.4,394.2 C 557.1,394.7 558.2,396.0 558.2,397.4  M 559.8,385.6 C 559.9,389.3 560.1,393.0 560.2,396.6 C 560.5,396.9 560.9,397.2 561.3,397.5 C 561.2,395.5 561.1,393.6 561.1,391.7 C 561.0,389.8 561.6,388.8 562.3,389.3 C 562.6,389.5 563.0,390.3 563.4,391.2 C 563.6,390.7 563.8,390.2 563.9,389.7 C 563.4,388.5 563.0,387.8 562.6,387.4 C 562.0,387.1 561.5,387.5 561.0,389.0 C 561.0,389.0 561.0,389.0 561.0,389.0 C 561.0,388.1 561.0,387.3 560.9,386.4 C 560.6,386.2 560.2,385.9 559.8,385.6  M 567.3,391.0 C 565.6,389.8 564.4,391.3 564.5,394.5 C 564.6,397.8 565.9,401.3 567.6,402.6 C 569.4,404.0 570.6,402.6 570.5,399.1 C 570.4,395.8 569.1,392.4 567.3,391.0  M 567.3,393.0 C 568.5,393.9 569.3,396.1 569.4,398.2 C 569.4,400.6 568.7,401.5 567.6,400.6 C 566.5,399.8 565.7,397.7 565.6,395.3 C 565.6,393.2 566.3,392.2 567.3,393.0  M 576.7,409.4 C 576.6,405.7 576.6,402.0 576.5,398.2 C 576.1,397.9 575.7,397.6 575.3,397.3 C 575.4,400.0 575.4,402.7 575.5,405.4 C 575.2,406.1 574.7,406.3 574.2,405.9 C 573.4,405.3 573.0,404.1 572.9,402.5 C 572.9,400.1 572.8,397.8 572.8,395.4 C 572.4,395.1 572.0,394.8 571.6,394.5 C 571.7,396.8 571.7,399.2 571.8,401.5 C 571.9,404.3 572.7,406.5 573.9,407.4 C 574.4,407.9 575.1,407.7 575.5,407.1 C 575.6,407.6 575.6,408.1 575.6,408.5 C 576.0,408.8 576.3,409.1 576.7,409.4  M 579.2,400.3 C 578.9,400.0 578.5,399.7 578.1,399.4 C 578.2,403.2 578.2,406.9 578.3,410.7 C 578.7,411.0 579.1,411.3 579.5,411.6 C 579.4,408.9 579.4,406.2 579.3,403.5 C 579.8,402.7 580.2,402.6 580.7,403.0 C 581.4,403.5 581.9,404.9 582.0,406.6 C 582.0,408.9 582.1,411.3 582.1,413.6 C 582.5,413.9 582.9,414.2 583.3,414.5 C 583.2,412.2 583.2,409.9 583.1,407.5 C 583.1,404.4 582.1,402.3 581.0,401.4 C 580.4,400.9 579.7,401.1 579.3,401.8 C 579.3,401.8 579.3,401.8 579.3,401.8 C 579.3,401.3 579.2,400.8 579.2,400.3  M 589.8,402.4 C 589.4,402.1 589.0,401.8 588.6,401.5 C 588.6,403.6 588.6,405.6 588.7,407.7 C 588.2,407.0 587.8,406.6 587.4,406.3 C 585.7,404.9 584.5,406.4 584.5,409.6 C 584.6,413.3 585.8,416.4 587.5,417.8 C 588.4,418.4 589.2,419.1 590.1,419.8 C 590.0,414.0 589.9,408.2 589.8,402.4  M 588.8,416.9 C 588.4,416.6 588.0,416.3 587.6,416.0 C 586.3,415.0 585.8,413.0 585.7,410.9 C 585.7,408.5 586.4,407.5 587.6,408.4 C 588.0,408.7 588.3,409.1 588.7,409.7 C 588.8,412.1 588.8,414.5 588.8,416.9  M 599.9,416.5 C 599.3,415.6 598.8,414.9 598.1,414.3 C 596.2,412.9 595.0,414.4 595.1,418.2 C 595.2,421.6 596.5,424.9 598.3,426.4 C 599.0,426.9 599.7,427.2 600.1,427.1 C 600.1,426.4 600.1,425.6 600.1,424.9 C 599.5,424.9 599.0,424.8 598.5,424.4 C 597.2,423.4 596.4,421.3 596.3,419.0 C 596.3,416.6 597.1,415.7 598.2,416.5 C 598.7,416.9 599.2,417.5 599.9,418.9 C 599.9,418.1 599.9,417.3 599.9,416.5  M 602.6,412.0 C 602.2,411.7 601.7,411.4 601.3,411.1 C 601.4,416.9 601.5,422.8 601.5,428.6 C 601.9,428.9 602.4,429.3 602.8,429.6 C 602.7,423.8 602.6,417.9 602.6,412.0  M 607.4,421.4 C 605.5,420.0 604.1,421.5 604.1,424.8 C 604.2,428.3 605.6,432.0 607.5,433.5 C 609.6,435.1 610.9,433.7 610.9,430.0 C 610.9,426.5 609.4,422.9 607.4,421.4  M 607.4,423.5 C 608.7,424.4 609.6,426.8 609.6,429.0 C 609.6,431.5 608.8,432.4 607.5,431.4 C 606.3,430.5 605.4,428.2 605.4,425.8 C 605.4,423.5 606.2,422.6 607.4,423.5  M 616.1,428.9 C 615.4,427.8 614.8,427.0 614.2,426.5 C 612.9,425.5 612.0,426.1 612.0,428.1 C 612.1,431.2 615.1,434.4 615.1,436.0 C 615.1,436.9 614.7,437.0 614.2,436.6 C 613.6,436.2 612.9,435.1 612.0,433.5 C 612.0,434.3 612.0,435.1 612.1,435.9 C 612.9,437.4 613.5,438.1 614.3,438.7 C 615.5,439.7 616.4,439.0 616.4,437.0 C 616.4,435.8 616.0,434.7 614.9,432.6 C 613.8,430.5 613.4,429.5 613.4,429.0 C 613.4,428.4 613.7,428.2 614.2,428.6 C 614.7,428.9 615.4,429.8 616.1,431.2 C 616.1,430.5 616.1,429.7 616.1,428.9  M 623.4,442.2 C 622.7,442.5 621.9,442.4 621.1,441.8 C 619.8,440.8 619.1,439.0 618.9,436.6 C 620.4,437.7 622.0,438.9 623.5,440.1 C 623.5,435.8 622.4,432.8 620.6,431.4 C 618.8,430.0 617.6,431.5 617.6,435.1 C 617.6,438.3 618.7,442.2 620.8,443.8 C 621.9,444.6 622.6,444.7 623.4,444.4 C 623.4,443.7 623.4,442.9 623.4,442.2  M 618.9,435.0 C 619.1,433.3 619.7,432.7 620.7,433.5 C 621.6,434.2 622.2,435.8 622.2,437.6 C 621.1,436.7 620.0,435.9 618.9,435.0  " />
  </g>
   <polygon points="748.8,456.4 749.0,435.5 748.4,435.7 748.2,456.6 " fill="rgb(12,255,0)" class="polygon_bl_matrenamed_0" />
   <polygon points="595.6,381.2 593.8,355.5 663.3,402.5 664.4,430.2 " fill="rgb(255,255,24)" class="polygon_bl_matrenamed_11" />
   <polygon points="663.3,402.5 593.8,355.5 595.1,355.2 664.7,402.1 " fill="rgb(255,255,24)" class="polygon_bl_matrenamed_11" />
   <polygon points="610.6,470.8 400.6,297.8 400.0,297.9 609.8,471.1 " fill="rgb(255,91,255)" class="polygon_bl_matrenamed_6" />
   <polygon points="643.8,485.9 640.6,419.9 639.9,420.1 643.1,486.1 " fill="rgb(255,196,255)" class="polygon_bl_matrenamed_10" />
  <g class="bl_matrenamed_3" >
   <path d="M 329.9,389.2 C 331.3,398.4 332.6,407.5 333.9,416.6 C 334.7,417.0 335.4,417.4 336.2,417.8 C 335.7,413.9 335.1,410.0 334.5,406.0 C 335.4,406.5 336.2,406.9 337.0,407.3 C 340.9,409.3 342.1,406.8 341.5,402.5 C 340.9,398.1 338.7,393.7 335.1,391.8 C 333.4,391.0 331.6,390.1 329.9,389.2  M 332.8,394.0 C 333.7,394.5 334.7,394.9 335.6,395.4 C 337.8,396.5 338.8,399.0 339.0,401.1 C 339.4,403.8 338.5,404.8 336.7,403.9 C 335.8,403.4 334.9,403.0 334.0,402.5 C 333.6,399.7 333.2,396.8 332.8,394.0  M 348.7,407.2 C 345.4,405.5 343.4,408.2 344.1,413.4 C 344.9,419.0 347.9,424.2 351.3,426.0 C 354.9,427.9 356.8,425.4 356.0,419.6 C 355.3,414.2 352.2,409.0 348.7,407.2  M 349.1,410.4 C 351.3,411.6 353.3,414.9 353.8,418.5 C 354.3,422.4 353.2,424.0 350.8,422.8 C 348.7,421.7 346.9,418.4 346.4,414.6 C 345.9,411.1 347.0,409.3 349.1,410.4  M 366.1,416.3 C 362.8,414.7 359.5,413.0 356.3,411.4 C 356.4,412.5 356.6,413.6 356.7,414.6 C 358.6,415.6 360.6,416.6 362.5,417.6 C 361.2,421.6 359.8,425.6 358.5,429.5 C 361.8,431.2 365.1,433.0 368.5,434.7 C 368.3,433.7 368.2,432.6 368.0,431.5 C 366.0,430.4 364.0,429.3 361.9,428.3 C 363.3,424.3 364.7,420.4 366.1,416.3  M 373.4,419.8 C 369.9,418.0 367.8,420.7 368.5,426.0 C 369.2,431.7 372.3,437.1 375.9,439.0 C 379.6,440.9 381.7,438.4 381.0,432.5 C 380.3,427.0 377.1,421.6 373.4,419.8  M 373.8,423.1 C 376.2,424.2 378.2,427.7 378.6,431.3 C 379.1,435.3 377.9,437.0 375.4,435.7 C 373.2,434.5 371.3,431.1 370.8,427.3 C 370.4,423.7 371.6,421.9 373.8,423.1  M 382.7,424.8 C 383.4,431.0 384.2,437.2 384.9,443.4 C 385.7,443.8 386.5,444.2 387.3,444.6 C 386.9,441.4 386.5,438.2 386.1,434.9 C 385.7,431.7 386.7,429.8 388.3,430.7 C 388.9,431.0 389.9,432.2 390.8,433.7 C 391.1,432.8 391.4,431.9 391.7,431.1 C 390.5,429.1 389.5,427.9 388.5,427.4 C 387.4,426.9 386.4,427.7 385.6,430.3 C 385.6,430.3 385.6,430.3 385.6,430.3 C 385.4,428.9 385.2,427.4 385.0,426.0 C 384.2,425.6 383.4,425.2 382.7,424.8  M 398.8,432.7 C 395.2,430.8 392.9,433.6 393.5,439.0 C 394.2,444.7 397.3,450.3 401.1,452.2 C 405.0,454.3 407.3,451.7 406.6,445.8 C 406.0,440.2 402.7,434.6 398.8,432.7  M 399.2,436.0 C 401.6,437.3 403.7,440.8 404.1,444.5 C 404.6,448.6 403.2,450.2 400.7,448.9 C 398.3,447.7 396.4,444.2 396.0,440.3 C 395.5,436.7 396.9,434.9 399.2,436.0  M 414.5,459.3 C 414.7,459.4 415.0,459.6 415.3,459.7 C 416.5,454.3 417.6,448.8 418.8,443.2 C 417.9,442.7 417.0,442.3 416.1,441.8 C 415.4,445.2 414.7,448.5 414.1,451.8 C 412.5,447.4 410.9,442.9 409.4,438.4 C 408.5,437.9 407.6,437.5 406.7,437.0 C 409.3,444.5 411.9,451.9 414.5,459.3  M 432.4,465.1 C 431.8,465.4 431.4,465.5 431.1,465.4 C 430.8,465.2 430.6,464.9 430.5,464.2 C 430.2,460.9 429.8,457.6 429.5,454.3 C 429.1,449.9 426.8,446.9 424.1,445.6 C 422.3,444.6 421.0,444.7 420.1,446.0 C 420.3,447.4 420.4,448.8 420.6,450.1 C 421.6,448.6 422.9,448.3 424.3,449.1 C 425.9,449.9 426.7,451.2 427.0,453.6 C 427.0,454.0 427.1,454.3 427.1,454.7 C 426.4,454.7 425.7,454.7 425.0,454.7 C 423.0,454.7 420.8,454.7 421.2,458.4 C 421.5,460.9 423.0,463.7 424.9,464.7 C 426.0,465.3 427.1,465.3 428.1,464.6 C 428.5,466.1 429.1,467.0 430.3,467.6 C 431.1,468.0 431.5,467.9 432.6,467.4 C 432.5,466.6 432.4,465.9 432.4,465.1  M 427.9,462.3 C 427.3,462.9 426.6,463.1 425.8,462.7 C 424.8,462.2 423.9,460.7 423.7,459.1 C 423.5,456.9 425.3,456.7 427.3,456.8 C 427.5,458.6 427.7,460.5 427.9,462.3  M 435.7,448.0 C 434.3,449.5 432.9,451.0 431.5,452.5 C 431.5,452.7 431.6,452.8 431.6,453.0 C 432.3,453.4 433.1,453.7 433.8,454.1 C 434.2,457.5 434.5,460.9 434.9,464.3 C 435.2,467.8 436.9,471.1 439.7,472.6 C 440.6,473.0 441.9,473.2 442.8,472.9 C 442.7,471.8 442.5,470.6 442.4,469.4 C 441.5,469.8 440.5,469.7 439.6,469.2 C 438.8,468.8 437.7,467.6 437.4,465.4 C 437.1,462.1 436.8,458.8 436.4,455.5 C 437.8,456.2 439.2,456.9 440.6,457.6 C 440.5,456.5 440.4,455.3 440.3,454.1 C 438.9,453.4 437.5,452.7 436.1,452.0 C 436.0,450.7 435.8,449.3 435.7,448.0  M 455.4,475.1 C 454.0,475.7 452.5,475.8 450.9,475.0 C 448.3,473.6 446.6,470.9 445.9,466.8 C 449.0,468.4 452.2,470.1 455.3,471.7 C 454.7,464.5 452.1,459.7 448.5,457.9 C 444.7,456.0 442.6,458.7 443.1,464.6 C 443.7,469.9 446.4,476.1 450.6,478.3 C 452.9,479.5 454.3,479.5 455.8,478.8 C 455.6,477.6 455.5,476.3 455.4,475.1  M 445.7,464.3 C 445.7,461.4 446.8,460.3 448.8,461.3 C 450.7,462.3 452.1,464.8 452.4,467.8 C 450.2,466.6 447.9,465.4 445.7,464.3  M 459.2,453.9 C 458.3,453.5 457.4,453.0 456.5,452.5 C 457.4,462.6 458.2,472.5 459.1,482.4 C 460.0,482.9 460.9,483.3 461.8,483.8 C 461.0,473.9 460.1,464.0 459.2,453.9  " />
  </g>
   <polygon points="664.4,430.2 663.3,402.5 664.7,402.1 665.7,429.7 " fill="rgb(255,255,30)" class="polygon_bl_matrenamed_11" />
  <g class="bl_matrenamed_2" >
   <path d="M 457.9,365.6 C 455.7,363.8 453.6,362.0 451.5,360.1 C 452.2,369.7 453.0,379.1 453.8,388.5 C 454.3,389.0 454.9,389.5 455.5,390.0 C 455.1,385.7 454.8,381.3 454.4,376.9 C 456.0,378.3 457.5,379.7 459.1,381.0 C 459.0,379.8 458.9,378.6 458.8,377.3 C 457.2,376.0 455.7,374.6 454.1,373.2 C 453.9,370.6 453.7,368.0 453.5,365.3 C 455.0,366.7 456.6,368.0 458.2,369.4 C 458.1,368.1 458.0,366.9 457.9,365.6  M 464.0,379.9 C 461.6,377.7 460.1,380.3 460.5,385.8 C 461.0,391.5 463.0,397.3 465.5,399.5 C 468.1,401.9 469.6,399.5 469.2,393.5 C 468.7,387.8 466.6,382.1 464.0,379.9  M 464.3,383.2 C 465.9,384.7 467.2,388.4 467.5,392.0 C 467.8,396.1 466.9,397.7 465.2,396.2 C 463.7,394.8 462.4,391.2 462.1,387.2 C 461.9,383.6 462.7,381.9 464.3,383.2  M 470.4,385.8 C 470.9,392.2 471.3,398.6 471.8,404.9 C 472.3,405.4 472.9,405.9 473.4,406.4 C 473.2,403.1 472.9,399.7 472.7,396.4 C 472.5,393.1 473.2,391.3 474.3,392.3 C 474.7,392.7 475.4,394.0 476.0,395.6 C 476.2,394.8 476.4,393.9 476.7,393.1 C 475.9,390.9 475.2,389.6 474.5,389.1 C 473.7,388.4 473.0,389.1 472.4,391.7 C 472.4,391.7 472.4,391.7 472.4,391.7 C 472.3,390.2 472.2,388.7 472.0,387.3 C 471.5,386.8 470.9,386.3 470.4,385.8  M 485.8,412.4 C 484.9,413.0 484.0,412.9 483.0,412.0 C 481.3,410.5 480.2,407.7 479.7,403.6 C 481.7,405.4 483.7,407.2 485.7,409.0 C 485.3,401.8 483.6,397.0 481.3,395.0 C 478.9,392.9 477.5,395.5 477.9,401.3 C 478.3,406.6 480.1,412.8 482.8,415.2 C 484.2,416.6 485.1,416.7 486.1,416.1 C 486.0,414.9 485.9,413.6 485.8,412.4  M 479.5,401.1 C 479.6,398.3 480.2,397.2 481.5,398.4 C 482.7,399.4 483.6,402.0 483.9,405.0 C 482.4,403.7 481.0,402.4 479.5,401.1  M 494.0,406.6 C 492.8,405.5 491.6,404.4 490.3,403.3 C 487.9,401.2 486.6,402.5 486.9,406.7 C 487.0,408.1 487.2,409.5 487.6,410.8 C 488.0,412.1 488.6,413.4 489.3,414.6 C 489.3,414.6 489.3,414.6 489.3,414.6 C 488.4,414.3 488.0,414.9 488.1,416.2 C 488.1,417.0 488.4,418.0 489.1,419.4 C 487.6,418.9 487.1,419.9 487.2,422.7 C 487.5,426.1 489.3,430.1 491.7,432.3 C 494.3,434.7 495.7,433.8 495.4,430.0 C 495.3,427.5 494.5,424.8 492.5,422.2 C 490.7,419.8 489.7,418.3 489.7,417.3 C 489.5,415.0 492.0,418.5 493.0,416.8 C 493.4,416.3 493.7,414.8 493.6,413.1 C 493.5,411.5 493.2,410.2 492.4,408.0 C 493.0,408.5 493.6,409.1 494.2,409.6 C 494.2,408.6 494.1,407.6 494.0,406.6  M 492.0,411.2 C 492.1,413.4 491.5,414.3 490.5,413.4 C 489.4,412.4 488.6,410.4 488.5,408.2 C 488.4,406.3 489.1,405.4 490.0,406.2 C 490.9,407.1 491.8,409.3 492.0,411.2  M 493.8,428.7 C 493.9,430.5 493.0,430.7 491.5,429.3 C 489.9,427.8 489.0,426.0 488.9,424.1 C 488.8,422.3 489.5,421.9 490.7,423.0 C 491.7,423.9 493.6,426.2 493.8,428.7  M 495.5,407.9 C 495.9,414.5 496.3,421.1 496.7,427.6 C 497.3,428.1 497.9,428.7 498.5,429.2 C 498.3,425.8 498.1,422.4 497.9,418.9 C 497.7,415.5 498.5,413.7 499.8,414.8 C 500.2,415.2 500.9,416.6 501.6,418.3 C 501.8,417.4 502.1,416.6 502.3,415.7 C 501.5,413.5 500.7,412.1 500.0,411.4 C 499.1,410.7 498.4,411.4 497.7,414.1 C 497.6,414.1 497.6,414.1 497.6,414.0 C 497.5,412.5 497.4,411.0 497.3,409.5 C 496.7,409.0 496.1,408.4 495.5,407.9  M 507.9,418.4 C 505.1,415.9 503.2,418.5 503.5,424.2 C 503.9,430.3 506.2,436.5 509.0,439.2 C 512.0,441.9 513.9,439.5 513.6,433.2 C 513.3,427.2 510.8,421.0 507.9,418.4  M 508.0,421.9 C 509.9,423.6 511.4,427.6 511.6,431.5 C 511.9,435.8 510.8,437.4 508.8,435.6 C 507.0,434.0 505.6,430.1 505.4,425.9 C 505.2,422.1 506.3,420.4 508.0,421.9  M 524.3,452.7 C 524.0,445.9 523.7,439.2 523.3,432.3 C 522.7,431.7 522.0,431.2 521.4,430.6 C 521.6,435.5 521.9,440.3 522.1,445.2 C 521.6,446.4 520.8,446.7 519.9,445.9 C 518.6,444.7 517.8,442.5 517.7,439.7 C 517.5,435.4 517.2,431.1 517.0,426.8 C 516.4,426.2 515.7,425.7 515.1,425.1 C 515.3,429.3 515.5,433.5 515.8,437.7 C 516.0,442.8 517.6,446.9 519.5,448.7 C 520.5,449.6 521.5,449.4 522.3,448.4 C 522.3,449.2 522.3,450.1 522.4,450.9 C 523.0,451.5 523.7,452.1 524.3,452.7  M 528.1,436.5 C 527.4,435.9 526.7,435.3 526.1,434.7 C 526.4,441.6 526.7,448.4 527.1,455.2 C 527.7,455.8 528.4,456.4 529.0,457.0 C 528.8,452.1 528.6,447.2 528.3,442.3 C 529.2,441.0 529.9,440.8 530.7,441.6 C 532.0,442.7 532.8,445.3 533.0,448.4 C 533.1,452.6 533.3,456.8 533.5,461.1 C 534.2,461.7 534.9,462.3 535.5,462.9 C 535.4,458.7 535.2,454.5 535.0,450.2 C 534.7,444.5 533.1,440.5 531.1,438.8 C 530.0,437.8 528.9,437.9 528.2,439.2 C 528.2,439.2 528.2,439.2 528.2,439.2 C 528.2,438.3 528.1,437.4 528.1,436.5  M 546.2,441.7 C 545.5,441.1 544.8,440.5 544.1,439.9 C 544.2,443.7 544.4,447.5 544.5,451.3 C 543.6,450.0 543.0,449.2 542.3,448.5 C 539.2,445.9 537.2,448.3 537.5,454.3 C 537.8,460.9 539.9,466.8 543.0,469.7 C 544.4,471.0 545.9,472.4 547.4,473.7 C 547.0,463.2 546.6,452.5 546.2,441.7  M 545.2,468.3 C 544.5,467.7 543.8,467.1 543.1,466.4 C 540.7,464.3 539.8,460.7 539.6,456.8 C 539.4,452.4 540.7,450.7 542.7,452.5 C 543.4,453.1 543.9,453.8 544.7,455.0 C 544.8,459.5 545.0,463.9 545.2,468.3  " />
  </g>
   <polygon points="618.9,597.3 610.6,470.8 609.8,471.1 618.1,597.6 " fill="rgb(255,104,255)" class="polygon_bl_matrenamed_6" />
  <g class="bl_matrenamed_7" >
   <path d="M 611.9,368.7 C 611.8,374.0 611.7,379.3 611.6,384.5 C 612.1,384.8 612.5,385.0 612.9,385.3 C 612.9,383.1 612.9,380.8 613.0,378.5 C 613.4,378.8 613.8,379.1 614.2,379.4 C 616.2,380.8 617.1,379.4 617.2,376.9 C 617.2,374.4 616.4,371.8 614.5,370.5 C 613.6,369.9 612.7,369.3 611.9,368.7  M 613.1,371.6 C 613.5,371.9 614.0,372.2 614.5,372.6 C 615.6,373.3 615.9,374.8 615.9,376.0 C 615.9,377.6 615.3,378.1 614.4,377.4 C 613.9,377.1 613.4,376.8 613.0,376.5 C 613.0,374.9 613.0,373.2 613.1,371.6  M 619.3,373.8 C 618.9,373.5 618.6,373.3 618.2,373.0 C 618.1,378.3 618.0,383.6 617.9,388.9 C 618.3,389.1 618.7,389.4 619.0,389.7 C 619.1,384.4 619.2,379.1 619.3,373.8  M 625.1,392.0 C 624.9,392.2 624.6,392.2 624.5,392.2 C 624.4,392.1 624.3,391.9 624.3,391.5 C 624.3,389.7 624.4,387.9 624.4,386.1 C 624.5,383.7 623.6,382.0 622.4,381.2 C 621.6,380.6 620.9,380.7 620.5,381.3 C 620.5,382.1 620.4,382.8 620.4,383.6 C 621.0,382.8 621.6,382.7 622.3,383.1 C 623.0,383.6 623.3,384.3 623.3,385.6 C 623.3,385.8 623.3,386.0 623.3,386.2 C 622.9,386.2 622.6,386.2 622.2,386.2 C 621.3,386.1 620.3,386.1 620.2,388.1 C 620.2,389.5 620.7,391.1 621.6,391.6 C 622.1,392.0 622.6,392.0 623.1,391.7 C 623.2,392.5 623.5,393.0 624.0,393.3 C 624.3,393.6 624.6,393.5 625.1,393.3 C 625.1,392.9 625.1,392.4 625.1,392.0  M 623.2,390.4 C 622.9,390.7 622.5,390.8 622.2,390.6 C 621.7,390.2 621.4,389.4 621.4,388.5 C 621.4,387.3 622.3,387.3 623.2,387.4 C 623.2,388.4 623.2,389.4 623.2,390.4  M 631.2,387.4 C 630.8,387.1 630.3,386.8 629.9,386.5 C 629.3,388.2 628.8,389.8 628.2,391.4 C 627.8,389.1 627.3,386.8 626.8,384.4 C 626.4,384.1 625.9,383.8 625.5,383.5 C 626.2,386.8 626.9,390.1 627.6,393.4 C 626.9,395.4 626.2,397.5 625.5,399.6 C 625.9,399.9 626.3,400.2 626.7,400.5 C 628.2,396.2 629.7,391.8 631.2,387.4  M 636.8,398.9 C 636.1,399.3 635.4,399.3 634.7,398.8 C 633.5,398.0 632.9,396.4 632.8,394.2 C 634.1,395.2 635.5,396.1 636.9,397.1 C 637.0,393.2 636.1,390.5 634.5,389.5 C 632.9,388.4 631.7,389.8 631.6,393.0 C 631.5,395.9 632.5,399.3 634.3,400.6 C 635.3,401.3 636.0,401.3 636.7,401.0 C 636.7,400.3 636.8,399.6 636.8,398.9  M 632.8,392.8 C 633.0,391.3 633.6,390.7 634.5,391.3 C 635.3,391.9 635.8,393.3 635.8,394.9 C 634.8,394.2 633.8,393.5 632.8,392.8  M 638.4,392.4 C 638.3,395.9 638.2,399.5 638.2,403.0 C 638.5,403.3 638.9,403.6 639.3,403.9 C 639.4,402.0 639.4,400.2 639.5,398.3 C 639.5,396.5 640.2,395.5 641.0,396.0 C 641.3,396.2 641.8,397.0 642.1,397.8 C 642.3,397.4 642.6,396.9 642.8,396.4 C 642.3,395.3 641.9,394.5 641.4,394.2 C 640.8,393.8 640.2,394.2 639.6,395.7 C 639.6,395.7 639.6,395.7 639.6,395.7 C 639.6,394.8 639.6,394.0 639.6,393.2 C 639.2,392.9 638.8,392.7 638.4,392.4  " />
  </g>
   <polygon points="407.3,493.1 407.8,494.0 407.9,495.0 407.6,496.1 406.9,497.1 405.8,498.1 404.4,499.1 402.7,500.0 400.8,500.7 398.7,501.2 396.6,501.5 394.5,501.7 392.5,501.6 390.7,501.3 389.1,500.9 387.9,500.2 387.0,499.4 386.5,498.5 386.4,497.5 386.8,496.4 387.5,495.3 388.6,494.3 390.0,493.4 391.8,492.5 393.7,491.9 395.7,491.3 397.8,491.0 399.9,490.9 401.8,490.9 403.6,491.2 405.2,491.7 406.4,492.3 " fill="rgb(0,0,0)" class="polygon_bl_matrenamed_14" />
   <polygon points="397.8,491.0 394.0,478.4 399.9,490.9 " fill="rgb(0,0,0)" class="polygon_bl_matrenamed_14" />
   <polygon points="399.9,490.9 394.0,478.4 401.8,490.9 " fill="rgb(0,0,0)" class="polygon_bl_matrenamed_14" />
   <polygon points="401.8,490.9 394.0,478.4 403.6,491.2 " fill="rgb(0,0,0)" class="polygon_bl_matrenamed_14" />
   <polygon points="395.7,491.3 394.0,478.4 397.8,491.0 " fill="rgb(0,0,0)" class="polygon_bl_matrenamed_14" />
   <polygon points="403.6,491.2 394.0,478.4 405.2,491.7 " fill="rgb(0,0,0)" class="polygon_bl_matrenamed_14" />
   <polygon points="393.7,491.9 394.0,478.4 395.7,491.3 " fill="rgb(0,0,0)" class="polygon_bl_matrenamed_14" />
   <polygon points="405.2,491.7 394.0,478.4 406.4,492.3 " fill="rgb(0,0,0)" class="polygon_bl_matrenamed_14" />
   <polygon points="391.8,492.5 394.0,478.4 393.7,491.9 " fill="rgb(0,0,0)" class="polygon_bl_matrenamed_14" />
   <polygon points="406.4,492.3 394.0,478.4 407.3,493.1 " fill="rgb(0,0,0)" class="polygon_bl_matrenamed_14" />
   <polygon points="390.0,493.4 394.0,478.4 391.8,492.5 " fill="rgb(0,0,0)" class="polygon_bl_matrenamed_14" />
   <polygon points="407.3,493.1 394.0,478.4 407.8,494.0 " fill="rgb(0,0,0)" class="polygon_bl_matrenamed_14" />
   <polygon points="388.6,494.3 394.0,478.4 390.0,493.4 " fill="rgb(0,0,0)" class="polygon_bl_matrenamed_14" />
   <polygon points="407.8,494.0 394.0,478.4 407.9,495.0 " fill="rgb(0,0,0)" class="polygon_bl_matrenamed_14" />
   <polygon points="387.5,495.3 394.0,478.4 388.6,494.3 " fill="rgb(0,0,0)" class="polygon_bl_matrenamed_14" />
   <polygon points="407.9,495.0 394.0,478.4 407.6,496.1 " fill="rgb(0,0,0)" class="polygon_bl_matrenamed_14" />
   <polygon points="386.8,496.4 394.0,478.4 387.5,495.3 " fill="rgb(0,0,0)" class="polygon_bl_matrenamed_14" />
   <polygon points="407.6,496.1 394.0,478.4 406.9,497.1 " fill="rgb(0,0,0)" class="polygon_bl_matrenamed_14" />
   <polygon points="386.4,497.5 394.0,478.4 386.8,496.4 " fill="rgb(0,0,0)" class="polygon_bl_matrenamed_14" />
   <polygon points="406.9,497.1 394.0,478.4 405.8,498.1 " fill="rgb(0,0,0)" class="polygon_bl_matrenamed_14" />
   <polygon points="386.5,498.5 394.0,478.4 386.4,497.5 " fill="rgb(0,0,0)" class="polygon_bl_matrenamed_14" />
   <polygon points="405.8,498.1 394.0,478.4 404.4,499.1 " fill="rgb(0,0,0)" class="polygon_bl_matrenamed_14" />
   <polygon points="387.0,499.4 394.0,478.4 386.5,498.5 " fill="rgb(0,0,0)" class="polygon_bl_matrenamed_14" />
   <polygon points="404.4,499.1 394.0,478.4 402.7,500.0 " fill="rgb(0,0,0)" class="polygon_bl_matrenamed_14" />
   <polygon points="387.9,500.2 394.0,478.4 387.0,499.4 " fill="rgb(0,0,0)" class="polygon_bl_matrenamed_14" />
   <polygon points="402.7,500.0 394.0,478.4 400.8,500.7 " fill="rgb(0,0,0)" class="polygon_bl_matrenamed_14" />
   <polygon points="389.1,500.9 394.0,478.4 387.9,500.2 " fill="rgb(0,0,0)" class="polygon_bl_matrenamed_14" />
   <polygon points="400.8,500.7 394.0,478.4 398.7,501.2 " fill="rgb(0,0,0)" class="polygon_bl_matrenamed_14" />
   <polygon points="390.7,501.3 394.0,478.4 389.1,500.9 " fill="rgb(0,0,0)" class="polygon_bl_matrenamed_14" />
   <polygon points="398.7,501.2 394.0,478.4 396.6,501.5 " fill="rgb(0,0,0)" class="polygon_bl_matrenamed_14" />
   <polygon points="392.5,501.6 394.0,478.4 390.7,501.3 " fill="rgb(0,0,0)" class="polygon_bl_matrenamed_14" />
   <polygon points="396.6,501.5 394.0,478.4 394.5,501.7 " fill="rgb(0,0,0)" class="polygon_bl_matrenamed_14" />
   <polygon points="394.5,501.7 394.0,478.4 392.5,501.6 " fill="rgb(0,0,0)" class="polygon_bl_matrenamed_14" />
 </g> 

</svg>