<?xml version="1.0" encoding="UTF-8" standalone="no"?>
<!-- Created with Inkscape (http://www.inkscape.org/) -->

<svg
   version="1.1"
   id="svg1"
   width="535"
   height="294"
   viewBox="0 0 535 294"
   sodipodi:docname="CG_NOT.svg"
   inkscape:version="1.3.2 (091e20e, 2023-11-25, custom)"
   xmlns:inkscape="http://www.inkscape.org/namespaces/inkscape"
   xmlns:sodipodi="http://sodipodi.sourceforge.net/DTD/sodipodi-0.dtd"
   xmlns="http://www.w3.org/2000/svg"
   xmlns:svg="http://www.w3.org/2000/svg">
  <defs
     id="defs1" />
  <sodipodi:namedview
     id="namedview1"
     pagecolor="#505050"
     bordercolor="#eeeeee"
     borderopacity="1"
     inkscape:showpageshadow="0"
     inkscape:pageopacity="0"
     inkscape:pagecheckerboard="0"
     inkscape:deskcolor="#505050"
     inkscape:zoom="0.66728972"
     inkscape:cx="140.86835"
     inkscape:cy="117.64006"
     inkscape:window-width="1280"
     inkscape:window-height="649"
     inkscape:window-x="-8"
     inkscape:window-y="-8"
     inkscape:window-maximized="1"
     inkscape:current-layer="g1" />
  <g
     inkscape:groupmode="layer"
     inkscape:label="Image"
     id="g1">
    <rect
       style="fill:#ffffff;stroke-width:0;stroke-linejoin:round;paint-order:markers fill stroke"
       id="rect1"
       width="535"
       height="293.72549"
       x="-1.4985994"
       y="0" />
    <path
       style="fill:#000000"
       d="M 47,278.5 V 272 h 145 c 96,0 145,-0.33793 145,-1 0,-0.55 -0.45,-1 -1,-1 -1.97096,0 -0.8604,-2.61771 9.0658,-21.36915 l 10.06581,-19.01515 -0.31581,-22.72645 c -0.17369,-12.49955 -0.57397,-22.98375 -0.88951,-23.29823 -0.31554,-0.31447 -8.52804,-0.87186 -18.25,-1.23863 C 321.88169,181.83198 318,181.39067 318,180.34277 318,179.26881 321.60342,179 336,179 h 18 V 166.51905 154.0381 l -2.75,-0.66095 c -15.9221,-3.82681 -24.60837,-21.95356 -17.34374,-36.19341 10.21735,-20.02766 39.13878,-18.313355 46.57412,2.76066 5.13259,14.54729 -3.89563,30.28784 -19.23038,33.52783 L 358,154.15891 V 166.57946 179 h 19.5 c 18.83333,0 19.5,0.0684 19.5,2 0,1.93216 -0.66667,2 -19.65391,2 h -19.65391 l 0.70685,23.20903 0.70684,23.20904 11.40511,18.59983 C 382.75911,267.99257 383.81807,270 382.10699,270 381.49814,270 381,270.45 381,271 c 0,0.65383 17.97928,1 51.93785,1 h 51.93785 l -0.15173,-2.25 c -0.0835,-1.2375 -0.73462,-2.84878 -1.44704,-3.58062 -0.71242,-0.73184 -1.06337,-1.70591 -0.77989,-2.16459 0.28348,-0.45868 0.003,-1.00468 -0.62263,-1.21332 -0.62593,-0.20864 -1.26958,-2.60958 -1.43033,-5.33541 -0.16076,-2.72583 -0.51699,-6.30606 -0.79163,-7.95606 -0.27463,-1.65 -0.60412,-5.7 -0.73219,-9 -0.12807,-3.3 -0.66077,-6.28138 -1.18378,-6.62528 -0.52301,-0.34391 -1.01517,-2.40158 -1.0937,-4.5726 C 476.50404,225.46642 474.31241,222 472.02606,222 c -1.40206,0 -0.65597,-7.53608 0.936,-9.45429 1.52199,-1.83388 3.09771,-7.54571 2.08163,-7.54571 -0.74245,0 -1.30739,-2.08282 -2.41185,-8.89202 -0.2134,-1.3156 -1.15938,-2.8237 -2.1022,-3.35133 -1.34916,-0.75503 -1.56982,-1.72895 -1.03619,-4.57343 C 470.31346,183.8122 472.68844,179 474.02568,179 474.56156,179 475,178.4329 475,177.73978 c 0,-0.69312 1.10393,-2.45076 2.45318,-3.90586 1.34925,-1.45511 2.60303,-3.70051 2.78618,-4.98979 0.18315,-1.28927 1.5163,-4.82361 2.96256,-7.85409 2.30519,-4.83027 2.51878,-6.10292 1.73154,-10.31682 -0.49391,-2.64377 -1.08594,-5.11429 -1.31561,-5.49004 -0.42985,-0.70322 -1.89452,-19.72978 -2.03752,-26.46808 -0.0442,-2.08169 -0.57536,-4.10669 -1.18039,-4.5 -1.8721,-1.21698 -2.19221,-3.60489 -0.83317,-6.2151 0.71591,-1.375 1.57456,-3.77625 1.90811,-5.33612 0.33355,-1.55987 1.71315,-3.942823 3.06579,-5.295456 C 486.55194,95.35715 487,93.915342 487,89.454545 487,86.454545 487.36,84 487.8,84 c 0.44,0 0.8,-1.125 0.8,-2.5 0,-1.375 -0.31186,-2.5 -0.69301,-2.5 -1.56414,0 -1.85264,-3.433996 -0.46627,-5.549872 1.38757,-2.117697 1.3062,-2.385702 -1.22731,-4.0425 -4.28067,-2.799349 -5.21332,-4.066745 -5.21463,-7.086199 -6.7e-4,-1.551786 -1.07934,-4.075002 -2.39704,-5.607146 -2.93791,-3.416031 -2.51006,-5.47263 2.09696,-10.079651 2.62346,-2.62346 3.55548,-4.457487 3.71876,-7.317753 0.27994,-4.903905 0.78349,-6.57312 2.35872,-7.818986 0.70189,-0.555138 1.50205,-3.031766 1.77814,-5.503617 0.6998,-6.265631 2.17258,-9.510159 5.00502,-11.026033 C 495.99347,13.665537 499.6998,9 498.30055,9 497.89049,9 498.55512,8.2994832 499.77749,7.443296 500.99987,6.5871088 502,5.1846491 502,4.3267189 c 0,-1.1209401 0.69727,-1.4265808 2.47796,-1.0861807 1.7976,0.3436317 2.6398,-0.036212 3.06739,-1.3834229 C 508.15503,-0.06380645 511,-0.76965801 511,1 c 0,0.55 0.94213,1 2.09362,1 1.25262,0 2.30371,0.8033971 2.61663,2 0.28766,1.1 1.11339,2 1.83495,2 2.44991,0 4.14841,2.7274913 3.68113,5.91126 C 520.977,13.610067 520.37408,15 519.8865,15 519.37554,15 519,72.189436 519,150 V 285 H 283 47 Z m 333,-7.16226 c 0,-1.62953 -22.48219,-37.2487 -23.09096,-36.58366 C 355.59102,236.19392 338,269.82758 338,270.90775 338,271.66274 344.48429,272 359,272 c 11.55,0 21,-0.29802 21,-0.66226 z M 364.78212,148.44695 c 14.68575,-6.13459 17.79601,-25.70807 5.76377,-36.27251 C 365.72756,107.94388 363.14626,107 356.39506,107 c -18.18981,0 -27.94432,21.17258 -16.27615,35.32809 5.75562,6.98257 16.3207,9.60373 24.66321,6.11886 z"
       id="path1" />
  </g>
</svg>
