<?xml version="1.0" encoding="UTF-8" standalone="no"?>
<!-- Created with Inkscape (http://www.inkscape.org/) -->

<svg
   version="1.1"
   id="svg1"
   width="779"
   height="468"
   viewBox="0 0 779 468"
   sodipodi:docname="CG_YEP.svg"
   inkscape:version="1.3.2 (091e20e, 2023-11-25, custom)"
   xmlns:inkscape="http://www.inkscape.org/namespaces/inkscape"
   xmlns:sodipodi="http://sodipodi.sourceforge.net/DTD/sodipodi-0.dtd"
   xmlns="http://www.w3.org/2000/svg"
   xmlns:svg="http://www.w3.org/2000/svg">
  <defs
     id="defs1" />
  <sodipodi:namedview
     id="namedview1"
     pagecolor="#505050"
     bordercolor="#eeeeee"
     borderopacity="1"
     inkscape:showpageshadow="0"
     inkscape:pageopacity="0"
     inkscape:pagecheckerboard="0"
     inkscape:deskcolor="#505050"
     inkscape:zoom="0.43429487"
     inkscape:cx="72.531365"
     inkscape:cy="321.21033"
     inkscape:window-width="1280"
     inkscape:window-height="649"
     inkscape:window-x="-8"
     inkscape:window-y="-8"
     inkscape:window-maximized="1"
     inkscape:current-layer="g1" />
  <g
     inkscape:groupmode="layer"
     inkscape:label="Image"
     id="g1">
    <rect
       style="fill:#ffffff;stroke-width:0;stroke-linejoin:round;paint-order:markers fill stroke"
       id="rect1"
       width="778.26624"
       height="466.47131"
       x="0"
       y="0.81408596" />
    <path
       style="fill:#000000"
       d="M 59,451.5 V 441 h 328.55902 c 262.59871,0 328.40161,-0.25095 327.77496,-1.25 -0.43124,-0.6875 -0.65451,-2.0375 -0.49616,-3 0.17158,-1.04298 -0.34352,-1.75 -1.27496,-1.75 -1.35024,0 -2.12717,-2.42606 -1.68128,-5.25 0.0651,-0.4125 -0.34272,-0.75 -0.90633,-0.75 -1.90736,0 -2.9282,-4.66438 -1.72088,-7.86295 0.88548,-2.3459 0.85102,-3.57161 -0.15317,-5.44795 -1.30782,-2.44368 -1.5652,-4.22012 -2.53724,-17.51158 -0.29454,-4.02737 -0.78773,-7.73057 -1.09598,-8.22933 -0.30826,-0.49877 -0.10041,-1.76648 0.46188,-2.81714 0.82767,-1.54651 0.64605,-2.00869 -0.95375,-2.42705 -2.01327,-0.52648 -2.28223,-1.66633 -2.12772,-9.0173 0.0705,-3.3515 -0.29601,-3.97146 -3.02605,-5.11935 -2.04711,-0.86075 -2.63161,-1.49417 -1.71427,-1.85776 0.99233,-0.39331 0.88243,-0.57436 -0.38282,-0.63064 -2.37825,-0.1058 -4.05593,-4.59256 -2.67915,-7.16509 0.57551,-1.07536 0.76487,-2.4107 0.42079,-2.96744 -0.34408,-0.55673 0.31531,-2.60698 1.46532,-4.5561 1.15001,-1.94912 1.83417,-3.95931 1.52034,-4.46709 C 698.13873,348.41545 698.61008,348 699.5,348 c 0.88992,0 1.34212,-0.44644 1.00489,-0.99208 -0.33722,-0.54564 -0.18094,-1.76437 0.34729,-2.70827 0.67442,-1.20511 0.55509,-2.02641 -0.40071,-2.75792 -0.74863,-0.57295 -1.5361,-2.16673 -1.74995,-3.54173 -0.21384,-1.375 -0.87967,-3.68921 -1.47961,-5.14268 -0.59994,-1.45347 -0.84282,-3.59097 -0.53972,-4.75 0.41434,-1.58444 0.0879,-2.11112 -1.31556,-2.12263 C 693.79548,325.9718 693.73744,325.81593 695,325 c 1.27758,-0.82564 1.23684,-0.97164 -0.27475,-0.98469 -2.36701,-0.0204 -4.06296,-4.51577 -2.67915,-7.10145 0.57551,-1.07536 0.76487,-2.4107 0.42079,-2.96744 -0.34408,-0.55673 0.31531,-2.60698 1.46532,-4.5561 1.15001,-1.94912 1.83417,-3.95931 1.52034,-4.46709 C 695.13873,304.41545 695.41824,304 696.07369,304 697.60466,304 701,300.1038 701,298.34699 701,297.60615 701.49814,297 702.10699,297 c 0.60884,0 0.84797,-0.675 0.53138,-1.5 -0.35062,-0.91371 -0.002,-1.5 0.89301,-1.5 0.80774,0 1.46862,-0.45 1.46862,-1 0,-0.55 0.675,-1 1.5,-1 0.93876,0 1.54775,-1.02894 1.62762,-2.75 0.25329,-5.4578 0.62527,-7.48091 1.49111,-8.10986 0.4847,-0.35208 1.03875,-1.54014 1.23122,-2.64014 0.19247,-1.1 0.65287,-2.225 1.0231,-2.5 1.61858,-1.20225 4.15628,-6.14353 3.60949,-7.02825 C 715.15223,268.43729 715.28352,268 715.77432,268 c 0.49079,0 0.89235,-0.675 0.89235,-1.5 0,-0.825 -0.43425,-1.5 -0.96501,-1.5 -0.54478,0 -0.73677,-1.70158 -0.44088,-3.90756 0.28826,-2.14915 0.18885,-4.28665 -0.22091,-4.75 -0.92794,-1.04929 -2.88163,-9.14828 -2.8567,-11.84244 0.0102,-1.1 -0.24769,-5.375 -0.57305,-9.5 -0.32536,-4.125 -0.86161,-16.6291 -1.19167,-27.7869 -0.52493,-17.74508 -0.39559,-20.59904 1.03227,-22.77824 0.89782,-1.37024 1.36214,-2.92864 1.03182,-3.46311 C 712.15223,180.43729 712.58352,180 713.44098,180 714.29844,180 715,179.60248 715,179.11663 c 0,-0.48585 0.83917,-1.10281 1.86482,-1.37103 1.64436,-0.43001 1.83509,-1.39448 1.61344,-8.15864 -0.1538,-4.69341 0.1898,-8.13988 0.88518,-8.87898 C 719.98855,160.04359 720.5,158.375 720.5,157 c 0,-1.375 0.45,-2.83061 1,-3.23469 0.56279,-0.41347 0.22406,-0.74138 -0.77475,-0.75 -0.97611,-0.008 -2.20099,-1.1364 -2.72195,-2.50663 C 717.0418,147.97974 717.57571,145 718.99036,145 c 1.62968,0 1.85466,-4.12224 0.25841,-4.73478 -0.87779,-0.33684 -3.31786,-2.33431 -5.42238,-4.43883 L 710,132 v -14.34501 c 0,-13.15788 0.16843,-14.49744 2.03527,-16.18691 1.11939,-1.01304 1.80852,-2.432781 1.53138,-3.154984 C 713.28952,97.590893 713.68916,97 714.45474,97 c 1.17095,0 1.15804,-0.468921 -0.0813,-2.953187 -1.32517,-2.656369 -1.29705,-3.284541 0.27981,-6.25 0.96418,-1.813247 1.64191,-3.859313 1.50605,-4.546813 -0.13585,-0.6875 0.44772,-1.25 1.29683,-1.25 0.84911,0 1.57827,-0.3375 1.62035,-0.75 0.0421,-0.4125 0.30317,-1.65 0.58019,-2.75 0.49069,-1.948468 0.61831,-2.76319 1.70837,-10.906366 0.2876,-2.148502 1.03655,-4.223814 1.66433,-4.611804 0.62778,-0.38799 1.10299,-0.992625 1.05601,-1.343633 C 723.7513,59.1417 724.21373,58 725.55902,58 c 0.85746,0 1.2809,-0.45 0.94098,-1 -0.33992,-0.55 0.0835,-1 0.94098,-1 C 728.29844,56 729,55.55 729,55 c 0,-0.55 0.64436,-1 1.43191,-1 1.81,0 5.90503,-5.645805 5.07231,-6.993176 C 735.16198,46.453071 735.35852,46 735.94098,46 737.00063,46 741,42.442561 741,41.5 c 0,-0.275 0,-1.222266 0,-2.105035 0,-1.271851 0.83786,-1.525133 4.0362,-1.220123 3.52437,0.336103 4.10875,0.09581 4.6084,-1.894964 C 750.04069,34.70174 750.95294,34 752.60841,34 753.92378,34 755,34.441427 755,34.980948 c 0,0.539521 1.20751,1.284013 2.68335,1.654426 3.34835,0.840382 8.25556,3.350141 6.56665,3.358465 -2.56507,0.01264 -1.12605,1.891963 2.31938,3.02906 4.17366,1.377432 5.08258,3.247646 4.58976,9.444024 C 770.91689,55.512915 770.33957,57 769.39931,57 768.20484,57 768,86.643042 768,259.5 V 462 H 413.5 59 Z M 616.58944,278.68906 c -1.71266,-1.25233 -0.83533,-3.21992 13.71722,-30.76348 L 645.85356,218.5 645.2722,183.25 644.69083,148 l -25.09542,0.0153 c -13.80247,0.008 -25.54541,0.34592 -26.09541,0.75 -0.55,0.40408 -0.9556,2.08469 -0.90134,3.73469 0.16593,5.04515 8.65197,35.71566 12.11683,43.79301 1.40533,3.27613 1.43337,3.98085 0.20578,5.17136 -2.29004,2.22086 -8.71572,2.41686 -9.36464,0.28563 -8.16896,-26.82928 -11.54174,-40.52242 -18.1655,-73.75 -2.57654,-12.925 -5.12368,-24.0625 -5.66032,-24.75 -1.37137,-1.75691 -8.84651,-1.55769 -11.5083,0.3067 -1.5782,1.10541 -2.22251,2.5733 -2.22251,5.06336 0,3.34923 -0.14488,3.49259 -3.22729,3.1933 -6.15788,-0.59791 -14.09664,-16.32387 -9.19092,-18.206371 C 546.45177,93.273145 550.09046,93 553.66776,93 c 4.20035,0 11.34409,-1.251566 20.16821,-3.533422 C 589.96138,85.296661 602,83.891375 602,86.17895 602,89.868499 591.6434,96 585.41146,96 c -2.89305,0 -4.66236,0.490266 -5.00658,1.387294 -0.2928,0.763012 0.15339,4.700516 0.99153,8.749996 5.37126,25.95133 6.80727,31.4727 8.67708,33.36271 1.86276,1.8829 3.52872,2.01818 28.45256,2.31054 L 645,142.12108 l -0.005,-7.31054 c -0.003,-4.0208 -0.29556,-12.36089 -0.65124,-18.53355 l -0.6467,-11.22301 -5.59875,-1.6083 C 626.80528,100.20152 618.94914,93.337476 613.60762,82.047367 610.85425,76.227708 610.51115,74.499693 610.52071,66.5 c 0.009,-7.715292 0.40492,-9.846499 2.77216,-14.930134 5.55629,-11.932117 13.9148,-19.127324 25.73865,-22.156454 26.553,-6.802562 51.68975,16.39648 46.99251,43.370017 -2.83799,16.296901 -14.31545,28.076021 -30.70718,31.514221 L 650,105.41287 l 0.004,5.54356 c 0.002,3.04897 0.29667,11.28107 0.65432,18.29357 l 0.65026,12.75 h 28.26389 c 15.54514,0 28.9757,0.27314 29.84568,0.60699 1.87552,0.7197 2.12555,5.01843 0.33179,5.70429 -0.6875,0.26287 -14.26113,0.22711 -30.16363,-0.0795 l -28.91362,-0.5574 0.6918,34.87631 0.6918,34.87631 18.34019,30.02249 c 16.21323,26.54068 18.15251,30.16539 16.72183,31.25468 -0.8901,0.6777 -2.12288,1.24649 -2.73951,1.26399 -0.61662,0.0175 -8.67614,-12.34618 -17.91004,-27.47482 -9.2339,-15.12864 -17.0148,-27.28073 -17.29088,-27.00465 -0.27609,0.27609 -6.861,12.51054 -14.63315,27.18769 -7.77214,14.67714 -14.57993,26.83529 -15.12842,27.01812 -0.54848,0.18283 -1.8206,-0.26964 -2.82693,-1.00548 z M 661.71376,96.03648 c 6.09478,-2.632059 13.55117,-10.120491 16.32814,-16.398294 6.93416,-15.675823 -0.16,-34.638241 -15.83929,-42.337822 C 657.39966,34.941793 655.2379,34.5 648.5,34.5 c -6.7174,0 -8.90447,0.444175 -13.64151,2.770468 -6.61106,3.246606 -13.17153,9.968878 -16.15542,16.553862 -2.96402,6.541159 -2.96402,18.810181 0,25.35134 2.47898,5.470725 9.38912,13.297921 13.74506,15.569178 9.19678,4.795348 20.04391,5.274082 29.26563,1.291632 z"
       id="path1" />
  </g>
</svg>
