<svg width="1959" height="1196" stroke-linejoin="round" stroke-linecap="round" version="1.1" xmlns="http://www.w3.org/2000/svg">

 <defs>

  <style>
     .export_svg_global_model_material {
          stroke-width : 0.3499999940395355;
          stroke : rgb(255,255,255);
          stroke-opacity : 1.0;
          fill : rgb(128,128,128);
          fill-opacity : 1.0;
     }

     .export_svg_global_curve_material {
          stroke-width : 1.0;
          stroke : rgb(255,255,255);
          stroke-opacity : 1.0;
          fill : rgb(0,0,0);
          fill-opacity : 0.0;
     }

     .export_svg_global_text_material {
          stroke-width : 1.0;
          stroke : rgb(255,255,255);
          stroke-opacity : 1.0;
          fill : rgb(255,255,255);
          fill-opacity : 0.0;
          font-size : 12.0px;
     }

     .bl_matrenamed_0 {
          stroke-width : 1.0;
          stroke : rgb(0,0,0);
          stroke-opacity : 1.0;
          fill : rgb(7,231,0);
          fill-opacity : 1.0;
          font-size : 12.0px;
     }

     .polygon_bl_matrenamed_0 {
          stroke-width : 1.0;
          stroke : rgb(0,0,0);
          stroke-opacity : 1.0;
          font-size : 12.0px;
     }

     .bl_matrenamed_1 {
          stroke-width : 1.0;
          stroke : rgb(0,0,0);
          stroke-opacity : 1.0;
          fill : rgb(0,0,0);
          fill-opacity : 1.0;
          font-size : 12.0px;
     }

     .polygon_bl_matrenamed_1 {
          stroke-width : 1.0;
          stroke : rgb(0,0,0);
          stroke-opacity : 1.0;
          font-size : 12.0px;
     }

     .bl_matrenamed_2 {
          stroke-width : 1.0;
          stroke : rgb(0,0,0);
          stroke-opacity : 1.0;
          fill : rgb(0,0,0);
          fill-opacity : 1.0;
          font-size : 12.0px;
     }

     .polygon_bl_matrenamed_2 {
          stroke-width : 1.0;
          stroke : rgb(0,0,0);
          stroke-opacity : 1.0;
          font-size : 12.0px;
     }

     .bl_matrenamed_3 {
          stroke-width : 1.0;
          stroke : rgb(0,0,0);
          stroke-opacity : 1.0;
          fill : rgb(0,0,0);
          fill-opacity : 1.0;
          font-size : 12.0px;
     }

     .polygon_bl_matrenamed_3 {
          stroke-width : 1.0;
          stroke : rgb(0,0,0);
          stroke-opacity : 1.0;
          font-size : 12.0px;
     }

     .bl_matrenamed_4 {
          stroke-width : 1.0;
          stroke : rgb(0,0,0);
          stroke-opacity : 1.0;
          fill : rgb(63,63,206);
          fill-opacity : 1.0;
          font-size : 12.0px;
     }

     .polygon_bl_matrenamed_4 {
          stroke-width : 1.0;
          stroke : rgb(0,0,0);
          stroke-opacity : 1.0;
          font-size : 12.0px;
     }

     .bl_matrenamed_5 {
          stroke-width : 1.0;
          stroke : rgb(0,0,0);
          stroke-opacity : 1.0;
          fill : rgb(0,0,0);
          fill-opacity : 1.0;
          font-size : 12.0px;
     }

     .polygon_bl_matrenamed_5 {
          stroke-width : 1.0;
          stroke : rgb(0,0,0);
          stroke-opacity : 1.0;
          font-size : 12.0px;
     }

     .bl_matrenamed_6 {
          stroke-width : 1.0;
          stroke : rgb(0,0,0);
          stroke-opacity : 1.0;
          fill : rgb(231,61,216);
          fill-opacity : 1.0;
          font-size : 12.0px;
     }

     .polygon_bl_matrenamed_6 {
          stroke-width : 1.0;
          stroke : rgb(0,0,0);
          stroke-opacity : 1.0;
          font-size : 12.0px;
     }

     .bl_matrenamed_7 {
          stroke-width : 1.0;
          stroke : rgb(0,0,0);
          stroke-opacity : 1.0;
          fill : rgb(0,0,0);
          fill-opacity : 1.0;
          font-size : 12.0px;
     }

     .polygon_bl_matrenamed_7 {
          stroke-width : 1.0;
          stroke : rgb(0,0,0);
          stroke-opacity : 1.0;
          font-size : 12.0px;
     }

     .bl_matrenamed_8 {
          stroke-width : 1.0;
          stroke : rgb(0,0,0);
          stroke-opacity : 1.0;
          fill : rgb(0,0,0);
          fill-opacity : 1.0;
          font-size : 12.0px;
     }

     .polygon_bl_matrenamed_8 {
          stroke-width : 1.0;
          stroke : rgb(0,0,0);
          stroke-opacity : 1.0;
          font-size : 12.0px;
     }

     .bl_matrenamed_9 {
          stroke-width : 1.0;
          stroke : rgb(0,0,0);
          stroke-opacity : 1.0;
          fill : rgb(231,83,94);
          fill-opacity : 1.0;
          font-size : 12.0px;
     }

     .polygon_bl_matrenamed_9 {
          stroke-width : 1.0;
          stroke : rgb(0,0,0);
          stroke-opacity : 1.0;
          font-size : 12.0px;
     }

     .bl_matrenamed_10 {
          stroke-width : 1.0;
          stroke : rgb(0,0,0);
          stroke-opacity : 1.0;
          fill : rgb(231,112,218);
          fill-opacity : 1.0;
          font-size : 12.0px;
     }

     .polygon_bl_matrenamed_10 {
          stroke-width : 1.0;
          stroke : rgb(0,0,0);
          stroke-opacity : 1.0;
          font-size : 12.0px;
     }

     .bl_matrenamed_11 {
          stroke-width : 1.0;
          stroke : rgb(0,0,0);
          stroke-opacity : 1.0;
          fill : rgb(231,220,17);
          fill-opacity : 1.0;
          font-size : 12.0px;
     }

     .polygon_bl_matrenamed_11 {
          stroke-width : 1.0;
          stroke : rgb(0,0,0);
          stroke-opacity : 1.0;
          font-size : 12.0px;
     }

     .bl_mat_Material {
          stroke-width : 1.0;
          stroke : rgb(0,0,0);
          stroke-opacity : 1.0;
          fill : rgb(204,0,0);
          fill-opacity : 1.0;
          font-size : 12.0px;
     }

     .polygon_bl_mat_Material {
          stroke-width : 1.0;
          stroke : rgb(0,0,0);
          stroke-opacity : 1.0;
          fill : rgb(204,0,0);
          fill-opacity : 1.0;
          font-size : 12.0px;
     }

     .bl_matrenamed_12 {
          stroke-width : 1.0;
          stroke : rgb(0,0,0);
          stroke-opacity : 1.0;
          fill : rgb(0,0,0);
          fill-opacity : 1.0;
          font-size : 12.0px;
     }

     .polygon_bl_matrenamed_12 {
          stroke-width : 1.0;
          stroke : rgb(0,0,0);
          stroke-opacity : 1.0;
          font-size : 12.0px;
     }

     .bl_matrenamed_13 {
          stroke-width : 1.0;
          stroke : rgb(0,0,0);
          stroke-opacity : 1.0;
          fill : rgb(116,118,231);
          fill-opacity : 1.0;
          font-size : 12.0px;
     }

     .polygon_bl_matrenamed_13 {
          stroke-width : 1.0;
          stroke : rgb(0,0,0);
          stroke-opacity : 1.0;
          font-size : 12.0px;
     }

     .bl_matrenamed_14 {
          stroke-width : 1.0;
          stroke : rgb(0,0,0);
          stroke-opacity : 1.0;
          fill : rgb(0,0,0);
          fill-opacity : 1.0;
          font-size : 12.0px;
     }

     .polygon_bl_matrenamed_14 {
          stroke-width : 1.0;
          stroke : rgb(0,0,0);
          stroke-opacity : 1.0;
          font-size : 12.0px;
     }

     .bl_matrenamed_15 {
          stroke-width : 1.0;
          stroke : rgb(0,0,0);
          stroke-opacity : 1.0;
          fill : rgb(0,0,0);
          fill-opacity : 1.0;
          font-size : 12.0px;
     }

     .polygon_bl_matrenamed_15 {
          stroke-width : 1.0;
          stroke : rgb(0,0,0);
          stroke-opacity : 1.0;
          font-size : 12.0px;
     }

     .bl_matrenamed_16 {
          stroke-width : 1.0;
          stroke : rgb(0,0,0);
          stroke-opacity : 1.0;
          fill : rgb(116,118,231);
          fill-opacity : 1.0;
          font-size : 12.0px;
     }

     .polygon_bl_matrenamed_16 {
          stroke-width : 1.0;
          stroke : rgb(0,0,0);
          stroke-opacity : 1.0;
          font-size : 12.0px;
     }

     .bl_matrenamed_17 {
          stroke-width : 1.0;
          stroke : rgb(0,0,0);
          stroke-opacity : 1.0;
          fill : rgb(0,0,0);
          fill-opacity : 1.0;
          font-size : 12.0px;
     }

     .polygon_bl_matrenamed_17 {
          stroke-width : 1.0;
          stroke : rgb(0,0,0);
          stroke-opacity : 1.0;
          font-size : 12.0px;
     }

  </style>
 </defs>



 <g id="scene">
   <polygon points="997.3,408.4 997.9,313.4 998.5,313.3 997.8,408.3 "  class="polygon_bl_mat_Material" />
   <polygon points="983.7,463.4 983.9,393.6 984.5,393.5 984.4,463.2 " fill="rgb(231,83,94)" class="polygon_bl_matrenamed_9" />
   <polygon points="997.8,408.3 1422.0,608.9 1421.4,609.1 997.3,408.4 "  class="polygon_bl_mat_Material" />
   <polygon points="997.8,408.3 998.5,313.3 1443.3,485.8 1422.0,608.9 "  class="polygon_bl_mat_Material" />
   <polygon points="1421.4,609.1 1442.7,486.1 997.9,313.4 997.3,408.4 "  class="polygon_bl_mat_Material" />
   <polygon points="1443.3,485.8 998.5,313.3 997.9,313.4 1442.7,486.1 "  class="polygon_bl_mat_Material" />
  <g class="bl_matrenamed_17" >
   <path d="M 1103.8,396.3 C 1106.0,397.3 1108.2,398.2 1110.5,399.2 C 1115.4,401.3 1117.7,397.8 1118.0,394.2 C 1118.4,390.3 1116.8,386.6 1113.9,384.6 C 1113.9,384.5 1114.0,384.5 1114.0,384.5 C 1116.1,384.1 1117.3,382.5 1117.6,379.4 C 1117.9,375.7 1116.4,371.1 1112.1,369.4 C 1110.2,368.6 1108.3,367.9 1106.4,367.1 C 1105.5,376.9 1104.6,386.7 1103.8,396.3  M 1108.9,372.0 C 1109.8,372.4 1110.6,372.7 1111.5,373.1 C 1114.1,374.1 1114.8,376.4 1114.6,378.6 C 1114.3,381.8 1112.8,382.8 1110.0,381.6 C 1109.3,381.4 1108.7,381.1 1108.1,380.8 C 1108.4,377.9 1108.6,375.0 1108.9,372.0  M 1107.7,384.6 C 1108.9,385.1 1110.0,385.6 1111.2,386.0 C 1114.2,387.3 1115.4,389.7 1115.1,392.4 C 1114.9,394.6 1113.8,396.7 1110.5,395.3 C 1109.3,394.8 1108.1,394.3 1106.9,393.8 C 1107.2,390.7 1107.5,387.7 1107.7,384.6  M 1130.3,403.9 C 1129.7,404.3 1129.1,404.5 1128.8,404.4 C 1128.5,404.3 1128.4,403.9 1128.4,403.2 C 1128.8,399.9 1129.1,396.5 1129.4,393.2 C 1129.8,388.7 1127.9,385.8 1125.2,384.7 C 1123.3,384.0 1121.7,384.2 1120.5,385.6 C 1120.4,387.0 1120.2,388.4 1120.1,389.8 C 1121.6,388.1 1123.2,387.7 1124.6,388.3 C 1126.2,389.0 1126.9,390.3 1126.7,392.7 C 1126.7,393.1 1126.6,393.4 1126.6,393.8 C 1125.8,393.9 1124.9,393.9 1124.1,394.0 C 1121.9,394.3 1119.4,394.4 1119.0,398.3 C 1118.8,400.8 1119.9,403.5 1121.8,404.4 C 1123.0,404.9 1124.3,404.7 1125.6,403.9 C 1125.7,405.4 1126.2,406.2 1127.4,406.7 C 1128.2,407.1 1128.8,406.9 1130.1,406.3 C 1130.2,405.5 1130.3,404.7 1130.3,403.9  M 1125.8,401.6 C 1125.0,402.3 1124.2,402.5 1123.4,402.2 C 1122.3,401.7 1121.6,400.3 1121.7,398.7 C 1122.0,396.4 1124.0,396.1 1126.4,395.9 C 1126.2,397.8 1126.0,399.7 1125.8,401.6  M 1144.2,393.9 C 1143.0,392.5 1142.0,391.6 1140.4,390.9 C 1136.3,389.2 1133.3,392.3 1132.6,398.8 C 1132.1,404.5 1134.5,409.7 1138.5,411.4 C 1139.9,412.0 1141.7,412.2 1142.7,412.0 C 1142.8,410.7 1142.9,409.4 1143.1,408.2 C 1141.6,408.5 1140.5,408.4 1139.3,407.9 C 1136.5,406.8 1135.0,403.6 1135.4,399.5 C 1135.8,395.6 1137.8,393.6 1140.2,394.6 C 1141.4,395.1 1142.4,395.9 1143.8,398.1 C 1143.9,396.7 1144.1,395.3 1144.2,393.9  M 1160.0,399.3 C 1158.9,398.8 1157.8,398.4 1156.7,397.9 C 1154.3,400.3 1151.8,402.7 1149.5,405.1 C 1151.4,409.5 1153.4,413.8 1155.3,418.1 C 1156.6,418.6 1157.8,419.2 1159.1,419.7 C 1157.0,415.3 1155.0,410.9 1152.9,406.6 C 1155.3,404.2 1157.6,401.7 1160.0,399.3  M 1151.4,385.0 C 1150.5,384.6 1149.6,384.3 1148.7,383.9 C 1147.6,394.0 1146.6,404.0 1145.6,414.0 C 1146.5,414.4 1147.4,414.7 1148.3,415.1 C 1149.3,405.2 1150.4,395.1 1151.4,385.0  M 1173.9,404.9 C 1172.0,404.1 1170.0,403.3 1168.0,402.5 C 1164.2,401.0 1161.6,402.7 1161.1,406.9 C 1160.9,408.4 1161.0,409.7 1161.4,411.0 C 1161.8,412.3 1162.5,413.4 1163.5,414.5 C 1163.5,414.5 1163.5,414.5 1163.5,414.6 C 1162.1,414.4 1161.1,415.2 1161.0,416.5 C 1160.9,417.4 1161.2,418.3 1162.1,419.6 C 1159.6,419.4 1158.3,420.6 1158.0,423.5 C 1157.6,427.0 1160.0,430.6 1163.8,432.3 C 1168.0,434.1 1170.7,432.8 1171.2,428.8 C 1171.5,426.3 1170.6,423.7 1167.7,421.6 C 1164.9,419.6 1163.5,418.3 1163.6,417.2 C 1163.9,414.8 1167.6,417.9 1169.8,415.8 C 1170.6,415.1 1171.5,413.5 1171.7,411.8 C 1171.9,410.1 1171.6,408.9 1170.7,406.8 C 1171.6,407.2 1172.6,407.6 1173.6,408.0 C 1173.7,407.0 1173.8,406.0 1173.9,404.9  M 1169.2,410.3 C 1168.9,412.5 1167.6,413.6 1166.0,412.9 C 1164.3,412.2 1163.3,410.3 1163.6,408.1 C 1163.8,406.1 1165.2,405.0 1166.8,405.6 C 1168.3,406.3 1169.4,408.4 1169.2,410.3  M 1168.4,428.0 C 1168.2,429.8 1166.6,430.2 1164.2,429.2 C 1161.6,428.1 1160.4,426.5 1160.6,424.5 C 1160.8,422.7 1162.3,422.0 1164.1,422.8 C 1165.9,423.6 1168.7,425.5 1168.4,428.0  M 1176.4,405.9 C 1175.6,412.7 1174.8,419.3 1174.1,426.0 C 1175.0,426.4 1176.0,426.8 1176.9,427.2 C 1177.3,423.7 1177.7,420.2 1178.1,416.7 C 1178.5,413.3 1180.4,411.2 1182.4,412.0 C 1183.0,412.2 1184.1,413.5 1184.8,415.1 C 1185.5,414.1 1186.1,413.2 1186.8,412.2 C 1185.8,410.1 1184.7,408.9 1183.6,408.4 C 1182.2,407.9 1180.6,408.8 1178.8,411.8 C 1178.7,411.8 1178.7,411.7 1178.7,411.7 C 1178.9,410.2 1179.1,408.6 1179.2,407.1 C 1178.3,406.7 1177.3,406.3 1176.4,405.9  M 1196.0,413.5 C 1191.6,411.7 1187.7,414.8 1187.0,420.7 C 1186.2,426.9 1188.9,432.7 1193.5,434.6 C 1198.2,436.6 1202.0,433.7 1202.8,427.2 C 1203.6,421.2 1200.7,415.4 1196.0,413.5  M 1195.5,417.1 C 1198.5,418.3 1200.3,422.1 1199.8,426.0 C 1199.3,430.4 1197.0,432.3 1193.9,431.0 C 1191.0,429.8 1189.4,426.2 1190.0,421.9 C 1190.4,418.0 1192.8,416.0 1195.5,417.1  M 1217.5,444.3 C 1218.4,437.5 1219.3,430.6 1220.2,423.7 C 1219.1,423.3 1218.1,422.9 1217.1,422.5 C 1216.5,427.4 1215.8,432.3 1215.2,437.2 C 1214.0,438.7 1212.6,439.2 1211.2,438.6 C 1209.2,437.7 1208.3,435.6 1208.7,432.8 C 1209.2,428.4 1209.8,424.1 1210.3,419.7 C 1209.3,419.3 1208.3,418.9 1207.3,418.5 C 1206.8,422.8 1206.2,427.0 1205.7,431.3 C 1205.1,436.4 1206.8,440.3 1209.9,441.6 C 1211.4,442.2 1213.3,441.8 1214.8,440.5 C 1214.7,441.3 1214.6,442.2 1214.5,443.1 C 1215.5,443.5 1216.5,443.9 1217.5,444.3  M 1227.5,426.7 C 1226.5,426.3 1225.5,425.9 1224.4,425.4 C 1223.5,432.4 1222.6,439.3 1221.7,446.1 C 1222.7,446.6 1223.8,447.0 1224.8,447.4 C 1225.4,442.5 1226.1,437.6 1226.8,432.6 C 1228.5,431.0 1229.7,430.6 1231.1,431.2 C 1232.9,431.9 1233.9,434.4 1233.5,437.5 C 1232.9,441.8 1232.3,446.1 1231.7,450.4 C 1232.8,450.8 1233.8,451.2 1234.8,451.7 C 1235.4,447.4 1236.0,443.1 1236.6,438.8 C 1237.3,433.1 1235.3,429.4 1232.3,428.2 C 1230.6,427.5 1228.7,428.0 1227.2,429.5 C 1227.2,429.5 1227.2,429.5 1227.2,429.4 C 1227.3,428.5 1227.4,427.6 1227.5,426.7  M 1257.6,427.2 C 1256.5,426.8 1255.4,426.3 1254.3,425.9 C 1253.8,429.7 1253.2,433.6 1252.7,437.4 C 1251.5,436.2 1250.5,435.6 1249.4,435.1 C 1244.7,433.2 1240.8,436.3 1240.0,442.3 C 1239.1,449.0 1241.5,454.5 1246.2,456.5 C 1248.5,457.4 1250.7,458.4 1253.0,459.3 C 1254.5,448.7 1256.0,438.0 1257.6,427.2  M 1250.3,454.5 C 1249.2,454.0 1248.1,453.6 1247.1,453.1 C 1243.4,451.6 1242.6,448.2 1243.1,444.3 C 1243.8,439.9 1246.2,437.8 1249.3,439.1 C 1250.4,439.5 1251.2,440.1 1252.2,441.1 C 1251.5,445.6 1250.9,450.0 1250.3,454.5  M 1281.0,436.5 C 1278.2,434.3 1276.2,434.4 1274.5,435.7 C 1272.9,436.9 1271.8,438.6 1271.2,442.8 C 1271.1,443.3 1271.1,443.8 1271.0,444.3 C 1270.2,444.0 1269.4,443.7 1268.6,443.4 C 1268.5,444.7 1268.3,445.9 1268.1,447.2 C 1268.9,447.5 1269.6,447.8 1270.4,448.2 C 1269.5,454.0 1268.7,459.8 1267.8,465.6 C 1268.9,466.1 1270.0,466.5 1271.1,467.0 C 1272.0,461.2 1272.8,455.4 1273.7,449.5 C 1274.7,449.9 1275.7,450.3 1276.7,450.7 C 1276.9,449.5 1277.1,448.2 1277.3,446.9 C 1276.3,446.5 1275.3,446.1 1274.3,445.7 C 1274.4,445.0 1274.5,444.3 1274.6,443.6 C 1275.1,440.3 1276.2,438.6 1278.9,439.7 C 1279.5,440.0 1279.9,440.2 1280.4,440.7 C 1280.6,439.3 1280.8,437.9 1281.0,436.5  M 1290.4,471.1 C 1289.5,471.5 1288.8,471.6 1288.4,471.5 C 1288.0,471.3 1287.8,470.9 1288.0,470.1 C 1288.5,466.4 1289.1,462.7 1289.7,459.0 C 1290.4,454.1 1288.0,450.8 1284.6,449.4 C 1282.1,448.4 1280.1,448.6 1278.5,450.1 C 1278.3,451.6 1278.1,453.1 1277.8,454.7 C 1279.8,452.9 1281.9,452.6 1283.7,453.3 C 1285.7,454.2 1286.6,455.7 1286.2,458.4 C 1286.1,458.8 1286.1,459.1 1286.0,459.5 C 1284.9,459.6 1283.9,459.6 1282.8,459.6 C 1279.9,459.8 1276.7,459.8 1276.1,464.0 C 1275.7,466.8 1276.9,469.9 1279.4,470.9 C 1280.9,471.6 1282.6,471.5 1284.3,470.7 C 1284.3,472.3 1285.0,473.3 1286.5,473.9 C 1287.5,474.4 1288.2,474.3 1290.0,473.6 C 1290.1,472.8 1290.3,471.9 1290.4,471.1  M 1284.7,468.1 C 1283.6,468.8 1282.5,469.1 1281.5,468.6 C 1280.1,468.1 1279.3,466.4 1279.6,464.7 C 1279.9,462.1 1282.6,461.9 1285.7,461.9 C 1285.3,464.0 1285.0,466.0 1284.7,468.1  M 1296.4,454.7 C 1295.3,461.9 1294.1,469.1 1293.0,476.2 C 1294.2,476.7 1295.3,477.2 1296.4,477.7 C 1297.0,473.9 1297.6,470.2 1298.2,466.4 C 1298.8,462.7 1301.1,460.5 1303.5,461.5 C 1304.3,461.8 1305.5,463.2 1306.4,464.9 C 1307.2,463.9 1308.0,462.9 1308.8,461.9 C 1307.6,459.6 1306.4,458.3 1305.0,457.7 C 1303.4,457.0 1301.5,458.0 1299.1,461.1 C 1299.1,461.1 1299.1,461.1 1299.1,461.0 C 1299.3,459.4 1299.6,457.7 1299.8,456.1 C 1298.7,455.6 1297.6,455.1 1296.4,454.7  " />
  </g>
   <polygon points="794.3,494.7 792.6,470.8 793.4,470.6 795.0,494.5 " fill="rgb(7,231,0)" class="polygon_bl_matrenamed_0" />
   <polygon points="984.4,463.2 1170.7,561.7 1170.1,561.9 983.7,463.4 " fill="rgb(231,83,94)" class="polygon_bl_matrenamed_9" />
   <polygon points="931.6,495.3 930.6,439.4 931.3,439.3 932.3,495.1 " fill="rgb(63,63,206)" class="polygon_bl_matrenamed_4" />
   <polygon points="843.7,494.2 841.3,447.1 841.2,447.1 843.6,494.2 " fill="rgb(116,118,231)" class="polygon_bl_matrenamed_16" />
   <polygon points="843.7,494.2 841.3,447.1 841.2,447.1 843.6,494.2 " fill="rgb(116,118,231)" class="polygon_bl_matrenamed_13" />
   <polygon points="984.4,463.2 984.5,393.5 1176.5,482.8 1170.7,561.7 " fill="rgb(231,83,94)" class="polygon_bl_matrenamed_9" />
   <polygon points="1170.1,561.9 1175.8,483.0 983.9,393.6 983.7,463.4 " fill="rgb(255,135,153)" class="polygon_bl_matrenamed_9" />
   <polygon points="1176.5,482.8 984.5,393.5 983.9,393.6 1175.8,483.0 " fill="rgb(255,115,130)" class="polygon_bl_matrenamed_9" />
   <polygon points="554.8,551.7 533.4,419.9 534.3,419.7 555.6,551.4 " fill="rgb(231,61,216)" class="polygon_bl_matrenamed_6" />
   <polygon points="932.3,495.1 1042.4,559.4 1041.7,559.7 931.6,495.3 " fill="rgb(63,63,206)" class="polygon_bl_matrenamed_4" />
   <polygon points="932.3,495.1 931.3,439.3 1043.8,499.1 1042.4,559.4 " fill="rgb(63,63,206)" class="polygon_bl_matrenamed_4" />
   <polygon points="1041.7,559.7 1043.1,499.3 930.6,439.4 931.6,495.3 " fill="rgb(98,98,255)" class="polygon_bl_matrenamed_4" />
  <g class="bl_matrenamed_1" >
   <path d="M 1005.1,441.7 C 1006.4,442.4 1007.8,443.1 1009.2,443.7 C 1012.2,445.3 1013.5,443.1 1013.6,440.7 C 1013.8,438.1 1012.8,435.7 1011.0,434.3 C 1011.0,434.3 1011.0,434.3 1011.0,434.2 C 1012.3,434.0 1013.0,433.0 1013.1,431.0 C 1013.2,428.6 1012.3,425.6 1009.7,424.3 C 1008.5,423.8 1007.3,423.2 1006.2,422.6 C 1005.8,429.0 1005.4,435.4 1005.1,441.7  M 1007.8,425.9 C 1008.3,426.2 1008.8,426.5 1009.3,426.7 C 1010.9,427.5 1011.4,429.0 1011.3,430.4 C 1011.2,432.5 1010.3,433.1 1008.6,432.2 C 1008.2,432.0 1007.8,431.9 1007.4,431.7 C 1007.5,429.8 1007.7,427.9 1007.8,425.9  M 1007.3,434.1 C 1008.0,434.5 1008.7,434.8 1009.4,435.2 C 1011.2,436.0 1012.0,437.7 1011.8,439.4 C 1011.8,440.9 1011.1,442.2 1009.1,441.2 C 1008.4,440.8 1007.7,440.5 1006.9,440.1 C 1007.1,438.1 1007.2,436.1 1007.3,434.1  M 1021.1,447.4 C 1020.7,447.6 1020.4,447.7 1020.2,447.6 C 1020.0,447.6 1019.9,447.3 1020.0,446.9 C 1020.1,444.7 1020.2,442.5 1020.4,440.3 C 1020.6,437.5 1019.4,435.5 1017.7,434.7 C 1016.6,434.2 1015.7,434.3 1015.0,435.2 C 1014.9,436.1 1014.8,437.0 1014.8,437.9 C 1015.6,436.8 1016.6,436.6 1017.5,437.0 C 1018.4,437.5 1018.9,438.4 1018.8,440.0 C 1018.7,440.2 1018.7,440.4 1018.7,440.7 C 1018.2,440.7 1017.7,440.7 1017.3,440.8 C 1015.9,440.8 1014.4,440.9 1014.3,443.4 C 1014.2,445.0 1014.9,446.9 1016.1,447.4 C 1016.8,447.8 1017.5,447.8 1018.3,447.2 C 1018.4,448.2 1018.7,448.8 1019.4,449.1 C 1019.9,449.4 1020.2,449.3 1021.0,448.9 C 1021.1,448.4 1021.1,447.9 1021.1,447.4  M 1018.4,445.7 C 1017.9,446.2 1017.4,446.3 1016.9,446.1 C 1016.3,445.7 1015.9,444.8 1015.9,443.7 C 1016.0,442.2 1017.2,442.1 1018.6,442.0 C 1018.6,443.3 1018.5,444.5 1018.4,445.7  M 1029.2,441.2 C 1028.4,440.3 1027.8,439.6 1026.9,439.2 C 1024.4,438.0 1022.7,439.9 1022.4,444.1 C 1022.2,447.8 1023.7,451.3 1026.1,452.5 C 1027.0,452.9 1028.0,453.1 1028.6,452.9 C 1028.6,452.1 1028.7,451.3 1028.7,450.5 C 1027.9,450.6 1027.2,450.6 1026.5,450.2 C 1024.9,449.4 1023.9,447.3 1024.1,444.7 C 1024.2,442.1 1025.3,440.8 1026.8,441.6 C 1027.5,441.9 1028.1,442.5 1029.0,443.9 C 1029.0,443.0 1029.1,442.1 1029.2,441.2  M 1038.5,445.1 C 1037.8,444.8 1037.2,444.5 1036.5,444.2 C 1035.2,445.7 1033.8,447.2 1032.4,448.7 C 1033.7,451.5 1034.9,454.4 1036.1,457.2 C 1036.9,457.6 1037.6,457.9 1038.4,458.3 C 1037.1,455.4 1035.8,452.6 1034.5,449.7 C 1035.8,448.2 1037.2,446.7 1038.5,445.1  M 1033.2,435.7 C 1032.7,435.4 1032.2,435.2 1031.6,434.9 C 1031.2,441.4 1030.7,447.9 1030.3,454.3 C 1030.9,454.6 1031.4,454.8 1031.9,455.1 C 1032.4,448.7 1032.8,442.2 1033.2,435.7  M 1046.7,449.1 C 1045.6,448.6 1044.4,448.0 1043.3,447.5 C 1041.0,446.4 1039.5,447.4 1039.3,450.1 C 1039.2,451.1 1039.3,451.9 1039.6,452.7 C 1039.8,453.6 1040.3,454.3 1040.8,455.0 C 1040.8,455.1 1040.8,455.1 1040.8,455.1 C 1040.0,455.0 1039.5,455.4 1039.4,456.3 C 1039.4,456.8 1039.6,457.5 1040.1,458.3 C 1038.6,458.1 1037.9,458.9 1037.8,460.8 C 1037.6,463.0 1039.1,465.4 1041.3,466.6 C 1043.8,467.8 1045.4,467.0 1045.6,464.5 C 1045.7,462.9 1045.2,461.2 1043.4,459.7 C 1041.8,458.4 1040.9,457.5 1041.0,456.8 C 1041.1,455.3 1043.3,457.3 1044.5,456.0 C 1045.0,455.6 1045.5,454.6 1045.5,453.5 C 1045.6,452.4 1045.4,451.6 1044.9,450.3 C 1045.4,450.6 1046.0,450.9 1046.6,451.1 C 1046.6,450.5 1046.7,449.8 1046.7,449.1  M 1044.1,452.5 C 1044.0,453.9 1043.2,454.6 1042.3,454.1 C 1041.3,453.6 1040.7,452.3 1040.8,450.9 C 1040.9,449.7 1041.7,449.0 1042.6,449.4 C 1043.5,449.9 1044.1,451.3 1044.1,452.5  M 1044.0,463.9 C 1043.9,465.1 1043.0,465.3 1041.5,464.6 C 1040.0,463.8 1039.3,462.7 1039.3,461.5 C 1039.4,460.3 1040.3,459.9 1041.4,460.5 C 1042.4,461.0 1044.1,462.3 1044.0,463.9  M 1048.1,449.8 C 1047.8,454.2 1047.5,458.5 1047.2,462.7 C 1047.8,463.0 1048.3,463.3 1048.9,463.6 C 1049.0,461.3 1049.2,459.1 1049.4,456.8 C 1049.5,454.6 1050.6,453.3 1051.7,453.9 C 1052.1,454.1 1052.8,454.9 1053.2,455.9 C 1053.6,455.3 1053.9,454.7 1054.3,454.1 C 1053.6,452.8 1053.0,452.0 1052.3,451.6 C 1051.5,451.2 1050.7,451.8 1049.6,453.7 C 1049.6,453.6 1049.6,453.6 1049.6,453.6 C 1049.7,452.6 1049.7,451.7 1049.8,450.7 C 1049.3,450.4 1048.7,450.1 1048.1,449.8  M 1059.6,455.2 C 1057.0,453.9 1054.8,455.8 1054.6,459.6 C 1054.3,463.5 1055.9,467.4 1058.6,468.7 C 1061.3,470.1 1063.4,468.2 1063.8,464.1 C 1064.1,460.2 1062.3,456.5 1059.6,455.2  M 1059.4,457.5 C 1061.1,458.3 1062.2,460.7 1062.0,463.3 C 1061.8,466.1 1060.5,467.3 1058.7,466.4 C 1057.1,465.5 1056.1,463.2 1056.3,460.4 C 1056.5,457.9 1057.8,456.7 1059.4,457.5  M 1072.4,475.3 C 1072.8,471.0 1073.2,466.6 1073.5,462.2 C 1072.9,461.9 1072.3,461.6 1071.8,461.4 C 1071.5,464.5 1071.3,467.6 1071.0,470.7 C 1070.3,471.7 1069.5,471.9 1068.8,471.5 C 1067.6,471.0 1067.1,469.6 1067.2,467.8 C 1067.4,465.0 1067.6,462.2 1067.9,459.5 C 1067.3,459.2 1066.7,458.9 1066.1,458.6 C 1065.9,461.3 1065.7,464.0 1065.5,466.7 C 1065.2,470.1 1066.3,472.6 1068.1,473.4 C 1068.9,473.9 1070.0,473.6 1070.8,472.8 C 1070.8,473.4 1070.7,473.9 1070.7,474.5 C 1071.3,474.8 1071.9,475.0 1072.4,475.3  M 1077.7,464.3 C 1077.1,464.0 1076.5,463.7 1076.0,463.4 C 1075.6,467.8 1075.2,472.2 1074.9,476.6 C 1075.5,476.8 1076.0,477.1 1076.6,477.4 C 1076.9,474.3 1077.1,471.2 1077.4,468.0 C 1078.4,467.0 1079.0,466.8 1079.8,467.2 C 1080.9,467.7 1081.4,469.3 1081.3,471.3 C 1081.0,474.0 1080.8,476.7 1080.6,479.4 C 1081.2,479.7 1081.8,480.0 1082.4,480.3 C 1082.6,477.6 1082.8,474.9 1083.0,472.2 C 1083.4,468.5 1082.1,466.2 1080.4,465.3 C 1079.4,464.8 1078.4,465.1 1077.6,466.0 C 1077.6,466.0 1077.6,466.0 1077.6,466.0 C 1077.6,465.4 1077.7,464.9 1077.7,464.3  M 1094.4,465.2 C 1093.8,464.9 1093.2,464.6 1092.6,464.3 C 1092.4,466.7 1092.2,469.1 1092.0,471.5 C 1091.3,470.8 1090.7,470.3 1090.1,470.0 C 1087.5,468.8 1085.4,470.6 1085.0,474.4 C 1084.7,478.7 1086.1,482.2 1088.8,483.5 C 1090.1,484.2 1091.4,484.8 1092.6,485.4 C 1093.2,478.7 1093.8,472.0 1094.4,465.2  M 1091.0,482.3 C 1090.4,482.0 1089.8,481.7 1089.2,481.4 C 1087.1,480.4 1086.6,478.2 1086.8,475.7 C 1087.1,472.9 1088.4,471.7 1090.1,472.5 C 1090.7,472.8 1091.2,473.2 1091.8,473.9 C 1091.5,476.7 1091.3,479.5 1091.0,482.3  M 1108.8,480.1 C 1108.0,479.1 1107.3,478.4 1106.2,477.9 C 1103.4,476.5 1101.3,478.4 1100.9,482.9 C 1100.6,486.8 1102.3,490.5 1105.0,491.9 C 1106.0,492.4 1107.2,492.6 1107.9,492.5 C 1107.9,491.6 1108.0,490.8 1108.1,489.9 C 1107.1,490.0 1106.3,489.9 1105.6,489.5 C 1103.7,488.6 1102.6,486.3 1102.8,483.5 C 1103.1,480.8 1104.4,479.6 1106.1,480.4 C 1106.9,480.8 1107.6,481.4 1108.5,483.0 C 1108.6,482.0 1108.7,481.1 1108.8,480.1  M 1113.7,474.5 C 1113.1,474.2 1112.5,473.9 1111.8,473.6 C 1111.2,480.4 1110.5,487.3 1109.9,494.0 C 1110.5,494.4 1111.1,494.7 1111.8,495.0 C 1112.4,488.2 1113.1,481.3 1113.7,474.5  M 1120.2,484.7 C 1117.4,483.3 1114.9,485.3 1114.5,489.2 C 1114.1,493.3 1115.9,497.3 1118.8,498.8 C 1121.9,500.3 1124.3,498.5 1124.7,494.2 C 1125.1,490.2 1123.2,486.2 1120.2,484.7  M 1120.0,487.1 C 1121.8,488.1 1123.0,490.6 1122.8,493.3 C 1122.5,496.2 1121.0,497.4 1119.0,496.4 C 1117.2,495.5 1116.2,493.0 1116.4,490.1 C 1116.7,487.5 1118.2,486.3 1120.0,487.1  M 1133.1,492.2 C 1132.1,490.9 1131.2,490.1 1130.3,489.6 C 1128.4,488.7 1127.0,489.5 1126.7,491.8 C 1126.4,495.5 1130.8,498.7 1130.6,500.6 C 1130.5,501.5 1129.8,501.7 1129.0,501.4 C 1128.2,501.0 1127.2,499.9 1126.0,498.1 C 1126.0,499.0 1125.9,500.0 1125.8,501.0 C 1126.9,502.5 1127.8,503.3 1129.0,503.9 C 1130.8,504.8 1132.3,503.8 1132.6,501.5 C 1132.7,500.1 1132.2,498.8 1130.8,496.6 C 1129.2,494.3 1128.6,493.3 1128.7,492.7 C 1128.8,491.9 1129.3,491.7 1130.1,492.0 C 1130.8,492.4 1131.8,493.3 1132.8,494.9 C 1132.9,494.0 1133.0,493.1 1133.1,492.2  M 1143.0,506.4 C 1141.8,506.9 1140.6,506.9 1139.4,506.4 C 1137.5,505.4 1136.6,503.5 1136.5,500.6 C 1138.8,501.7 1141.1,502.9 1143.5,504.0 C 1144.0,498.9 1142.6,495.6 1140.0,494.4 C 1137.3,493.0 1135.1,494.9 1134.7,499.1 C 1134.3,502.8 1135.6,507.2 1138.7,508.7 C 1140.3,509.5 1141.4,509.5 1142.7,509.0 C 1142.8,508.2 1142.9,507.3 1143.0,506.4  M 1136.8,498.8 C 1137.3,496.8 1138.3,496.0 1139.8,496.7 C 1141.2,497.4 1141.9,499.2 1141.7,501.3 C 1140.1,500.5 1138.4,499.6 1136.8,498.8  " />
  </g>
   <polygon points="697.6,541.4 689.3,464.3 690.1,464.1 698.4,541.2 " fill="rgb(231,112,218)" class="polygon_bl_matrenamed_10" />
   <polygon points="1043.8,499.1 931.3,439.3 930.6,439.4 1043.1,499.3 " fill="rgb(88,88,255)" class="polygon_bl_matrenamed_4" />
   <polygon points="843.6,494.2 1005.2,597.2 1005.3,597.1 843.7,494.2 " fill="rgb(116,118,231)" class="polygon_bl_matrenamed_16" />
   <polygon points="843.6,494.2 1005.2,597.2 1005.3,597.1 843.7,494.2 " fill="rgb(116,118,231)" class="polygon_bl_matrenamed_13" />
   <polygon points="1005.3,597.1 1005.8,544.2 841.3,447.1 843.7,494.2 " fill="rgb(116,118,231)" class="polygon_bl_matrenamed_16" />
   <polygon points="1005.3,597.1 1005.8,544.2 841.3,447.1 843.7,494.2 " fill="rgb(116,118,231)" class="polygon_bl_matrenamed_13" />
   <polygon points="843.6,494.2 841.2,447.1 1005.7,544.2 1005.2,597.2 " fill="rgb(168,171,255)" class="polygon_bl_matrenamed_16" />
   <polygon points="843.6,494.2 841.2,447.1 1005.7,544.2 1005.2,597.2 " fill="rgb(168,171,255)" class="polygon_bl_matrenamed_13" />
   <polygon points="795.0,494.5 998.6,631.2 997.8,631.5 794.3,494.7 " fill="rgb(7,231,0)" class="polygon_bl_matrenamed_0" />
   <polygon points="795.0,494.5 793.4,470.6 998.8,603.4 998.6,631.2 " fill="rgb(7,231,0)" class="polygon_bl_matrenamed_0" />
   <polygon points="997.8,631.5 998.0,603.6 792.6,470.8 794.3,494.7 " fill="rgb(11,255,0)" class="polygon_bl_matrenamed_0" />
   <polygon points="1005.7,544.2 841.2,447.1 841.3,447.1 1005.8,544.2 " fill="rgb(166,169,255)" class="polygon_bl_matrenamed_16" />
   <polygon points="1005.7,544.2 841.2,447.1 841.3,447.1 1005.8,544.2 " fill="rgb(166,169,255)" class="polygon_bl_matrenamed_13" />
  <g class="bl_matrenamed_5" >
   <path d="M 954.4,466.0 C 953.8,465.7 953.3,465.4 952.7,465.1 C 951.3,467.1 949.9,469.1 948.4,471.1 C 947.2,467.6 946.0,464.2 944.8,460.8 C 944.3,460.5 943.8,460.2 943.2,459.9 C 943.0,466.5 942.7,473.1 942.5,479.6 C 943.1,479.9 943.6,480.2 944.2,480.5 C 944.4,475.4 944.6,470.3 944.8,465.2 C 944.8,465.2 944.8,465.2 944.8,465.2 C 945.9,468.5 947.0,471.7 948.2,474.9 C 948.2,475.0 948.3,475.0 948.4,475.1 C 949.8,473.2 951.1,471.3 952.4,469.4 C 952.4,469.4 952.4,469.5 952.4,469.5 C 952.2,474.6 952.0,479.7 951.8,484.8 C 952.4,485.2 953.0,485.5 953.5,485.8 C 953.8,479.2 954.1,472.6 954.4,466.0  M 958.1,475.0 C 957.6,474.7 957.0,474.4 956.5,474.1 C 956.3,478.5 956.1,482.8 956.0,487.2 C 956.5,487.5 957.0,487.8 957.5,488.1 C 957.7,483.7 957.9,479.4 958.1,475.0  M 958.4,471.1 C 958.4,470.3 958.0,469.3 957.5,469.0 C 957.0,468.8 956.6,469.2 956.5,470.1 C 956.5,470.9 956.9,471.9 957.4,472.2 C 957.9,472.4 958.4,472.0 958.4,471.1  M 967.6,473.2 C 967.1,473.0 966.6,472.7 966.0,472.4 C 965.9,474.7 965.8,477.1 965.7,479.5 C 965.1,478.8 964.6,478.3 964.0,478.0 C 961.7,476.7 959.9,478.5 959.8,482.3 C 959.6,486.5 961.0,490.0 963.3,491.3 C 964.5,492.0 965.6,492.6 966.7,493.3 C 967.0,486.6 967.3,479.9 967.6,473.2  M 965.2,490.2 C 964.7,489.9 964.2,489.6 963.6,489.3 C 961.8,488.2 961.3,486.1 961.4,483.6 C 961.5,480.9 962.6,479.6 964.1,480.5 C 964.7,480.8 965.1,481.2 965.6,481.8 C 965.5,484.6 965.4,487.4 965.2,490.2  M 976.1,484.9 C 975.0,484.3 973.8,483.7 972.7,483.1 C 970.5,481.9 969.0,482.8 968.9,485.7 C 968.9,486.6 969.0,487.5 969.2,488.4 C 969.5,489.2 969.9,490.1 970.5,490.8 C 970.5,490.8 970.5,490.8 970.5,490.9 C 969.7,490.7 969.2,491.2 969.1,492.0 C 969.1,492.6 969.3,493.3 969.9,494.1 C 968.4,493.9 967.8,494.7 967.7,496.6 C 967.6,498.9 969.0,501.4 971.2,502.7 C 973.6,504.1 975.2,503.3 975.3,500.7 C 975.4,499.0 974.8,497.2 973.1,495.7 C 971.5,494.2 970.6,493.3 970.7,492.6 C 970.7,491.0 972.9,493.2 974.1,492.0 C 974.5,491.6 975.0,490.5 975.0,489.4 C 975.1,488.3 974.9,487.4 974.3,486.0 C 974.9,486.4 975.4,486.7 976.0,487.0 C 976.0,486.3 976.0,485.6 976.1,484.9  M 973.6,488.3 C 973.5,489.7 972.8,490.4 971.9,489.9 C 970.9,489.3 970.3,488.0 970.4,486.6 C 970.4,485.3 971.2,484.6 972.1,485.1 C 973.0,485.5 973.6,487.0 973.6,488.3  M 973.7,500.0 C 973.6,501.2 972.8,501.4 971.4,500.6 C 969.9,499.8 969.1,498.6 969.2,497.3 C 969.2,496.2 970.0,495.8 971.1,496.4 C 972.1,497.0 973.8,498.3 973.7,500.0  M 977.5,485.7 C 977.2,490.1 977.0,494.5 976.8,498.9 C 977.4,499.2 977.9,499.6 978.4,499.9 C 978.6,497.6 978.7,495.3 978.8,492.9 C 978.9,490.7 979.9,489.4 981.0,490.0 C 981.4,490.2 982.0,491.1 982.5,492.1 C 982.8,491.5 983.1,490.9 983.5,490.3 C 982.8,488.9 982.2,488.1 981.6,487.7 C 980.8,487.3 979.9,487.8 979.0,489.7 C 979.0,489.7 979.0,489.7 979.0,489.7 C 979.0,488.6 979.1,487.6 979.1,486.6 C 978.6,486.3 978.0,486.0 977.5,485.7  M 988.6,491.6 C 986.1,490.2 984.1,492.1 983.9,496.0 C 983.6,500.0 985.3,504.0 987.9,505.5 C 990.6,507.0 992.6,505.2 992.9,501.0 C 993.1,497.0 991.3,493.1 988.6,491.6  M 988.5,494.0 C 990.2,494.9 991.3,497.5 991.1,500.0 C 991.0,502.9 989.8,504.1 988.0,503.1 C 986.4,502.2 985.4,499.7 985.5,496.9 C 985.7,494.3 986.9,493.1 988.5,494.0  M 1001.5,512.9 C 1001.7,508.4 1002.0,503.9 1002.3,499.4 C 1001.7,499.1 1001.1,498.8 1000.5,498.4 C 1000.4,501.7 1000.2,504.9 1000.0,508.1 C 999.4,509.0 998.6,509.2 997.8,508.8 C 996.7,508.2 996.2,506.8 996.3,504.9 C 996.4,502.0 996.6,499.2 996.7,496.3 C 996.2,496.0 995.6,495.7 995.0,495.4 C 994.9,498.2 994.7,501.0 994.6,503.7 C 994.4,507.1 995.5,509.8 997.2,510.7 C 998.1,511.2 999.1,511.0 999.9,510.2 C 999.8,510.8 999.8,511.3 999.8,511.9 C 1000.3,512.2 1000.9,512.5 1001.5,512.9  M 1006.4,501.7 C 1005.8,501.3 1005.2,501.0 1004.6,500.7 C 1004.4,505.2 1004.1,509.7 1003.9,514.2 C 1004.4,514.5 1005.0,514.8 1005.6,515.2 C 1005.8,512.0 1006.0,508.7 1006.1,505.5 C 1007.0,504.5 1007.7,504.3 1008.4,504.7 C 1009.5,505.3 1010.1,507.0 1009.9,509.0 C 1009.8,511.8 1009.6,514.6 1009.4,517.4 C 1010.0,517.7 1010.6,518.0 1011.2,518.3 C 1011.3,515.6 1011.5,512.8 1011.7,510.0 C 1011.9,506.3 1010.7,503.8 1009.0,502.8 C 1008.1,502.3 1007.0,502.5 1006.3,503.5 C 1006.3,503.5 1006.3,503.5 1006.3,503.4 C 1006.3,502.8 1006.3,502.3 1006.4,501.7  M 1022.6,503.2 C 1022.0,502.9 1021.4,502.6 1020.8,502.3 C 1020.7,504.7 1020.5,507.2 1020.3,509.7 C 1019.6,508.9 1019.1,508.4 1018.5,508.1 C 1015.9,506.6 1013.9,508.5 1013.7,512.4 C 1013.4,516.7 1014.9,520.4 1017.5,521.9 C 1018.7,522.6 1020.0,523.3 1021.2,524.0 C 1021.7,517.1 1022.1,510.2 1022.6,503.2  M 1019.6,520.8 C 1019.0,520.4 1018.4,520.1 1017.8,519.8 C 1015.8,518.6 1015.3,516.3 1015.4,513.8 C 1015.6,510.9 1016.9,509.7 1018.6,510.6 C 1019.2,511.0 1019.6,511.4 1020.2,512.1 C 1020.0,515.0 1019.8,517.9 1019.6,520.8  " />
  </g>
   <polygon points="1170.7,561.7 1176.5,482.8 1175.8,483.0 1170.1,561.9 " fill="rgb(255,136,154)" class="polygon_bl_matrenamed_9" />
   <polygon points="998.8,603.4 793.4,470.6 792.6,470.8 998.0,603.6 " fill="rgb(10,255,0)" class="polygon_bl_matrenamed_0" />
   <polygon points="1042.4,559.4 1043.8,499.1 1043.1,499.3 1041.7,559.7 " fill="rgb(107,107,255)" class="polygon_bl_matrenamed_4" />
   <polygon points="698.4,541.2 858.6,670.5 857.7,670.8 697.6,541.4 " fill="rgb(231,112,218)" class="polygon_bl_matrenamed_10" />
  <g class="bl_matrenamed_8" >
   <path d="M 885.4,486.5 C 885.0,486.2 884.6,486.0 884.2,485.7 C 883.1,487.4 882.0,489.0 880.9,490.6 C 879.9,487.7 878.9,484.9 877.9,482.0 C 877.5,481.7 877.1,481.5 876.7,481.2 C 876.6,486.7 876.5,492.2 876.4,497.7 C 876.9,497.9 877.3,498.2 877.8,498.5 C 877.8,494.2 877.9,490.0 877.9,485.7 C 878.0,485.7 878.0,485.7 878.0,485.7 C 878.9,488.4 879.8,491.1 880.8,493.8 C 880.8,493.9 880.9,493.9 881.0,494.0 C 882.0,492.4 883.0,490.9 884.0,489.3 C 884.0,489.3 884.0,489.4 884.0,489.4 C 883.9,493.7 883.9,498.0 883.8,502.2 C 884.2,502.5 884.7,502.8 885.2,503.1 C 885.2,497.6 885.3,492.0 885.4,486.5  M 888.5,494.1 C 888.1,493.8 887.7,493.6 887.2,493.3 C 887.2,497.0 887.1,500.6 887.1,504.2 C 887.5,504.5 887.9,504.8 888.3,505.0 C 888.4,501.4 888.4,497.7 888.5,494.1  M 888.7,490.9 C 888.7,490.1 888.4,489.4 888.0,489.1 C 887.6,488.9 887.2,489.3 887.2,490.0 C 887.2,490.7 887.5,491.5 887.9,491.7 C 888.3,491.9 888.7,491.6 888.7,490.9  M 895.9,492.8 C 895.5,492.5 895.0,492.3 894.6,492.0 C 894.6,494.0 894.5,496.0 894.5,498.0 C 894.0,497.4 893.6,497.0 893.2,496.7 C 891.3,495.6 890.0,497.1 889.9,500.2 C 889.9,503.7 891.0,506.7 892.9,507.8 C 893.8,508.4 894.6,508.9 895.5,509.5 C 895.6,504.0 895.8,498.4 895.9,492.8  M 894.3,506.9 C 893.9,506.6 893.5,506.4 893.0,506.1 C 891.6,505.2 891.2,503.4 891.2,501.3 C 891.2,499.1 892.1,498.0 893.3,498.8 C 893.7,499.0 894.0,499.4 894.5,499.9 C 894.4,502.2 894.4,504.6 894.3,506.9  M 902.6,502.7 C 901.7,502.2 900.8,501.6 900.0,501.1 C 898.2,500.0 897.1,500.8 897.1,503.2 C 897.1,504.0 897.2,504.8 897.4,505.5 C 897.6,506.2 898.0,506.9 898.4,507.5 C 898.4,507.5 898.4,507.5 898.4,507.6 C 897.8,507.4 897.4,507.8 897.4,508.5 C 897.4,509.0 897.6,509.5 898.0,510.3 C 896.9,510.1 896.4,510.7 896.3,512.3 C 896.3,514.2 897.5,516.4 899.2,517.4 C 901.1,518.6 902.2,518.0 902.3,515.8 C 902.3,514.4 901.9,513.0 900.5,511.6 C 899.2,510.4 898.6,509.6 898.6,509.0 C 898.6,507.7 900.3,509.6 901.2,508.5 C 901.5,508.2 901.9,507.3 901.9,506.4 C 901.9,505.5 901.7,504.8 901.3,503.6 C 901.7,503.9 902.1,504.1 902.6,504.4 C 902.6,503.8 902.6,503.3 902.6,502.7  M 900.7,505.4 C 900.7,506.6 900.2,507.2 899.5,506.8 C 898.7,506.3 898.2,505.2 898.2,504.0 C 898.2,502.9 898.8,502.3 899.5,502.7 C 900.2,503.2 900.8,504.4 900.7,505.4  M 901.0,515.2 C 901.0,516.2 900.4,516.4 899.2,515.7 C 898.1,515.0 897.5,514.0 897.5,512.9 C 897.5,512.0 898.1,511.7 899.0,512.2 C 899.8,512.7 901.1,513.9 901.0,515.2  M 903.7,503.4 C 903.6,507.0 903.5,510.7 903.4,514.4 C 903.9,514.7 904.3,514.9 904.7,515.2 C 904.8,513.3 904.8,511.3 904.9,509.4 C 904.9,507.5 905.6,506.4 906.5,507.0 C 906.8,507.2 907.3,507.9 907.7,508.8 C 907.9,508.3 908.2,507.8 908.4,507.3 C 907.9,506.1 907.4,505.4 906.9,505.1 C 906.3,504.7 905.6,505.1 904.9,506.7 C 904.9,506.7 904.9,506.7 904.9,506.7 C 904.9,505.8 905.0,505.0 905.0,504.1 C 904.6,503.9 904.1,503.6 903.7,503.4  M 912.4,508.4 C 910.5,507.3 908.9,508.8 908.8,512.0 C 908.7,515.4 910.1,518.8 912.1,520.0 C 914.2,521.3 915.7,519.8 915.8,516.3 C 915.9,513.0 914.5,509.7 912.4,508.4  M 912.4,510.4 C 913.7,511.2 914.6,513.4 914.5,515.5 C 914.4,517.9 913.5,518.9 912.1,518.0 C 910.9,517.2 910.1,515.2 910.1,512.8 C 910.2,510.7 911.1,509.7 912.4,510.4  M 922.7,526.3 C 922.8,522.6 922.9,518.9 923.0,515.1 C 922.6,514.9 922.1,514.6 921.7,514.3 C 921.6,517.0 921.5,519.7 921.4,522.3 C 921.0,523.1 920.4,523.3 919.8,522.9 C 918.9,522.3 918.5,521.2 918.5,519.6 C 918.6,517.2 918.7,514.9 918.7,512.5 C 918.3,512.2 917.8,512.0 917.4,511.7 C 917.3,514.0 917.3,516.3 917.2,518.6 C 917.1,521.5 918.0,523.7 919.4,524.5 C 920.0,524.9 920.8,524.7 921.4,524.1 C 921.4,524.6 921.4,525.0 921.3,525.5 C 921.8,525.8 922.2,526.0 922.7,526.3  M 926.2,517.1 C 925.8,516.8 925.3,516.5 924.9,516.3 C 924.8,520.0 924.6,523.7 924.5,527.5 C 925.0,527.7 925.4,528.0 925.9,528.3 C 925.9,525.6 926.0,522.9 926.1,520.3 C 926.8,519.5 927.3,519.3 927.8,519.7 C 928.7,520.2 929.1,521.5 929.1,523.2 C 929.0,525.5 928.9,527.8 928.9,530.2 C 929.3,530.4 929.8,530.7 930.2,531.0 C 930.3,528.7 930.4,526.4 930.4,524.1 C 930.5,521.0 929.6,518.9 928.3,518.1 C 927.5,517.6 926.7,517.8 926.2,518.6 C 926.2,518.6 926.2,518.6 926.2,518.5 C 926.2,518.1 926.2,517.6 926.2,517.1  M 938.6,518.6 C 938.2,518.3 937.7,518.0 937.2,517.8 C 937.2,519.8 937.1,521.8 937.0,523.9 C 936.5,523.2 936.1,522.8 935.6,522.6 C 933.6,521.3 932.1,522.8 932.0,526.1 C 931.9,529.7 933.1,532.8 935.1,534.0 C 936.1,534.6 937.0,535.2 938.0,535.8 C 938.2,530.1 938.4,524.3 938.6,518.6  M 936.7,533.1 C 936.2,532.8 935.8,532.5 935.3,532.2 C 933.8,531.3 933.3,529.4 933.4,527.3 C 933.4,524.9 934.4,523.9 935.7,524.7 C 936.2,525.0 936.5,525.3 937.0,525.9 C 936.9,528.3 936.8,530.7 936.7,533.1  M 949.7,532.0 C 949.1,531.1 948.6,530.4 947.7,529.9 C 945.6,528.6 944.2,530.2 944.0,534.0 C 943.9,537.3 945.3,540.6 947.4,541.9 C 948.1,542.3 949.0,542.6 949.5,542.5 C 949.5,541.8 949.5,541.0 949.6,540.3 C 948.8,540.3 948.3,540.2 947.7,539.9 C 946.2,539.0 945.4,537.0 945.5,534.6 C 945.5,532.3 946.5,531.3 947.7,532.1 C 948.4,532.5 948.9,533.0 949.6,534.4 C 949.7,533.6 949.7,532.8 949.7,532.0  M 953.2,527.3 C 952.7,527.1 952.2,526.8 951.7,526.5 C 951.5,532.3 951.3,538.1 951.0,543.9 C 951.5,544.2 952.0,544.5 952.4,544.8 C 952.7,539.0 952.9,533.2 953.2,527.3  M 958.3,536.4 C 956.2,535.1 954.4,536.6 954.3,539.9 C 954.1,543.4 955.6,547.0 957.8,548.3 C 960.1,549.7 961.8,548.3 961.9,544.6 C 962.1,541.2 960.6,537.7 958.3,536.4  M 958.2,538.4 C 959.6,539.3 960.6,541.5 960.5,543.8 C 960.4,546.2 959.3,547.2 957.9,546.3 C 956.5,545.4 955.6,543.2 955.7,540.8 C 955.8,538.6 956.8,537.6 958.2,538.4  M 968.0,543.2 C 967.2,542.1 966.6,541.4 965.9,541.0 C 964.4,540.1 963.4,540.7 963.3,542.7 C 963.2,545.8 966.6,548.7 966.5,550.3 C 966.4,551.1 965.9,551.3 965.4,551.0 C 964.8,550.6 963.9,549.6 963.1,548.0 C 963.0,548.8 963.0,549.6 962.9,550.4 C 963.8,551.8 964.5,552.5 965.4,553.0 C 966.8,553.9 967.9,553.2 968.0,551.1 C 968.0,550.0 967.6,548.9 966.5,546.9 C 965.2,544.9 964.8,544.0 964.8,543.5 C 964.8,542.9 965.2,542.7 965.8,543.0 C 966.4,543.3 967.1,544.2 967.9,545.5 C 967.9,544.8 967.9,544.0 968.0,543.2  M 975.8,555.8 C 974.9,556.1 974.0,556.1 973.1,555.6 C 971.7,554.7 970.9,553.0 970.8,550.6 C 972.6,551.6 974.3,552.7 976.0,553.8 C 976.2,549.5 975.1,546.6 973.1,545.4 C 971.1,544.2 969.6,545.7 969.4,549.2 C 969.3,552.4 970.4,556.1 972.7,557.5 C 973.9,558.3 974.7,558.4 975.7,558.0 C 975.7,557.3 975.7,556.5 975.8,555.8  M 970.9,549.1 C 971.2,547.4 971.9,546.7 973.1,547.4 C 974.1,548.0 974.7,549.5 974.6,551.3 C 973.4,550.6 972.2,549.8 970.9,549.1  " />
  </g>
   <polygon points="1422.0,608.9 1443.3,485.8 1442.7,486.1 1421.4,609.1 "  class="polygon_bl_mat_Material" />
   <polygon points="698.4,541.2 690.1,464.1 854.3,582.5 858.6,670.5 " fill="rgb(231,112,218)" class="polygon_bl_matrenamed_10" />
   <polygon points="857.7,670.8 853.4,582.8 689.3,464.3 697.6,541.4 " fill="rgb(255,160,255)" class="polygon_bl_matrenamed_10" />
   <polygon points="795.1,530.7 792.7,496.4 792.7,496.4 795.1,530.7 " fill="rgb(231,220,17)" class="polygon_bl_matrenamed_11" />
   <polygon points="1005.2,597.2 1005.7,544.2 1005.8,544.2 1005.3,597.1 " fill="rgb(198,202,255)" class="polygon_bl_matrenamed_16" />
   <polygon points="1005.2,597.2 1005.7,544.2 1005.8,544.2 1005.3,597.1 " fill="rgb(198,202,255)" class="polygon_bl_matrenamed_13" />
   <polygon points="854.3,582.5 690.1,464.1 689.3,464.3 853.4,582.8 " fill="rgb(255,163,255)" class="polygon_bl_matrenamed_10" />
   <polygon points="555.6,551.4 825.3,819.1 824.3,819.6 554.8,551.7 " fill="rgb(231,61,216)" class="polygon_bl_matrenamed_6" />
   <polygon points="795.1,530.7 886.9,595.9 886.9,595.9 795.1,530.7 " fill="rgb(231,220,17)" class="polygon_bl_matrenamed_11" />
   <polygon points="555.6,551.4 534.3,419.7 814.3,650.4 825.3,819.1 " fill="rgb(231,61,216)" class="polygon_bl_matrenamed_6" />
   <polygon points="824.3,819.6 813.1,650.8 533.4,419.9 554.8,551.7 " fill="rgb(255,84,255)" class="polygon_bl_matrenamed_6" />
  <g class="bl_matrenamed_12" >
   <path d="M 866.7,528.6 C 865.7,527.8 864.6,527.1 863.5,526.4 C 863.5,527.1 863.5,527.9 863.4,528.6 C 864.1,529.0 864.7,529.5 865.3,529.9 C 865.3,531.0 865.3,532.2 865.3,533.4 C 864.6,533.3 863.9,533.2 863.2,532.7 C 860.9,531.1 859.3,527.4 859.3,523.6 C 859.3,519.8 861.0,518.0 863.1,519.4 C 864.3,520.2 865.5,521.5 866.6,523.4 C 866.6,522.6 866.6,521.7 866.6,520.9 C 865.1,518.7 864.3,517.9 863.2,517.2 C 860.2,515.2 857.9,517.6 857.9,522.7 C 857.8,527.7 860.0,532.8 862.9,534.8 C 864.3,535.7 865.4,536.0 866.7,535.9 C 866.7,533.4 866.7,531.0 866.7,528.6  M 868.7,527.0 C 868.7,530.8 868.7,534.6 868.6,538.3 C 869.0,538.6 869.5,538.9 869.9,539.2 C 869.9,537.2 869.9,535.2 870.0,533.3 C 870.0,531.3 870.7,530.2 871.6,530.8 C 871.9,531.0 872.4,531.8 872.8,532.7 C 873.0,532.2 873.2,531.7 873.5,531.2 C 873.0,529.9 872.5,529.2 871.9,528.8 C 871.3,528.4 870.7,528.9 870.0,530.5 C 870.0,530.5 870.0,530.4 870.0,530.4 C 870.0,529.6 870.0,528.7 870.0,527.8 C 869.6,527.5 869.2,527.3 868.7,527.0  M 877.5,532.5 C 875.5,531.2 874.0,532.8 873.9,536.0 C 873.9,539.5 875.3,543.0 877.3,544.4 C 879.4,545.8 880.9,544.3 881.0,540.7 C 881.0,537.3 879.6,533.8 877.5,532.5  M 877.4,534.5 C 878.8,535.4 879.7,537.6 879.6,539.8 C 879.6,542.3 878.7,543.2 877.3,542.3 C 876.1,541.5 875.2,539.3 875.3,536.9 C 875.3,534.7 876.2,533.7 877.4,534.5  M 887.9,551.2 C 888.0,547.4 888.0,543.5 888.1,539.7 C 887.7,539.4 887.2,539.1 886.8,538.8 C 886.7,541.5 886.7,544.3 886.6,547.0 C 886.2,547.8 885.6,548.0 885.0,547.6 C 884.1,547.0 883.7,545.8 883.7,544.2 C 883.7,541.7 883.8,539.3 883.8,536.8 C 883.4,536.6 882.9,536.3 882.5,536.0 C 882.5,538.4 882.4,540.7 882.4,543.1 C 882.3,546.0 883.2,548.3 884.6,549.2 C 885.2,549.7 886.0,549.5 886.6,548.9 C 886.6,549.3 886.6,549.8 886.6,550.3 C 887.0,550.6 887.5,550.9 887.9,551.2  M 891.3,541.8 C 890.9,541.5 890.4,541.2 890.0,540.9 C 889.9,544.7 889.8,548.6 889.8,552.4 C 890.2,552.7 890.7,553.0 891.1,553.3 C 891.2,550.6 891.2,547.8 891.3,545.0 C 891.9,544.2 892.4,544.1 893.0,544.5 C 893.8,545.0 894.3,546.5 894.3,548.2 C 894.2,550.6 894.2,552.9 894.1,555.3 C 894.6,555.6 895.0,555.9 895.5,556.2 C 895.5,553.8 895.6,551.5 895.6,549.1 C 895.7,545.9 894.7,543.7 893.4,542.9 C 892.6,542.4 891.9,542.5 891.3,543.3 C 891.3,543.3 891.3,543.3 891.3,543.3 C 891.3,542.8 891.3,542.3 891.3,541.8  M 903.7,543.7 C 903.3,543.4 902.8,543.1 902.3,542.8 C 902.3,544.9 902.2,547.0 902.2,549.1 C 901.6,548.4 901.2,548.0 900.8,547.7 C 898.7,546.4 897.3,547.9 897.2,551.2 C 897.1,554.9 898.3,558.1 900.4,559.5 C 901.4,560.1 902.3,560.8 903.3,561.4 C 903.4,555.5 903.6,549.6 903.7,543.7  M 902.0,558.6 C 901.5,558.3 901.1,558.0 900.6,557.7 C 899.0,556.6 898.5,554.7 898.6,552.5 C 898.6,550.0 899.6,549.0 900.9,549.9 C 901.3,550.2 901.7,550.5 902.1,551.2 C 902.1,553.6 902.0,556.1 902.0,558.6  " />
  </g>
  <g class="bl_matrenamed_15" >
   <path d="M 715.3,505.9 C 713.5,504.5 711.6,503.1 709.8,501.7 C 710.1,509.0 710.4,516.2 710.7,523.4 C 711.2,523.7 711.7,524.1 712.2,524.5 C 712.0,521.2 711.9,517.8 711.7,514.5 C 713.1,515.5 714.4,516.5 715.8,517.6 C 715.8,516.6 715.7,515.7 715.7,514.8 C 714.3,513.7 713.0,512.7 711.6,511.7 C 711.5,509.7 711.5,507.7 711.4,505.7 C 712.7,506.7 714.1,507.7 715.4,508.7 C 715.4,507.8 715.3,506.8 715.3,505.9  M 720.2,516.6 C 718.2,515.0 716.7,517.0 716.9,521.1 C 717.1,525.5 718.7,529.8 720.8,531.5 C 723.1,533.2 724.5,531.3 724.3,526.8 C 724.1,522.5 722.4,518.2 720.2,516.6  M 720.3,519.1 C 721.7,520.2 722.8,523.0 722.9,525.7 C 723.0,528.8 722.2,530.1 720.7,528.9 C 719.4,527.9 718.4,525.2 718.3,522.2 C 718.2,519.4 719.0,518.1 720.3,519.1  M 725.7,521.0 C 725.9,525.8 726.0,530.6 726.2,535.4 C 726.7,535.7 727.1,536.1 727.6,536.5 C 727.5,533.9 727.4,531.4 727.3,528.9 C 727.2,526.4 727.9,525.0 728.9,525.8 C 729.2,526.0 729.8,527.0 730.2,528.2 C 730.5,527.6 730.7,526.9 730.9,526.3 C 730.3,524.7 729.7,523.7 729.1,523.3 C 728.5,522.8 727.8,523.4 727.2,525.4 C 727.2,525.4 727.2,525.4 727.2,525.3 C 727.2,524.2 727.1,523.1 727.1,522.0 C 726.6,521.7 726.1,521.3 725.7,521.0  M 738.2,540.5 C 737.4,541.0 736.6,541.0 735.7,540.3 C 734.4,539.3 733.5,537.2 733.2,534.1 C 734.8,535.4 736.5,536.7 738.2,538.0 C 738.0,532.6 736.7,529.0 734.8,527.6 C 732.8,526.1 731.6,528.0 731.7,532.4 C 731.9,536.4 733.2,541.1 735.5,542.8 C 736.7,543.8 737.4,543.8 738.3,543.3 C 738.2,542.4 738.2,541.5 738.2,540.5  M 733.1,532.3 C 733.2,530.1 733.8,529.3 734.9,530.1 C 735.9,530.9 736.6,532.8 736.7,535.0 C 735.5,534.1 734.3,533.2 733.1,532.3  M 745.3,535.9 C 744.3,535.1 743.3,534.3 742.3,533.6 C 740.3,532.1 739.2,533.1 739.3,536.2 C 739.3,537.3 739.5,538.3 739.8,539.2 C 740.1,540.2 740.5,541.2 741.1,542.0 C 741.1,542.0 741.1,542.1 741.1,542.1 C 740.4,541.9 739.9,542.3 740.0,543.3 C 740.0,543.9 740.2,544.7 740.8,545.7 C 739.5,545.3 739.0,546.2 739.1,548.3 C 739.2,550.8 740.6,553.7 742.6,555.3 C 744.7,556.9 745.9,556.2 745.8,553.3 C 745.8,551.5 745.2,549.5 743.6,547.6 C 742.1,545.9 741.3,544.8 741.3,544.0 C 741.3,542.3 743.3,544.9 744.2,543.5 C 744.5,543.1 744.8,542.0 744.8,540.8 C 744.7,539.5 744.5,538.6 743.9,537.0 C 744.4,537.4 744.9,537.7 745.4,538.1 C 745.4,537.4 745.4,536.6 745.3,535.9  M 743.5,539.4 C 743.5,541.0 743.0,541.7 742.1,541.1 C 741.3,540.4 740.6,538.9 740.6,537.3 C 740.5,535.9 741.2,535.1 742.0,535.8 C 742.7,536.3 743.4,538.0 743.5,539.4  M 744.5,552.5 C 744.5,553.8 743.8,554.0 742.5,553.0 C 741.2,552.0 740.5,550.7 740.4,549.2 C 740.4,547.9 741.0,547.5 742.0,548.3 C 742.9,549.0 744.4,550.6 744.5,552.5  M 746.6,536.8 C 746.7,541.7 746.9,546.6 747.0,551.5 C 747.5,551.8 748.0,552.2 748.5,552.6 C 748.4,550.0 748.3,547.5 748.2,544.9 C 748.2,542.4 748.9,541.0 749.9,541.8 C 750.3,542.0 750.9,543.1 751.3,544.3 C 751.6,543.6 751.8,543.0 752.0,542.3 C 751.4,540.7 750.8,539.7 750.2,539.3 C 749.5,538.7 748.8,539.3 748.2,541.3 C 748.2,541.3 748.1,541.3 748.1,541.3 C 748.1,540.2 748.1,539.0 748.0,537.9 C 747.5,537.5 747.1,537.2 746.6,536.8  M 756.5,544.0 C 754.3,542.3 752.7,544.3 752.8,548.6 C 752.9,553.1 754.7,557.7 757.0,559.5 C 759.4,561.3 761.0,559.5 760.8,554.8 C 760.7,550.3 758.9,545.8 756.5,544.0  M 756.6,546.7 C 758.1,547.8 759.2,550.7 759.3,553.6 C 759.4,556.8 758.4,558.0 756.9,556.8 C 755.4,555.7 754.4,552.9 754.3,549.8 C 754.2,546.9 755.2,545.6 756.6,546.7  M 769.1,568.6 C 769.0,563.6 768.9,558.6 768.8,553.6 C 768.2,553.2 767.7,552.8 767.2,552.4 C 767.3,556.0 767.4,559.6 767.5,563.1 C 767.0,564.1 766.4,564.3 765.7,563.8 C 764.6,563.0 764.1,561.4 764.0,559.3 C 764.0,556.2 763.9,553.0 763.8,549.8 C 763.3,549.5 762.8,549.1 762.3,548.7 C 762.4,551.8 762.4,554.9 762.5,558.0 C 762.6,561.7 763.8,564.7 765.3,565.9 C 766.1,566.5 766.9,566.3 767.5,565.5 C 767.5,566.1 767.6,566.8 767.6,567.4 C 768.1,567.8 768.6,568.2 769.1,568.6  M 772.4,556.4 C 771.9,556.0 771.4,555.6 770.9,555.2 C 771.0,560.2 771.1,565.2 771.2,570.2 C 771.8,570.6 772.3,571.0 772.8,571.4 C 772.7,567.8 772.6,564.3 772.5,560.7 C 773.2,559.6 773.8,559.4 774.5,560.0 C 775.4,560.7 776.0,562.6 776.1,564.8 C 776.1,567.9 776.2,571.0 776.3,574.1 C 776.8,574.5 777.3,574.9 777.8,575.3 C 777.8,572.2 777.7,569.1 777.6,566.0 C 777.6,561.9 776.3,559.0 774.8,557.9 C 773.9,557.2 773.1,557.4 772.5,558.4 C 772.5,558.4 772.5,558.4 772.5,558.4 C 772.5,557.7 772.5,557.1 772.4,556.4  M 786.5,559.2 C 786.0,558.8 785.4,558.4 784.9,558.0 C 784.9,560.7 785.0,563.5 785.0,566.2 C 784.4,565.3 783.9,564.8 783.3,564.4 C 781.0,562.6 779.4,564.5 779.5,568.9 C 779.6,573.7 781.2,577.9 783.5,579.7 C 784.6,580.6 785.8,581.5 786.9,582.3 C 786.8,574.7 786.6,567.0 786.5,559.2  M 785.3,578.6 C 784.7,578.2 784.2,577.8 783.7,577.3 C 781.8,575.9 781.2,573.4 781.1,570.5 C 781.1,567.4 782.1,566.0 783.6,567.2 C 784.1,567.6 784.5,568.1 785.1,568.9 C 785.1,572.1 785.2,575.4 785.3,578.6  M 800.0,578.0 C 799.2,576.7 798.5,575.8 797.6,575.1 C 795.1,573.2 793.5,575.2 793.6,580.3 C 793.7,584.8 795.4,589.2 797.9,591.1 C 798.7,591.8 799.8,592.2 800.3,592.2 C 800.3,591.2 800.3,590.2 800.3,589.2 C 799.5,589.2 798.8,589.0 798.1,588.5 C 796.4,587.2 795.3,584.4 795.3,581.3 C 795.2,578.2 796.2,576.9 797.7,578.0 C 798.4,578.6 799.1,579.4 800.0,581.3 C 800.0,580.2 800.0,579.1 800.0,578.0  M 803.6,572.0 C 803.0,571.6 802.5,571.1 801.9,570.7 C 802.0,578.6 802.1,586.4 802.2,594.2 C 802.7,594.6 803.3,595.0 803.8,595.4 C 803.7,587.7 803.7,579.8 803.6,572.0  M 810.0,584.5 C 807.5,582.6 805.6,584.6 805.6,589.1 C 805.7,593.8 807.6,598.6 810.2,600.6 C 812.9,602.8 814.7,600.9 814.7,596.0 C 814.7,591.4 812.7,586.6 810.0,584.5  M 810.0,587.3 C 811.7,588.6 812.9,591.7 813.0,594.7 C 813.0,598.1 811.9,599.3 810.1,597.9 C 808.5,596.6 807.4,593.6 807.3,590.4 C 807.3,587.4 808.4,586.1 810.0,587.3  M 821.6,594.6 C 820.7,593.0 819.8,592.0 819.0,591.4 C 817.3,590.0 816.2,590.8 816.2,593.4 C 816.2,597.6 820.3,601.9 820.3,604.0 C 820.3,605.1 819.7,605.3 819.0,604.8 C 818.3,604.3 817.3,602.9 816.2,600.6 C 816.2,601.7 816.2,602.8 816.2,603.9 C 817.3,605.8 818.2,606.8 819.2,607.7 C 820.8,608.9 822.0,608.0 822.0,605.3 C 822.0,603.7 821.5,602.2 820.1,599.4 C 818.5,596.6 817.9,595.4 817.9,594.7 C 817.9,593.8 818.4,593.6 819.1,594.1 C 819.7,594.6 820.6,595.8 821.6,597.7 C 821.6,596.6 821.6,595.6 821.6,594.6  M 831.4,612.2 C 830.3,612.6 829.3,612.5 828.3,611.7 C 826.6,610.4 825.6,608.1 825.3,604.8 C 827.4,606.3 829.4,607.9 831.5,609.5 C 831.5,603.7 830.0,599.7 827.7,597.9 C 825.2,596.1 823.6,598.0 823.6,602.8 C 823.6,607.1 825.1,612.2 827.9,614.4 C 829.4,615.5 830.3,615.7 831.4,615.2 C 831.4,614.2 831.4,613.2 831.4,612.2  M 825.4,602.7 C 825.6,600.4 826.4,599.6 827.7,600.6 C 829.0,601.6 829.7,603.7 829.8,606.1 C 828.3,605.0 826.8,603.8 825.4,602.7  " />
  </g>
   <polygon points="998.6,631.2 998.8,603.4 998.0,603.6 997.8,631.5 " fill="rgb(12,255,0)" class="polygon_bl_matrenamed_0" />
   <polygon points="886.9,595.9 885.5,559.1 792.7,496.4 795.1,530.7 " fill="rgb(231,220,17)" class="polygon_bl_matrenamed_11" />
   <polygon points="795.1,530.7 792.7,496.4 885.5,559.1 886.9,595.9 " fill="rgb(255,255,24)" class="polygon_bl_matrenamed_11" />
   <polygon points="885.5,559.1 792.7,496.4 792.7,496.4 885.5,559.1 " fill="rgb(255,255,24)" class="polygon_bl_matrenamed_11" />
   <polygon points="814.3,650.4 534.3,419.7 533.4,419.9 813.1,650.8 " fill="rgb(255,91,255)" class="polygon_bl_matrenamed_6" />
   <polygon points="858.6,670.5 854.3,582.5 853.4,582.8 857.7,670.8 " fill="rgb(255,196,255)" class="polygon_bl_matrenamed_10" />
  <g class="bl_matrenamed_3" >
   <path d="M 440.0,541.7 C 441.8,553.9 443.5,566.0 445.3,578.1 C 446.3,578.6 447.3,579.2 448.4,579.7 C 447.6,574.5 446.9,569.3 446.1,564.0 C 447.2,564.6 448.3,565.2 449.4,565.7 C 454.6,568.4 456.3,565.1 455.5,559.3 C 454.6,553.4 451.7,547.5 446.9,545.1 C 444.6,543.9 442.3,542.8 440.0,541.7  M 443.8,548.0 C 445.1,548.6 446.3,549.2 447.6,549.9 C 450.4,551.3 451.7,554.7 452.1,557.4 C 452.6,561.1 451.4,562.4 449.0,561.2 C 447.8,560.6 446.7,560.0 445.5,559.3 C 444.9,555.6 444.4,551.8 443.8,548.0  M 465.0,565.6 C 460.6,563.3 457.9,567.0 458.9,573.9 C 459.9,581.3 463.9,588.3 468.5,590.7 C 473.2,593.2 475.8,589.8 474.8,582.1 C 473.8,574.9 469.7,567.9 465.0,565.6  M 465.6,569.9 C 468.5,571.4 471.1,575.9 471.8,580.6 C 472.5,585.8 471.0,588.0 467.8,586.4 C 465.0,584.9 462.6,580.6 461.9,575.5 C 461.2,570.8 462.8,568.5 465.6,569.9  M 488.2,577.8 C 483.8,575.6 479.4,573.4 475.1,571.2 C 475.3,572.6 475.5,574.1 475.7,575.5 C 478.3,576.8 480.8,578.2 483.4,579.5 C 481.6,584.8 479.8,590.1 478.0,595.3 C 482.5,597.6 486.9,600.0 491.4,602.3 C 491.2,600.9 491.0,599.4 490.8,598.0 C 488.1,596.5 485.4,595.1 482.7,593.7 C 484.5,588.5 486.3,583.1 488.2,577.8  M 498.0,582.3 C 493.3,580.0 490.5,583.7 491.4,590.7 C 492.4,598.2 496.5,605.4 501.2,608.0 C 506.2,610.6 509.1,607.2 508.1,599.4 C 507.2,592.0 502.9,584.8 498.0,582.3  M 498.5,586.7 C 501.6,588.3 504.3,593.0 504.9,597.8 C 505.6,603.1 503.9,605.3 500.7,603.6 C 497.7,602.0 495.2,597.5 494.5,592.3 C 493.9,587.6 495.6,585.2 498.5,586.7  M 510.3,589.1 C 511.3,597.4 512.3,605.6 513.3,613.9 C 514.4,614.4 515.4,615.0 516.5,615.5 C 516.0,611.2 515.4,606.9 514.9,602.6 C 514.4,598.3 515.7,595.8 517.9,596.9 C 518.6,597.3 520.0,598.9 521.1,600.9 C 521.5,599.7 521.9,598.6 522.3,597.4 C 520.8,594.8 519.4,593.2 518.1,592.6 C 516.6,591.8 515.3,592.9 514.2,596.4 C 514.2,596.4 514.2,596.4 514.2,596.4 C 513.9,594.5 513.7,592.6 513.5,590.7 C 512.4,590.1 511.3,589.6 510.3,589.1  M 531.9,599.6 C 527.0,597.1 523.9,600.8 524.8,608.0 C 525.7,615.6 529.9,623.0 534.9,625.6 C 540.1,628.4 543.2,625.0 542.3,617.0 C 541.4,609.5 537.0,602.2 531.9,599.6  M 532.3,604.0 C 535.6,605.7 538.4,610.5 538.9,615.3 C 539.5,620.8 537.8,623.0 534.3,621.2 C 531.2,619.6 528.7,615.0 528.0,609.7 C 527.5,604.9 529.3,602.5 532.3,604.0  M 552.7,635.0 C 553.1,635.2 553.5,635.4 553.8,635.6 C 555.4,628.4 556.9,621.0 558.5,613.6 C 557.3,613.0 556.1,612.4 554.9,611.8 C 554.0,616.2 553.1,620.7 552.2,625.1 C 550.1,619.2 548.0,613.2 545.9,607.2 C 544.7,606.6 543.5,606.0 542.3,605.4 C 545.8,615.3 549.3,625.2 552.7,635.0  M 576.6,642.8 C 575.9,643.3 575.2,643.4 574.9,643.2 C 574.5,643.0 574.2,642.5 574.1,641.6 C 573.7,637.2 573.2,632.8 572.8,628.4 C 572.2,622.6 569.1,618.5 565.6,616.7 C 563.1,615.5 561.4,615.7 560.3,617.3 C 560.5,619.2 560.7,621.0 560.9,622.8 C 562.2,620.8 564.0,620.5 565.9,621.4 C 567.9,622.5 569.1,624.3 569.4,627.5 C 569.5,628.0 569.5,628.4 569.6,628.9 C 568.6,628.9 567.7,628.9 566.7,628.9 C 564.1,629.0 561.2,628.9 561.7,633.9 C 562.1,637.2 564.1,641.0 566.6,642.3 C 568.1,643.1 569.6,643.1 570.9,642.1 C 571.4,644.1 572.3,645.3 573.8,646.1 C 574.9,646.7 575.5,646.6 576.9,645.9 C 576.8,644.9 576.7,643.8 576.6,642.8  M 570.6,639.1 C 569.8,639.9 568.9,640.2 567.9,639.6 C 566.5,638.9 565.3,636.9 565.1,634.8 C 564.7,631.8 567.1,631.6 569.9,631.7 C 570.1,634.2 570.4,636.6 570.6,639.1  M 581.0,620.0 C 579.2,622.0 577.3,624.0 575.5,626.1 C 575.5,626.2 575.5,626.4 575.5,626.6 C 576.5,627.1 577.5,627.7 578.6,628.2 C 579.0,632.7 579.5,637.2 579.9,641.8 C 580.4,646.4 582.6,650.8 586.4,652.7 C 587.5,653.3 589.3,653.6 590.5,653.3 C 590.3,651.7 590.1,650.1 590.0,648.5 C 588.7,649.0 587.5,649.0 586.2,648.3 C 585.2,647.8 583.6,646.2 583.3,643.2 C 582.9,638.8 582.5,634.4 582.0,630.0 C 583.9,630.9 585.7,631.9 587.6,632.8 C 587.5,631.3 587.3,629.7 587.2,628.2 C 585.3,627.2 583.4,626.3 581.6,625.3 C 581.4,623.6 581.2,621.8 581.0,620.0  M 607.3,656.1 C 605.4,657.0 603.5,657.1 601.3,656.0 C 597.9,654.2 595.6,650.5 594.6,645.1 C 598.8,647.2 603.0,649.4 607.2,651.6 C 606.3,642.0 602.8,635.7 598.1,633.2 C 593.1,630.7 590.2,634.3 591.0,642.2 C 591.6,649.3 595.3,657.5 600.9,660.4 C 603.9,662.0 605.8,662.0 607.8,661.1 C 607.6,659.4 607.5,657.8 607.3,656.1  M 594.3,641.7 C 594.4,637.9 595.8,636.4 598.6,637.8 C 601.1,639.1 602.9,642.4 603.4,646.4 C 600.3,644.8 597.3,643.3 594.3,641.7  M 612.4,627.9 C 611.1,627.3 609.9,626.7 608.7,626.1 C 609.9,639.5 611.1,652.7 612.3,665.9 C 613.5,666.5 614.7,667.1 615.9,667.8 C 614.7,654.6 613.5,641.3 612.4,627.9  " />
  </g>
   <polygon points="886.9,595.9 885.5,559.1 885.5,559.1 886.9,595.9 " fill="rgb(255,255,30)" class="polygon_bl_matrenamed_11" />
  <g class="bl_matrenamed_2" >
   <path d="M 610.6,510.2 C 607.7,507.7 604.9,505.3 602.1,502.8 C 603.1,515.5 604.1,528.1 605.1,540.6 C 605.9,541.3 606.6,542.0 607.4,542.7 C 606.9,536.9 606.5,531.0 606.0,525.2 C 608.0,527.0 610.1,528.9 612.2,530.7 C 612.1,529.1 611.9,527.4 611.8,525.8 C 609.7,523.9 607.7,522.1 605.6,520.3 C 605.3,516.8 605.0,513.3 604.7,509.7 C 606.8,511.5 608.9,513.3 611.0,515.1 C 610.9,513.5 610.7,511.8 610.6,510.2  M 618.8,529.1 C 615.6,526.3 613.6,529.8 614.1,537.0 C 614.7,544.7 617.5,552.3 620.8,555.3 C 624.2,558.5 626.2,555.3 625.6,547.3 C 625.1,539.8 622.2,532.1 618.8,529.1  M 619.1,533.6 C 621.3,535.5 623.1,540.5 623.4,545.4 C 623.8,550.8 622.7,552.9 620.4,550.9 C 618.4,549.0 616.7,544.2 616.3,538.9 C 615.9,534.1 617.1,531.9 619.1,533.6  M 627.3,537.1 C 627.9,545.6 628.5,554.1 629.2,562.5 C 629.9,563.2 630.6,563.8 631.3,564.5 C 631.0,560.1 630.7,555.7 630.4,551.2 C 630.1,546.8 631.0,544.4 632.5,545.8 C 633.1,546.2 634.0,548.0 634.8,550.1 C 635.1,549.0 635.4,547.9 635.6,546.7 C 634.6,543.9 633.7,542.2 632.8,541.4 C 631.7,540.5 630.8,541.4 630.0,544.9 C 630.0,544.9 629.9,544.9 629.9,544.9 C 629.8,542.9 629.6,541.0 629.5,539.0 C 628.8,538.4 628.0,537.7 627.3,537.1  M 647.9,572.5 C 646.7,573.3 645.4,573.2 644.0,572.0 C 641.9,570.0 640.4,566.2 639.7,560.8 C 642.4,563.2 645.1,565.6 647.8,568.1 C 647.1,558.4 644.8,552.0 641.8,549.3 C 638.6,546.5 636.8,549.9 637.4,557.7 C 637.9,564.8 640.3,573.1 643.8,576.3 C 645.8,578.1 646.9,578.3 648.2,577.5 C 648.1,575.8 648.0,574.2 647.9,572.5  M 639.5,557.5 C 639.5,553.7 640.4,552.3 642.1,553.8 C 643.8,555.3 644.9,558.6 645.3,562.6 C 643.3,560.9 641.4,559.2 639.5,557.5  M 658.8,564.8 C 657.2,563.3 655.5,561.9 653.9,560.4 C 650.7,557.6 649.0,559.4 649.3,564.9 C 649.5,566.9 649.8,568.7 650.3,570.4 C 650.8,572.1 651.5,573.8 652.5,575.4 C 652.5,575.4 652.5,575.5 652.5,575.5 C 651.4,575.1 650.7,575.9 650.9,577.5 C 650.9,578.7 651.4,580.1 652.2,581.9 C 650.3,581.1 649.5,582.5 649.8,586.3 C 650.1,590.8 652.5,596.1 655.6,599.0 C 659.1,602.2 661.0,601.1 660.7,595.9 C 660.5,592.7 659.4,589.0 656.8,585.6 C 654.4,582.4 653.1,580.4 653.0,579.0 C 652.8,575.9 656.1,580.7 657.5,578.4 C 658.0,577.7 658.4,575.7 658.2,573.5 C 658.1,571.3 657.7,569.5 656.6,566.7 C 657.4,567.4 658.2,568.1 659.1,568.8 C 659.0,567.5 658.9,566.1 658.8,564.8  M 656.1,571.0 C 656.2,573.8 655.4,575.0 654.1,573.8 C 652.7,572.6 651.6,569.8 651.4,567.0 C 651.3,564.4 652.2,563.2 653.5,564.3 C 654.7,565.4 655.9,568.5 656.1,571.0  M 658.5,594.3 C 658.6,596.6 657.5,596.9 655.4,595.0 C 653.3,593.1 652.1,590.6 651.9,588.1 C 651.8,585.8 652.8,585.2 654.3,586.6 C 655.8,587.9 658.2,591.0 658.5,594.3  M 660.8,566.5 C 661.4,575.3 661.9,584.1 662.4,592.8 C 663.2,593.5 664.0,594.2 664.8,595.0 C 664.5,590.4 664.3,585.8 664.0,581.2 C 663.7,576.7 664.8,574.3 666.5,575.7 C 667.0,576.2 668.0,578.2 668.9,580.4 C 669.2,579.2 669.6,578.1 669.9,576.9 C 668.8,574.0 667.8,572.1 666.8,571.3 C 665.6,570.3 664.6,571.2 663.6,574.8 C 663.6,574.8 663.6,574.7 663.6,574.7 C 663.5,572.7 663.3,570.7 663.2,568.6 C 662.4,567.9 661.6,567.2 660.8,566.5  M 677.3,580.5 C 673.5,577.2 671.0,580.6 671.5,588.3 C 671.9,596.4 675.0,604.7 678.8,608.2 C 682.8,611.9 685.3,608.7 684.9,600.3 C 684.5,592.3 681.2,584.0 677.3,580.5  M 677.5,585.2 C 680.0,587.4 682.0,592.8 682.3,598.0 C 682.6,603.8 681.2,605.8 678.5,603.5 C 676.1,601.3 674.3,596.1 674.0,590.5 C 673.7,585.4 675.2,583.2 677.5,585.2  M 699.2,626.3 C 698.8,617.3 698.3,608.2 697.9,599.1 C 697.0,598.3 696.1,597.6 695.3,596.8 C 695.6,603.3 695.9,609.8 696.2,616.2 C 695.5,617.9 694.5,618.2 693.3,617.2 C 691.6,615.6 690.6,612.7 690.4,608.9 C 690.1,603.2 689.8,597.5 689.5,591.7 C 688.6,591.0 687.8,590.2 686.9,589.5 C 687.2,595.1 687.5,600.7 687.8,606.2 C 688.2,613.0 690.2,618.6 692.8,620.9 C 694.1,622.1 695.5,621.9 696.5,620.5 C 696.5,621.6 696.6,622.8 696.6,623.9 C 697.5,624.7 698.4,625.5 699.2,626.3  M 704.2,604.7 C 703.3,603.9 702.4,603.1 701.6,602.3 C 702.0,611.5 702.4,620.6 702.9,629.6 C 703.7,630.4 704.6,631.2 705.5,632.0 C 705.2,625.5 704.9,619.0 704.6,612.4 C 705.7,610.7 706.6,610.4 707.8,611.4 C 709.4,612.9 710.5,616.4 710.7,620.5 C 711.0,626.2 711.2,631.8 711.5,637.4 C 712.4,638.2 713.3,639.1 714.2,639.9 C 713.9,634.3 713.7,628.6 713.4,623.0 C 713.1,615.4 710.9,610.0 708.3,607.7 C 706.8,606.4 705.3,606.6 704.5,608.3 C 704.4,608.3 704.4,608.3 704.4,608.3 C 704.3,607.1 704.3,605.9 704.2,604.7  M 728.4,611.6 C 727.4,610.8 726.5,610.0 725.5,609.2 C 725.7,614.3 725.9,619.4 726.1,624.4 C 725.0,622.6 724.1,621.6 723.1,620.7 C 719.0,617.1 716.4,620.4 716.8,628.4 C 717.1,637.2 720.0,645.1 724.1,648.9 C 726.1,650.7 728.0,652.5 730.0,654.3 C 729.5,640.2 728.9,626.0 728.4,611.6  M 727.0,647.1 C 726.1,646.3 725.2,645.4 724.2,644.6 C 721.0,641.7 719.8,636.9 719.6,631.7 C 719.4,625.9 721.0,623.6 723.7,626.0 C 724.6,626.9 725.4,627.8 726.3,629.4 C 726.6,635.3 726.8,641.2 727.0,647.1  " />
  </g>
   <polygon points="825.3,819.1 814.3,650.4 813.1,650.8 824.3,819.6 " fill="rgb(255,104,255)" class="polygon_bl_matrenamed_6" />
  <g class="bl_matrenamed_7" >
   <path d="M 816.0,514.3 C 815.9,521.3 815.8,528.3 815.7,535.3 C 816.2,535.7 816.7,536.1 817.3,536.4 C 817.3,533.4 817.4,530.4 817.4,527.4 C 818.0,527.8 818.5,528.1 819.1,528.5 C 821.7,530.3 823.0,528.6 823.0,525.3 C 823.1,521.9 822.0,518.4 819.5,516.7 C 818.3,515.9 817.1,515.1 816.0,514.3  M 817.5,518.1 C 818.2,518.6 818.8,519.0 819.5,519.4 C 820.9,520.4 821.4,522.4 821.3,524.0 C 821.3,526.1 820.5,526.7 819.3,525.9 C 818.7,525.5 818.1,525.1 817.5,524.6 C 817.5,522.5 817.5,520.3 817.5,518.1  M 825.9,521.0 C 825.4,520.7 824.9,520.3 824.4,520.0 C 824.3,527.1 824.2,534.1 824.0,541.2 C 824.5,541.5 825.0,541.9 825.5,542.2 C 825.7,535.2 825.8,528.1 825.9,521.0  M 833.6,545.4 C 833.3,545.6 833.0,545.7 832.8,545.5 C 832.6,545.4 832.5,545.2 832.6,544.6 C 832.6,542.2 832.6,539.8 832.7,537.4 C 832.8,534.2 831.6,532.0 830.0,530.9 C 828.9,530.1 828.1,530.2 827.4,531.1 C 827.4,532.1 827.4,533.1 827.4,534.1 C 828.1,533.0 829.0,532.9 829.8,533.4 C 830.8,534.1 831.2,535.1 831.2,536.9 C 831.2,537.1 831.2,537.4 831.2,537.6 C 830.7,537.6 830.2,537.6 829.8,537.5 C 828.6,537.5 827.2,537.4 827.1,540.2 C 827.1,541.9 827.8,544.1 828.9,544.9 C 829.6,545.3 830.3,545.4 831.0,544.9 C 831.1,546.0 831.5,546.6 832.1,547.1 C 832.6,547.4 832.9,547.4 833.6,547.0 C 833.6,546.5 833.6,545.9 833.6,545.4  M 831.0,543.2 C 830.6,543.6 830.2,543.8 829.7,543.4 C 829.1,543.0 828.6,541.9 828.7,540.7 C 828.7,539.1 829.8,539.0 831.1,539.1 C 831.1,540.5 831.1,541.8 831.0,543.2  M 841.7,539.2 C 841.1,538.8 840.6,538.4 840.0,538.0 C 839.3,540.2 838.5,542.4 837.8,544.6 C 837.2,541.5 836.5,538.3 835.9,535.2 C 835.3,534.8 834.7,534.4 834.1,534.0 C 835.1,538.4 836.0,542.8 836.9,547.1 C 836.0,549.9 835.0,552.7 834.1,555.4 C 834.6,555.8 835.2,556.2 835.8,556.6 C 837.7,550.9 839.7,545.1 841.7,539.2  M 849.2,554.6 C 848.2,555.0 847.3,555.0 846.4,554.4 C 844.9,553.3 844.0,551.2 843.8,548.3 C 845.7,549.6 847.5,550.8 849.4,552.1 C 849.5,546.9 848.2,543.4 846.1,542.0 C 844.0,540.5 842.4,542.3 842.3,546.6 C 842.2,550.5 843.5,555.0 845.9,556.8 C 847.3,557.7 848.1,557.8 849.1,557.3 C 849.1,556.4 849.2,555.5 849.2,554.6  M 843.9,546.4 C 844.2,544.4 844.9,543.6 846.1,544.4 C 847.2,545.2 847.9,547.0 847.9,549.2 C 846.5,548.3 845.2,547.4 843.9,546.4  M 851.4,545.8 C 851.3,550.6 851.1,555.3 851.0,560.0 C 851.5,560.4 852.1,560.8 852.6,561.1 C 852.7,558.7 852.7,556.2 852.8,553.7 C 852.9,551.3 853.8,549.9 854.9,550.7 C 855.2,550.9 855.8,551.9 856.3,553.1 C 856.6,552.5 856.9,551.9 857.2,551.2 C 856.6,549.7 856.0,548.7 855.3,548.3 C 854.6,547.7 853.8,548.3 852.9,550.2 C 852.9,550.2 852.9,550.2 852.9,550.2 C 852.9,549.1 852.9,548.0 853.0,546.9 C 852.4,546.6 851.9,546.2 851.4,545.8  " />
  </g>
   <polygon points="543.2,680.1 543.9,681.4 544.0,682.7 543.6,684.1 542.7,685.5 541.2,686.9 539.3,688.2 537.0,689.3 534.5,690.2 531.7,691.0 528.9,691.4 526.1,691.6 523.4,691.5 521.0,691.1 518.9,690.5 517.2,689.6 516.1,688.5 515.4,687.3 515.3,686.0 515.8,684.6 516.8,683.1 518.2,681.8 520.2,680.5 522.4,679.4 525.0,678.5 527.7,677.8 530.5,677.3 533.2,677.2 535.9,677.3 538.2,677.6 540.3,678.2 542.0,679.1 " fill="rgb(0,0,0)" class="polygon_bl_matrenamed_14" />
   <polygon points="530.5,677.3 525.4,660.5 533.2,677.2 " fill="rgb(0,0,0)" class="polygon_bl_matrenamed_14" />
   <polygon points="533.2,677.2 525.4,660.5 535.9,677.3 " fill="rgb(0,0,0)" class="polygon_bl_matrenamed_14" />
   <polygon points="535.9,677.3 525.4,660.5 538.2,677.6 " fill="rgb(0,0,0)" class="polygon_bl_matrenamed_14" />
   <polygon points="527.7,677.8 525.4,660.5 530.5,677.3 " fill="rgb(0,0,0)" class="polygon_bl_matrenamed_14" />
   <polygon points="538.2,677.6 525.4,660.5 540.3,678.2 " fill="rgb(0,0,0)" class="polygon_bl_matrenamed_14" />
   <polygon points="525.0,678.5 525.4,660.5 527.7,677.8 " fill="rgb(0,0,0)" class="polygon_bl_matrenamed_14" />
   <polygon points="540.3,678.2 525.4,660.5 542.0,679.1 " fill="rgb(0,0,0)" class="polygon_bl_matrenamed_14" />
   <polygon points="522.4,679.4 525.4,660.5 525.0,678.5 " fill="rgb(0,0,0)" class="polygon_bl_matrenamed_14" />
   <polygon points="542.0,679.1 525.4,660.5 543.2,680.1 " fill="rgb(0,0,0)" class="polygon_bl_matrenamed_14" />
   <polygon points="520.2,680.5 525.4,660.5 522.4,679.4 " fill="rgb(0,0,0)" class="polygon_bl_matrenamed_14" />
   <polygon points="543.2,680.1 525.4,660.5 543.9,681.4 " fill="rgb(0,0,0)" class="polygon_bl_matrenamed_14" />
   <polygon points="518.2,681.8 525.4,660.5 520.2,680.5 " fill="rgb(0,0,0)" class="polygon_bl_matrenamed_14" />
   <polygon points="543.9,681.4 525.4,660.5 544.0,682.7 " fill="rgb(0,0,0)" class="polygon_bl_matrenamed_14" />
   <polygon points="516.8,683.1 525.4,660.5 518.2,681.8 " fill="rgb(0,0,0)" class="polygon_bl_matrenamed_14" />
   <polygon points="544.0,682.7 525.4,660.5 543.6,684.1 " fill="rgb(0,0,0)" class="polygon_bl_matrenamed_14" />
   <polygon points="515.8,684.6 525.4,660.5 516.8,683.1 " fill="rgb(0,0,0)" class="polygon_bl_matrenamed_14" />
   <polygon points="543.6,684.1 525.4,660.5 542.7,685.5 " fill="rgb(0,0,0)" class="polygon_bl_matrenamed_14" />
   <polygon points="515.3,686.0 525.4,660.5 515.8,684.6 " fill="rgb(0,0,0)" class="polygon_bl_matrenamed_14" />
   <polygon points="542.7,685.5 525.4,660.5 541.2,686.9 " fill="rgb(0,0,0)" class="polygon_bl_matrenamed_14" />
   <polygon points="515.4,687.3 525.4,660.5 515.3,686.0 " fill="rgb(0,0,0)" class="polygon_bl_matrenamed_14" />
   <polygon points="541.2,686.9 525.4,660.5 539.3,688.2 " fill="rgb(0,0,0)" class="polygon_bl_matrenamed_14" />
   <polygon points="516.1,688.5 525.4,660.5 515.4,687.3 " fill="rgb(0,0,0)" class="polygon_bl_matrenamed_14" />
   <polygon points="539.3,688.2 525.4,660.5 537.0,689.3 " fill="rgb(0,0,0)" class="polygon_bl_matrenamed_14" />
   <polygon points="517.2,689.6 525.4,660.5 516.1,688.5 " fill="rgb(0,0,0)" class="polygon_bl_matrenamed_14" />
   <polygon points="537.0,689.3 525.4,660.5 534.5,690.2 " fill="rgb(0,0,0)" class="polygon_bl_matrenamed_14" />
   <polygon points="518.9,690.5 525.4,660.5 517.2,689.6 " fill="rgb(0,0,0)" class="polygon_bl_matrenamed_14" />
   <polygon points="534.5,690.2 525.4,660.5 531.7,691.0 " fill="rgb(0,0,0)" class="polygon_bl_matrenamed_14" />
   <polygon points="521.0,691.1 525.4,660.5 518.9,690.5 " fill="rgb(0,0,0)" class="polygon_bl_matrenamed_14" />
   <polygon points="531.7,691.0 525.4,660.5 528.9,691.4 " fill="rgb(0,0,0)" class="polygon_bl_matrenamed_14" />
   <polygon points="523.4,691.5 525.4,660.5 521.0,691.1 " fill="rgb(0,0,0)" class="polygon_bl_matrenamed_14" />
   <polygon points="528.9,691.4 525.4,660.5 526.1,691.6 " fill="rgb(0,0,0)" class="polygon_bl_matrenamed_14" />
   <polygon points="526.1,691.6 525.4,660.5 523.4,691.5 " fill="rgb(0,0,0)" class="polygon_bl_matrenamed_14" />
 </g> 

</svg>