<?xml version="1.0" encoding="UTF-8" standalone="no"?>
<!-- Created with Inkscape (http://www.inkscape.org/) -->

<svg
   version="1.1"
   id="svg1"
   width="973"
   height="444"
   viewBox="0 0 973 444"
   sodipodi:docname="neviditelna_sila.svg"
   inkscape:version="1.3.2 (091e20e, 2023-11-25, custom)"
   xml:space="preserve"
   xmlns:inkscape="http://www.inkscape.org/namespaces/inkscape"
   xmlns:sodipodi="http://sodipodi.sourceforge.net/DTD/sodipodi-0.dtd"
   xmlns="http://www.w3.org/2000/svg"
   xmlns:svg="http://www.w3.org/2000/svg"><defs
     id="defs1" /><sodipodi:namedview
     id="namedview1"
     pagecolor="#505050"
     bordercolor="#eeeeee"
     borderopacity="1"
     inkscape:showpageshadow="0"
     inkscape:pageopacity="0"
     inkscape:pagecheckerboard="0"
     inkscape:deskcolor="#505050"
     inkscape:zoom="0.51888411"
     inkscape:cx="435.55005"
     inkscape:cy="353.64351"
     inkscape:window-width="1280"
     inkscape:window-height="649"
     inkscape:window-x="-8"
     inkscape:window-y="-8"
     inkscape:window-maximized="1"
     inkscape:current-layer="g1" /><g
     inkscape:groupmode="layer"
     inkscape:label="Image"
     id="g1"><rect
       style="fill:#ffffff;stroke-width:0;stroke-linejoin:round;paint-order:markers fill stroke"
       id="rect1"
       width="973"
       height="444.25491"
       x="0"
       y="0" /><path
       style="fill:#000000"
       d="m 39.109183,423 0.143888,-7 H 492.12654 945 v 7 7 H 491.98265 38.965296 Z M 120,324.5 V 318 h 98.5 98.5 v 6.5 6.5 H 218.5 120 Z m 541,0 V 318 h 103 103 v 6.5 6.5 H 764 661 Z M 217.40584,314.23469 c -0.71567,-0.48055 2.48035,-7.48005 9.23931,-20.23469 l 10.33347,-19.5 0.0107,-20.625 c 0.006,-11.34375 -0.27056,-22.03125 -0.61431,-23.75 L 235.75,227 H 217.875 C 200.66667,227 200,226.92541 200,225 c 0,-1.92593 0.66667,-2 18,-2 h 18 v -12.03138 c 0,-10.5961 -0.20877,-12.09267 -1.75,-12.54509 -0.9625,-0.28254 -4.21577,-1.73091 -7.2295,-3.21862 -18.07288,-8.92154 -18.35102,-34.60914 -0.48109,-44.43155 4.006,-2.20194 6.26571,-2.73114 11.74271,-2.75 7.80594,-0.0269 11.84245,1.39109 17.09952,6.00686 5.95461,5.22822 8.072,10.20424 8.072,18.96978 0,5.79295 -0.49899,8.44288 -2.19233,11.64255 -2.84405,5.37404 -9.60208,11.11109 -14.71609,12.49287 -2.22487,0.60114 -4.62164,1.25782 -5.32616,1.45927 -0.97183,0.27789 -1.21314,3.32707 -1,12.6358 L 240.5,223.5 l 19.25,0.27159 c 18.40383,0.25966 19.25,0.35832 19.25,2.24462 0,1.91945 -0.53379,1.95514 -19.66033,1.31457 l -19.66033,-0.65844 0.70058,23.67497 0.70057,23.67498 11.98503,19.54345 c 6.59177,10.7489 11.7221,19.96888 11.40074,20.48885 -1.48633,2.40494 -3.69761,-0.34057 -13.87769,-17.23036 -10.01759,-16.62023 -11.02529,-17.94841 -12.30139,-16.21371 -0.76449,1.03921 -5.21772,9.20198 -9.89608,18.13948 -4.67835,8.9375 -8.81772,16.24311 -9.1986,16.23469 -0.38087,-0.008 -1.18487,-0.34592 -1.78666,-0.75 z m 31.86395,-122.44518 c 2.27777,-1.25923 5.51138,-4.24077 7.18581,-6.62565 2.75657,-3.92619 3.0444,-5.06761 3.0444,-12.07303 0,-6.75078 -0.34765,-8.26222 -2.72761,-11.85858 -4.07173,-6.15281 -10.82752,-9.73425 -18.27239,-9.68672 -16.27259,0.10388 -26.2337,16.56249 -18.91395,31.2513 5.5717,11.18095 18.591,15.12514 29.68374,8.99268 z m 586.34559,122.39718 c -0.27646,-0.44732 4.14738,-9.61442 9.83075,-20.37133 l 10.33339,-19.55802 -0.5375,-23.62867 L 854.70452,227 h -18.42558 c -17.00959,0 -18.39975,-0.13449 -18.08938,-1.75 0.30325,-1.57842 2.12732,-1.77674 18.60392,-2.02268 l 18.26771,-0.27267 -0.28059,-12.12415 -0.2806,-12.12414 -4.59088,-1.33704 c -6.28877,-1.83154 -13.10398,-8.07024 -15.88952,-14.5454 -4.28086,-9.95111 -1.36613,-21.94761 7.0914,-29.18694 5.4591,-4.67278 9.5832,-5.93646 17.84966,-5.46936 5.3681,0.30332 7.7933,1.00925 11.65869,3.3936 5.69698,3.51415 10.82197,11.22759 11.80198,17.76271 0.92409,6.16231 -1.07735,14.06711 -4.80283,18.96906 -3.55382,4.67608 -11.6705,9.64772 -15.80948,9.68365 -1.48004,0.0128 -2.98088,0.49243 -3.33521,1.06573 -0.35432,0.5733 -0.32305,6.4233 0.0695,13 L 859.25698,224 h 19.37151 C 897.3159,224 898,224.07044 898,225.99461 c 0,1.94696 -0.46594,1.97901 -19.5,1.34154 L 859,226.68308 v 22.92587 22.92587 l 12.42116,20.45565 c 6.83163,11.25061 12.20508,20.80527 11.94098,21.23259 -1.40763,2.2776 -3.90909,-0.82096 -13.89882,-17.21647 C 863.4335,287.11022 858.275,279.01522 858,279.01771 c -0.275,0.002 -4.775,8.09877 -10,17.99173 -8.66443,16.40513 -10.92449,19.53979 -12.38462,17.17725 z m 31.10164,-121.54036 c 10.24265,-5.29668 14.98645,-18.11385 10.41732,-28.14633 -2.42363,-5.32157 -9.02398,-11.12392 -14.25656,-12.53291 -8.55493,-2.3036 -18.00424,1.2911 -23.33619,8.87754 -2.7538,3.91818 -3.04159,5.05971 -3.04159,12.06454 0,6.76489 0.34525,8.2586 2.74812,11.88957 3.0187,4.56157 5.83419,6.72267 11.51096,8.83552 4.33836,1.61471 11.82077,1.15149 15.95794,-0.98793 z M 518,308.28056 c -3.19399,-1.15311 -5,-3.67383 -5,-6.97871 0,-2.78785 0.89146,-4.20935 5.03125,-8.02275 2.76719,-2.54902 6.02969,-5.3421 7.25,-6.20684 2.03684,-1.44335 -1.12958,-1.61325 -38.62053,-2.07226 l -40.83927,-0.5 -1.91073,-2.36078 c -2.59843,-3.21048 -2.4002,-6.74065 0.54383,-9.68467 L 446.90909,270 487.20455,269.9889 527.5,269.9778 520.25,263.40603 C 513.97763,257.7205 513,256.37879 513,253.45612 513,249.57935 516.14614,246 519.5537,246 c 1.19712,0 3.47477,1.0012 5.06144,2.22488 3.3251,2.56441 33.38486,28.8434 33.38486,29.18588 0,0.12534 -4.8375,4.45066 -10.75,9.61181 -5.9125,5.16116 -13.675,11.93845 -17.25,15.06065 -6.60811,5.77114 -9.31225,7.16769 -12,6.19734 z m -28.39011,-78.64557 c -5.59645,-3.38766 -8.59932,-8.84629 -8.60103,-15.63499 -0.002,-9.41439 6.37724,-16.54778 15.79693,-17.6634 16.24993,-1.92457 26.09001,17.12632 15.40497,29.82478 -5.22234,6.20639 -15.48144,7.78315 -22.60087,3.47361 z m 14.61629,-0.18993 c 3.72555,-0.88817 9.51541,-7.55071 10.3286,-11.8854 2.57927,-13.74865 -11.03866,-23.94491 -23.49385,-17.59075 -10.31518,5.26242 -11.37941,20.24011 -1.93813,27.27684 2.813,2.09657 8.42807,3.74258 10.8772,3.18855 0.825,-0.18663 2.72678,-0.63179 4.22618,-0.98924 z m -2.01797,-9.73291 C 498.25551,215.68464 498,215.07747 498,209.71215 498,206.57047 498.45,204 499,204 c 0.55,0 1,2.38367 1,5.29705 0,4.86225 0.32834,5.61767 4,9.20295 3.85976,3.76895 4.8695,5.5 3.20821,5.5 -0.43549,0 -2.68549,-1.92953 -5,-4.28785 z"
       id="path1"
       sodipodi:nodetypes="cccccccccccccccccccccccccccssccscssscssssssssssscssscccssssscsssssssssscccssscccsssssssssscssscccssscssssssssssssssscsscccssssssssscssssssssssssssss" /><path
       style="fill:#000000"
       d="m 175.72257,129.09659 -1.31121,-1.25815 V 110.87881 93.919185 l 1.0496,-0.946145 c 0.57728,-0.52038 1.73663,-1.135208 2.57633,-1.366285 1.91395,-0.526699 30.50744,-0.540096 32.86391,-0.0154 0.94903,0.211313 2.21063,0.821521 2.80358,1.356017 l 1.07807,0.971811 v 16.959625 16.95963 l -1.31121,1.25815 -1.31121,1.25815 H 194.5971 177.03378 Z m 36.81742,-0.89395 c 0.86548,-0.83045 0.89714,-1.43473 0.89714,-17.12098 0,-14.020088 -0.0962,-16.391938 -0.69829,-17.216761 l -0.69829,-0.956608 H 194.5971 177.15366 l -0.69829,0.956608 c -0.60209,0.824823 -0.69829,3.196673 -0.69829,17.216761 0,15.68625 0.0317,16.29053 0.89714,17.12098 0.86567,0.83064 1.49524,0.86084 17.94288,0.86084 16.44765,0 17.07722,-0.0302 17.94289,-0.86084 z m -8.97144,-6.92391 c -1.02573,-0.6357 -14.26211,-7.5854 -16.9336,-8.89091 -1.29525,-0.63296 -2.355,-1.25828 -2.355,-1.38959 0,-0.32419 20.22783,-10.8759 20.4467,-10.66589 0.0955,0.0916 -0.93635,2.52251 -2.29302,5.40193 l -2.46666,5.23532 2.28518,4.85036 c 1.25685,2.6677 2.39159,5.09247 2.52164,5.38839 0.27684,0.6299 -0.25256,0.66082 -1.20524,0.0704 z m 15.86466,8.3132 c -1.90718,-1.48236 -1.959,-1.97702 -1.95725,-18.68535 0.002,-15.148742 0.0512,-16.139391 0.87381,-17.433852 0.58603,-0.92222 1.43161,-1.521524 2.57761,-1.82688 2.29359,-0.611136 31.62027,-0.611136 33.91386,0 1.146,0.305356 1.99158,0.90466 2.57762,1.82688 0.82257,1.294461 0.87223,2.28511 0.87381,17.433852 0.002,16.70833 -0.0501,17.20299 -1.95726,18.68535 -0.86999,0.6762 -2.54385,0.74367 -18.4511,0.74367 -15.90725,0 -17.58111,-0.0675 -18.4511,-0.74367 z m 36.58572,-1.66254 c 0.90222,-1.10058 0.9297,-1.60129 0.9297,-16.9435 0,-15.342219 -0.0275,-15.842928 -0.9297,-16.943506 l -0.92971,-1.134093 H 237.88431 220.6794 l -0.9297,1.134093 c -0.90223,1.100578 -0.9297,1.601287 -0.9297,16.943506 0,15.34221 0.0275,15.84292 0.9297,16.9435 l 0.9297,1.13409 h 17.20491 17.20491 z M 235.59477,117.1512 c -1.18163,-2.08891 -3.69946,-6.50965 -5.59519,-9.82388 -1.89573,-3.31422 -3.37546,-6.10128 -3.28828,-6.19345 0.0872,-0.0922 1.42562,0.4105 2.97432,1.11706 1.54871,0.70656 4.04611,1.8118 5.5498,2.45609 l 2.73397,1.17145 5.31325,-2.40477 c 2.92229,-1.32262 5.44799,-2.35245 5.61266,-2.2885 0.27018,0.10491 -10.15432,18.81066 -10.85726,19.48229 -0.16217,0.15494 -1.26164,-1.42739 -2.44327,-3.51629 z m 26.70222,11.94539 -1.31121,-1.25815 v -16.72367 c 0,-14.764576 0.0857,-16.841069 0.73148,-17.725756 1.51945,-2.081526 2.58475,-2.202399 19.41065,-2.202399 16.21352,0 17.30455,0.103618 19.22007,1.825375 l 1.00929,0.907195 v 16.959625 16.95963 l -1.31122,1.25815 -1.31121,1.25815 H 281.17152 263.6082 Z m 36.81741,-0.89395 c 0.86548,-0.83045 0.89715,-1.43473 0.89715,-17.12098 0,-14.020088 -0.0962,-16.391938 -0.6983,-17.216761 l -0.69829,-0.956608 h -17.44344 -17.44344 l -0.69829,0.956608 c -0.6021,0.824823 -0.6983,3.196673 -0.6983,17.216761 0,15.68625 0.0317,16.29053 0.89715,17.12098 0.86566,0.83064 1.49524,0.86084 17.94288,0.86084 16.44764,0 17.07722,-0.0302 17.94288,-0.86084 z m -28.11957,-6.9943 c 0.13006,-0.29592 1.26479,-2.72069 2.52164,-5.38839 l 2.28518,-4.85036 -2.46666,-5.23532 c -1.35666,-2.87942 -2.38852,-5.31029 -2.29302,-5.40193 0.21887,-0.21001 20.44671,10.3417 20.44671,10.66589 0,0.13131 -1.05975,0.75811 -2.355,1.39288 -1.29526,0.63477 -4.57544,2.33373 -7.2893,3.77546 -7.55927,4.01583 -10.60182,5.57979 -10.85499,5.57979 -0.12706,0 -0.12461,-0.24211 0.005,-0.53802 z M 220.80209,88.571788 c -0.76021,-0.211802 -1.7695,-0.795516 -2.24286,-1.297141 -0.81125,-0.859688 -0.86814,-1.842237 -0.99094,-17.115658 -0.0716,-8.911986 -0.013,-16.655919 0.13029,-17.208739 0.1433,-0.55282 0.78651,-1.472841 1.42935,-2.04449 l 1.16879,-1.039363 17.54095,0.0096 c 15.94237,0.0087 17.62815,0.07734 18.49774,0.753233 1.90719,1.48236 1.959,1.977027 1.95726,18.685357 -0.002,15.148739 -0.0512,16.139388 -0.87381,17.433849 -0.58604,0.92222 -1.43162,1.521524 -2.57762,1.82688 -2.09445,0.558077 -32.03456,0.554999 -34.03915,-0.0035 z m 35.21684,-2.393037 c 0.90222,-1.100578 0.9297,-1.601287 0.9297,-16.943502 0,-15.342215 -0.0275,-15.842923 -0.9297,-16.943502 l -0.92971,-1.134093 h -17.20491 l -17.20491,0 -0.9297,1.134093 c -0.90223,1.100579 -0.9297,1.601287 -0.9297,16.943502 0,15.342215 0.0275,15.842924 0.9297,16.943502 l 0.9297,1.134094 h 17.20491 17.20491 z m -28.02546,-9.733985 c 0.84192,-1.479565 3.31086,-5.818853 5.48652,-9.642864 2.17566,-3.82401 4.13973,-6.988495 4.3646,-7.032188 0.41459,-0.08056 11.49,19.009086 11.20764,19.31755 -0.0844,0.09217 -1.42053,-0.410502 -2.96923,-1.117058 -1.5487,-0.706556 -4.03571,-1.807323 -5.52669,-2.446148 l -2.71087,-1.161501 -4.46629,1.970886 c -2.45645,1.083988 -4.81679,2.157762 -5.24519,2.386164 -1.59914,0.852576 -1.63056,0.343751 -0.14049,-2.274841 z"
       id="path4" /><path
       style="fill:#ff0000;stroke-width:0;stroke-linejoin:round;paint-order:markers fill stroke"
       d="m 212.77018,52.96998 59.74358,71.30687 -10.59966,6.74524 -59.74359,-71.306866 z"
       id="path7" /><path
       style="fill:#ff0000;stroke-width:0;stroke-linejoin:round;paint-order:markers fill stroke"
       d="m 263.95822,53.651352 -59.74358,71.306878 10.59966,6.74524 59.74359,-71.306874 z"
       id="path8" /></g></svg>
