<?xml version="1.0" encoding="UTF-8" standalone="no"?>
<!-- Created with Inkscape (http://www.inkscape.org/) -->

<svg
   version="1.1"
   id="svg1"
   width="1141"
   height="291"
   viewBox="0 0 1141 291"
   sodipodi:docname="Rozcestniky.svg"
   inkscape:version="1.3.2 (091e20e, 2023-11-25, custom)"
   xmlns:inkscape="http://www.inkscape.org/namespaces/inkscape"
   xmlns:sodipodi="http://sodipodi.sourceforge.net/DTD/sodipodi-0.dtd"
   xmlns="http://www.w3.org/2000/svg"
   xmlns:svg="http://www.w3.org/2000/svg">
  <defs
     id="defs1" />
  <sodipodi:namedview
     id="namedview1"
     pagecolor="#505050"
     bordercolor="#eeeeee"
     borderopacity="1"
     inkscape:showpageshadow="0"
     inkscape:pageopacity="0"
     inkscape:pagecheckerboard="0"
     inkscape:deskcolor="#505050"
     inkscape:zoom="0.442484"
     inkscape:cx="501.71306"
     inkscape:cy="294.92592"
     inkscape:window-width="1280"
     inkscape:window-height="649"
     inkscape:window-x="-8"
     inkscape:window-y="-8"
     inkscape:window-maximized="1"
     inkscape:current-layer="g1" />
  <g
     inkscape:groupmode="layer"
     inkscape:label="Image"
     id="g1">
    <rect
       style="fill:#ffffff;stroke-width:0;stroke-linejoin:round;paint-order:markers fill stroke"
       id="rect3"
       width="1140.6223"
       height="289.93796"
       x="0.79901958"
       y="0.79901958" />
    <path
       style="fill:#000000"
       d="M 37,274.5 V 268 h 6.428571 c 4.03497,0 6.926752,-0.49818 7.766551,-1.33798 C 52.731248,265.12589 65.11761,260 67.293425,260 c 0.798773,0 4.667644,-3.38491 8.597492,-7.52201 L 83.036093,244.95597 82.768047,221.22799 82.5,197.5 l -2.75,0.32157 c -1.717857,0.20087 -2.75,-0.15236 -2.75,-0.94113 0,-0.70887 -0.643961,-0.41131 -1.468197,0.67843 C 74.404517,199.04928 74.048837,199.15171 74,198 c -0.05316,-1.25364 -0.271835,-1.22619 -1.331425,0.1671 -0.6973,0.9169 -3.002098,1.99244 -5.121774,2.3901 l -3.853957,0.723 0.583318,-3.59456 c 0.442863,-2.72904 0.08768,-4.22467 -1.475103,-6.21142 -1.159566,-1.47415 -1.674725,-2.9785 -1.179739,-3.44503 0.483274,-0.45549 4.92868,-1.82335 9.87868,-3.03969 4.95,-1.21633 9.475772,-2.59468 10.057271,-3.063 0.615417,-0.49564 1.029339,-4.73292 0.990433,-10.13899 L 82.480866,162.5 64.53144,162.22607 46.582014,161.95215 43.60065,158.90274 c -2.334867,-2.38816 -2.685438,-3.2323 -1.616682,-3.89283 0.967935,-0.59822 0.516993,-0.9403 -1.551092,-1.17667 -4.214292,-0.48165 -3.973253,-2.66916 0.901381,-8.18036 l 4.28726,-4.84712 18.439242,-0.15288 L 82.5,140.5 l 0.2969,-7.4031 c 0.163295,-4.07171 -0.104467,-7.80447 -0.595027,-8.29503 -0.490559,-0.49056 -9.96709,-1.70209 -21.058957,-2.69229 -11.091867,-0.9902 -20.431666,-2.065 -20.755109,-2.38844 C 39.380714,118.71405 41.026135,117 43,117 c 1.035081,0 2.160081,-0.45 2.5,-1 0.339919,-0.55 -0.131669,-1 -1.047972,-1 -1.20929,0 -1.457833,-0.47974 -0.906634,-1.75 0.417655,-0.9625 0.965033,-3.2125 1.216395,-5 0.43912,-3.12269 0.638813,-3.25248 5.097617,-3.31339 4.196302,-0.0573 4.401243,-0.16468 2.140594,-1.12139 -1.375,-0.58191 -3.82097,-1.3534 -5.435488,-1.71442 -2.079674,-0.46503 -3.147739,-1.45004 -3.663517,-3.378601 -0.892097,-3.335677 -1.636057,-3.295586 20.653563,-1.112999 9.038656,0.885059 17.111512,1.349182 17.939681,1.031384 C 82.598096,98.216995 83,96.499453 83,92.205699 c 0,-4.829359 0.406106,-6.238587 2.314451,-8.031385 2.987739,-2.806835 3.767545,-2.742194 6.944862,0.575686 2.19728,2.294485 2.683784,3.826671 2.937092,9.25 l 0.303595,6.5 4.498194,0.31963 c 2.474006,0.17579 5.278066,1.02539 6.231246,1.88801 1.3328,1.20617 2.0541,1.30193 3.12321,0.41465 0.96075,-0.79735 4.08824,-0.94634 10.12484,-0.48233 9.77369,0.75127 10.48121,1.1935 14.90087,9.31389 l 2.64918,4.8674 -4.76377,5.59203 -4.76377,5.59202 -8,-0.63977 c -4.4,-0.35187 -8.11182,-0.91556 -8.24849,-1.25265 -0.13666,-0.33708 -2.72416,-0.45873 -5.75,-0.27033 C 102.27743,126.0433 100,125.77177 100,125.18663 c 0,-0.6225 -0.938416,-0.56321 -2.492198,0.15746 -2.315304,1.07386 -2.492752,1.66405 -2.5,8.31489 L 95,140.81795 l 10.45873,0.34103 c 8.95552,0.292 10.66204,0.61941 11.87328,2.27796 1.38487,1.89631 1.42911,1.89106 2.10866,-0.25 C 120.0777,141.17981 120.787,141 128.06739,141 c 8.57352,0 9.88536,1.04725 6.07939,4.85322 -1.18217,1.18217 -1.81585,3.17393 -1.75,5.5006 0.0991,3.50089 -0.0373,3.65197 -3.39678,3.76178 l -3.5,0.1144 3.80085,0.73585 c 4.51811,0.87471 6.19446,2.30101 5.33543,4.5396 -0.55421,1.44426 -2.60557,1.60724 -17.19561,1.36616 -13.13554,-0.21705 -16.7325,-0.57066 -17.3687,-1.70748 -0.662131,-1.18317 -1.17545,-1.06065 -2.937164,0.70106 C 95.310866,162.68913 95,164.16494 95,171 c 0,4.73333 0.413502,8 1.012658,8 0.556963,0 4.260422,-0.9 8.229902,-2 9.24043,-2.56065 9.70949,-2.53467 13.53987,0.75 l 3.20688,2.75 -1.84078,4 c -1.80762,3.92796 -2.01014,4.04186 -11.24465,6.32439 -5.17213,1.27841 -10.164447,2.53769 -11.094028,2.79839 -1.529186,0.42886 -1.690772,2.86565 -1.696704,25.58704 l -0.0066,25.11303 4.196704,3.79756 c 2.308188,2.08866 4.728888,3.81602 5.379318,3.83858 0.65044,0.0225 1.46162,0.92006 1.80262,1.99446 0.55788,1.75774 9.35629,9.04655 10.92019,9.04655 0.3506,0 2.34042,1.12697 4.42182,2.50437 l 3.78436,2.50437 451.9442,-0.25437 L 1029.5,267.5 l 5.787,-2.71164 c 3.1829,-1.4914 7.4268,-3.01925 9.431,-3.39523 2.7901,-0.52343 5.3628,-2.45922 10.9805,-8.26213 l 7.3366,-7.57852 -0.2675,-23.52624 L 1062.5,198.5 l -2.75,-0.31642 c -1.5125,-0.17403 -2.75,-0.82254 -2.75,-1.44113 0,-0.61859 -0.6607,-0.2512 -1.4682,0.81642 -0.969,1.28107 -1.479,1.47841 -1.5,0.58035 -0.021,-0.91553 -0.6044,-0.70588 -1.7818,0.64074 -0.9625,1.10084 -3.2715,2.27624 -5.131,2.61199 l -3.3811,0.61047 0.5925,-3.651 c 0.4407,-2.71597 0.09,-4.35645 -1.369,-6.40558 -1.0788,-1.51502 -1.9614,-2.96983 -1.9614,-3.2329 0,-0.26308 4.1625,-1.48172 9.25,-2.7081 5.0875,-1.22637 9.9442,-2.59505 10.7926,-3.04149 1.2372,-0.65104 1.5305,-2.75681 1.4814,-10.63754 l -0.061,-9.82581 -18.3883,-0.27316 c -18.2259,-0.27076 -18.4089,-0.29548 -20.7314,-2.80153 -2.806,-3.02768 -2.8685,-3.39824 -0.5932,-3.5155 0.9625,-0.0496 0.2663,-0.51795 -1.547,-1.04078 -5.0709,-1.46201 -5.0406,-3.39981 0.1338,-8.57428 l 4.5937,-4.59364 18.2847,-0.10056 L 1062.5,141.5 v -7.92805 -7.92806 l -3,-0.80634 c -1.65,-0.44349 -8.85,-1.26526 -16,-1.82616 -25.2114,-1.97775 -27.0254,-2.46391 -20.25,-5.42695 2.1904,-0.95789 2.6414,-1.44789 1.3834,-1.50287 -1.4694,-0.0642 -1.7155,-0.56039 -1.1565,-2.33157 0.3905,-1.2375 0.9441,-3.4875 1.2301,-5 0.477,-2.52236 0.9038,-2.75324 5.1565,-2.78914 l 4.6365,-0.0391 -3.3648,-1.46086 c -1.8507,-0.80347 -4.1866,-1.46086 -5.191,-1.46086 -2.0827,0 -2.4096,-0.4212 -3.3379,-4.301303 -0.6481,-2.709253 -0.5623,-2.782422 2.6118,-2.226732 5.8037,1.016069 36.1935,3.391707 37.0012,2.892476 0.4294,-0.265361 0.7807,-3.137706 0.7807,-6.382989 0,-5.112584 0.3574,-6.231872 2.6761,-8.381926 4.8493,-4.49649 9.3239,0.305667 9.3239,10.006349 0,6.718005 0.6313,7.348535 7.3898,7.380475 1.5893,0.008 3.4933,0.80115 4.231,1.76365 1.1231,1.46545 1.4917,1.52113 2.2666,0.34245 0.7605,-1.15677 2.6659,-1.24585 10.694,-0.5 l 9.7686,0.90755 3.8804,6.35999 c 4.3647,7.15361 4.6048,6.04327 -3.1,14.33816 -3.4277,3.6902 -3.4492,3.69701 -10.0327,3.1658 -3.6287,-0.29279 -7.2727,-0.79509 -8.0977,-1.11622 -0.825,-0.32113 -3.5877,-0.47055 -6.1392,-0.33206 -2.5516,0.1385 -4.9034,-0.17552 -5.2262,-0.69782 -0.3228,-0.5223 -1.7226,-0.73252 -3.1107,-0.46716 -2.4443,0.46725 -2.5239,0.73113 -2.5239,8.36589 V 142 h 9.5 c 5.225,0 9.6778,-0.1125 9.895,-0.25 0.2173,-0.1375 1.3329,0.59875 2.4792,1.63612 1.883,1.70412 2.1447,1.72825 2.7119,0.25 0.508,-1.32361 2.1355,-1.63612 8.5209,-1.63612 4.3411,0 7.893,0.38931 7.893,0.86514 0,0.47583 -0.8384,1.93833 -1.8632,3.25 -1.1347,1.45245 -1.8189,3.85123 -1.75,6.13546 0.109,3.61283 -0.015,3.75645 -3.3868,3.91004 l -3.5,0.15943 3.496,0.42167 c 3.9129,0.47195 6.004,1.82356 6.004,3.8807 0,1.1176 -3.3024,1.37756 -17.5,1.37756 -14.8889,0 -17.5,-0.22381 -17.5,-1.5 0,-0.825 -0.45,-1.5 -1,-1.5 -0.55,0 -1,0.675 -1,1.5 0,0.825 -0.6925,1.5 -1.5389,1.5 -1.29,0 -1.4922,1.41534 -1.25,8.75 0.3336,10.10298 -0.3932,9.69936 11.5709,6.42557 l 7.282,-1.9926 3.218,2.60831 c 1.7699,1.43457 3.3257,2.66356 3.4572,2.7311 0.1316,0.0675 -0.4996,2.00378 -1.4027,4.30277 -1.4186,3.61156 -2.1991,4.31484 -5.7392,5.17154 -2.2535,0.54535 -6.3473,1.65766 -9.0973,2.47179 -2.75,0.81414 -5.9,1.6103 -7,1.76926 -1.9324,0.27924 -2.0071,1.13315 -2.21,25.27563 l -0.21,24.98663 4.1682,4.25 c 2.2925,2.3375 4.7495,4.25 5.46,4.25 0.7105,0 1.2918,0.42719 1.2918,0.94931 0,1.81517 6.4939,7.00218 12.7279,10.16638 L 1105,267.29923 V 274.14961 281 H 571 37 Z m 70,-14.35494 c 0,-0.47022 -2.5875,-3.28272 -5.75,-6.25 L 95.5,248.5 l -0.311109,4.3239 c -0.381036,5.29578 0.869563,6.94901 5.637219,7.45217 2.02064,0.21325 4.23639,0.46337 4.92389,0.55583 0.6875,0.0924 1.25,-0.21662 1.25,-0.68684 z m 980,0.39501 c 0,-0.63117 -9.9812,-9.95936 -11.0996,-10.3734 -0.4952,-0.18334 -0.9004,1.7068 -0.9004,4.20031 0,3.26279 0.4906,4.81936 1.75,5.55292 1.7213,1.00257 10.25,1.5186 10.25,0.62017 z M 82.816422,254.68314 c 0.40444,-3.42949 -0.760036,-3.39521 -4.129331,0.12158 -3.801727,3.96815 -3.570874,5.55989 0.562909,3.88129 2.358039,-0.95752 3.336842,-2.05611 3.566422,-4.00287 z m 977.618478,4.34161 c 1.7963,-0.68293 2.5651,-1.71431 2.5651,-3.44098 0,-3.83904 -1.6311,-3.93397 -4.4348,-0.25811 -3.713,4.868 -3.3087,5.66792 1.8697,3.69909 z m -8.6732,-112.71183 c -0.9561,-0.25029 -2.7561,-0.25937 -4,-0.0202 -1.244,0.23919 -0.4617,0.44398 1.7383,0.45508 2.2,0.0111 3.2177,-0.18461 2.2617,-0.4349 z M 71.75,145.31067 c -0.9625,-0.25152 -2.5375,-0.25152 -3.5,0 -0.9625,0.25153 -0.175,0.45733 1.75,0.45733 1.925,0 2.7125,-0.2058 1.75,-0.45733 z M 72,114 c 0,-0.55 -1.773442,-1 -3.940983,-1 -2.167541,0 -4.219098,0.45 -4.559017,1 -0.377502,0.61081 1.156282,1 3.940983,1 C 69.948442,115 72,114.55 72,114 Z m 979,0 c -0.825,-0.53316 -2.4,-0.96937 -3.5,-0.96937 -1.1,0 -2.675,0.43621 -3.5,0.96937 -1.0779,0.69658 -0.093,0.96937 3.5,0.96937 3.5929,0 4.5779,-0.27279 3.5,-0.96937 z M 683.08637,265.05338 c -1.05333,-0.651 0.90468,-5.13231 8.77896,-20.09243 L 702,225.70638 V 201.85319 178 h -18.5 c -17.83333,0 -18.5,-0.0721 -18.5,-2 0,-1.92843 0.66667,-2 18.63084,-2 h 18.63084 l -0.61983,-3.75 c -0.34091,-2.0625 -0.62479,-7.58188 -0.63084,-12.26528 l -0.011,-8.51528 -5.07026,-1.8008 C 685.32165,143.90098 679,134.923 679,123.62509 c 0,-16.446 14.60636,-28.269344 30.52305,-24.707345 18.31072,4.097765 25.85607,26.933145 13.622,41.225905 -3.62212,4.23163 -11.8827,8.82916 -15.89505,8.84658 -2.21281,0.01 -2.25,0.21637 -2.25,12.50977 V 174 h 20 c 19.26211,0 20,0.073 20,1.97886 0,1.8957 -0.82819,1.99025 -19.70667,2.25 l -19.70668,0.27114 0.29695,22.88382 0.29694,22.88383 11.96268,19.507 C 728.87084,261.26769 731.00804,266 728.18062,266 c -0.48518,0 -5.7868,-8.08878 -11.78138,-17.97506 -5.99458,-9.88629 -11.28202,-17.8587 -11.74985,-17.71647 -0.46784,0.14224 -4.96784,7.97124 -10,17.39779 -5.03217,9.42656 -9.38742,17.3745 -9.67835,17.66209 -0.29093,0.2876 -1.13903,0.14586 -1.88467,-0.31497 z m 26.60572,-120.54546 c 7.44744,-1.49643 14.14251,-9.07838 15.72808,-17.81154 2.1802,-12.00832 -8.98416,-24.73932 -21.63805,-24.67442 -19.46553,0.0998 -28.74458,25.7345 -13.85137,38.26631 3.7206,3.13068 11.63636,5.84062 15.06925,5.15892 0.825,-0.16383 2.93644,-0.5865 4.69209,-0.93927 z m 247.39428,120.54546 c -1.05333,-0.651 0.90468,-5.13231 8.77896,-20.09243 L 976,225.70638 V 201.85319 178 h -18.5 c -17.83333,0 -18.5,-0.0721 -18.5,-2 0,-1.92843 0.66667,-2 18.63084,-2 h 18.63084 l -0.61983,-3.75 c -0.34091,-2.0625 -0.62479,-7.58188 -0.63084,-12.26528 l -0.011,-8.51528 -5.07026,-1.8008 C 959.32165,143.90098 953,134.923 953,123.62509 c 0,-16.446 14.60636,-28.269344 30.52305,-24.707345 18.31075,4.097765 25.85605,26.933145 13.622,41.225905 -3.62212,4.23163 -11.8827,8.82916 -15.89505,8.84658 -2.21281,0.01 -2.25,0.21637 -2.25,12.50977 V 174 h 20 c 19.2621,0 20,0.073 20,1.97886 0,1.8957 -0.8282,1.99025 -19.70667,2.25 l -19.70668,0.27114 0.29695,22.88382 0.29694,22.88383 11.96268,19.507 C 1002.8708,261.26769 1005.008,266 1002.1806,266 c -0.4852,0 -5.78678,-8.08878 -11.78136,-17.97506 -5.99458,-9.88629 -11.28202,-17.8587 -11.74985,-17.71647 -0.46784,0.14224 -4.96784,7.97124 -10,17.39779 -5.03217,9.42656 -9.38742,17.3745 -9.67835,17.66209 -0.29093,0.2876 -1.13903,0.14586 -1.88467,-0.31497 z m 26.60572,-120.54546 c 7.44744,-1.49643 14.14251,-9.07838 15.72808,-17.81154 2.18023,-12.00832 -8.98416,-24.73932 -21.63805,-24.67442 -19.46553,0.0998 -28.74458,25.7345 -13.85137,38.26631 3.7206,3.13068 11.63636,5.84062 15.06925,5.15892 0.825,-0.16383 2.93644,-0.5865 4.69209,-0.93927 z M 157.40584,264.23469 c -0.71567,-0.48055 2.48035,-7.48005 9.23931,-20.23469 l 10.33347,-19.5 0.0107,-20.625 c 0.006,-11.34375 -0.27056,-22.03125 -0.61431,-23.75 L 175.75,177 H 157.875 C 140.66667,177 140,176.92541 140,175 c 0,-1.92593 0.66667,-2 18,-2 h 18 v -12.03138 c 0,-10.5961 -0.20877,-12.09267 -1.75,-12.54509 -0.9625,-0.28254 -4.21577,-1.73091 -7.2295,-3.21862 -18.07288,-8.92154 -18.35102,-34.60914 -0.48109,-44.43155 4.006,-2.201939 6.26571,-2.731137 11.74271,-2.750001 7.80594,-0.02688 11.84245,1.391091 17.09952,6.006861 5.95461,5.22822 8.072,10.20424 8.072,18.96978 0,5.79295 -0.49899,8.44288 -2.19233,11.64255 -2.84405,5.37404 -9.60208,11.11109 -14.71609,12.49287 -2.22487,0.60114 -4.62164,1.25782 -5.32616,1.45927 -0.97183,0.27789 -1.21314,3.32707 -1,12.6358 L 180.5,173.5 l 19.25,0.27159 c 18.40383,0.25966 19.25,0.35832 19.25,2.24462 0,1.91945 -0.53379,1.95514 -19.66033,1.31457 l -19.66033,-0.65844 0.70058,23.67497 0.70057,23.67498 11.98503,19.54345 c 6.59177,10.7489 11.7221,19.96888 11.40074,20.48885 -1.48633,2.40494 -3.69761,-0.34057 -13.87769,-17.23036 -10.01759,-16.62023 -11.02529,-17.94841 -12.30139,-16.21371 -0.76449,1.03921 -5.21772,9.20198 -9.89608,18.13948 -4.67835,8.9375 -8.81772,16.24311 -9.1986,16.23469 -0.38087,-0.008 -1.18487,-0.34592 -1.78666,-0.75 z m 31.86395,-122.44518 c 2.27777,-1.25923 5.51138,-4.24077 7.18581,-6.62565 2.75657,-3.92619 3.0444,-5.06761 3.0444,-12.07303 0,-6.75078 -0.34765,-8.26222 -2.72761,-11.85858 -4.07173,-6.15281 -10.82752,-9.73425 -18.27239,-9.68672 -16.27259,0.10388 -26.2337,16.56249 -18.91395,31.2513 5.5717,11.18095 18.591,15.12514 29.68374,8.99268 z m 225.00257,122.03867 c -0.86929,-1.04743 1.2088,-5.74722 9.21489,-20.8403 L 433.82455,223.5 433.26672,200.39306 432.7089,177.28612 422.19889,176.64306 C 416.41838,176.28938 408.15888,176 403.84444,176 397.53827,176 396,175.70585 396,174.5 c 0,-1.27928 2.72222,-1.5 18.5,-1.5 H 433 V 160.51905 148.0381 l -2.75,-0.64627 c -4.85788,-1.14165 -12.185,-5.61783 -14.79307,-9.03718 -9.87048,-12.94087 -5.90857,-31.07368 8.42554,-38.561912 19.30302,-10.084018 41.84788,8.423592 35.7621,29.357952 -2.70414,9.30193 -10.66294,16.63652 -19.94108,18.37711 -4.24464,0.7963 -4.18005,0.45113 -3.05375,16.31858 L 437.29949,173 h 19.35025 C 475.33333,173 476,173.0689 476,175 c 0,1.93162 -0.66667,2 -19.5,2 H 437 l 0.0453,22.75 0.0453,22.75 12.36406,20 c 8.97809,14.52289 12.084,20.3393 11.34141,21.23899 -0.56245,0.68144 -1.38306,1.01624 -1.82358,0.74398 -0.44051,-0.27225 -5.59841,-8.36729 -11.462,-17.98899 C 441.64687,236.87229 436.45915,229 435.98219,229 c -0.47696,0 -4.69494,7.3125 -9.37329,16.25 -10.2332,19.54943 -10.80981,20.41777 -12.33654,18.57818 z M 447.22943,140.44773 C 452.18758,137.01103 457,128.50925 457,123.1867 c 0,-13.45655 -10.33988,-22.98117 -23.88465,-22.00142 -21.57181,1.56036 -26.41172,31.53734 -6.61535,40.97358 6.0837,2.89988 15.15769,2.15086 20.72943,-1.71113 z M 315.75,197.9199 c -3.27824,-1.9094 -2.12409,-5.97624 3,-10.57098 l 4.75,-4.2593 -26.52749,-0.0448 c -22.34037,-0.0377 -26.8783,-0.29052 -28.75,-1.60151 -2.75363,-1.92872 -2.91219,-6.00383 -0.28825,-7.40812 C 269.12835,173.39612 280.03417,173 296.43426,173 311.04542,173 323,172.78427 323,172.5206 c 0,-0.26368 -2.025,-2.34599 -4.5,-4.62736 -4.54726,-4.19152 -5.6278,-7.36544 -3.3,-9.69324 2.5463,-2.5463 5.60155,-0.93442 17.02357,8.98128 9.82516,8.52943 11.52544,10.41748 10.5,11.6596 -2.62718,3.18233 -22.88349,20.1574 -24.01953,20.12871 -0.66222,-0.0167 -1.99154,-0.48908 -2.95404,-1.04969 z m 260.90499,-0.74864 c -2.51984,-2.78439 -2.06235,-4.18898 3.05742,-9.38691 L 584.42482,183 h -26.71241 c -25.37908,0 -26.81224,-0.0998 -28.71241,-2 -2.40772,-2.40772 -2.53533,-4.32182 -0.42857,-6.42857 C 529.92219,173.22066 533.92424,173 557.07143,173 571.89837,173 584,172.60474 584,172.12046 c 0,-0.48374 -2.025,-2.53887 -4.5,-4.56695 -4.58921,-3.76051 -5.71163,-6.94188 -3.3,-9.35351 2.69916,-2.69916 5.8058,-1.08995 17.2741,8.94781 6.37671,5.58129 11.4662,10.45086 11.30996,10.82126 -0.15623,0.37039 -4.10906,4.02739 -8.78406,8.12666 -16.30309,14.29534 -16.38743,14.34362 -19.34501,11.07553 z M 849,197 c -1.37216,-2.56391 -0.29365,-4.59854 4.94755,-9.33365 C 856.1764,185.65272 858,183.77903 858,183.5026 858,183.22617 845.715,183 830.7,183 c -28.6781,0 -29.7,-0.15483 -29.7,-4.5 0,-4.34517 1.0219,-4.5 29.7,-4.5 15.015,0 27.3,-0.22617 27.3,-0.5026 0,-0.27643 -1.8236,-2.15012 -4.05245,-4.16375 -5.16805,-4.66902 -6.31586,-6.77694 -5.0144,-9.20874 1.84984,-3.45647 4.7857,-3.20816 9.83837,0.83209 8.83819,7.06726 19.12313,16.5394 19.04834,17.543 -0.041,0.55 -5.07972,5.37909 -11.19719,10.73131 C 854.85076,199.53065 851.21268,201.13444 849,197 Z"
       id="path1"
       sodipodi:nodetypes="ccsssscccsssssscsssssscccsssscccssssssssscssssssssscssssscccsssssscssssssscssssssssscsssscscssscccssscccssscsscsssssccssssscccccssssssscsssssssscssscsssssssscssssssssscssssssssscssssssscssssccccccsscsscssssssssssssssssssssssssssssssssssscccssscsscsssscscssscccssssssssssssssscccssscsscsssscscssscccsssssssssssssssccscssscssssssssssscssscccssssscsssssssssscccsssscccsssssscssscccsssssssssssssscssssssssssssscssssssssssssssssssssssss" />
    <rect
       style="display:inline;fill:#ff5a08;fill-opacity:1;stroke:#000000;stroke-width:2.76314;stroke-linecap:round;stroke-linejoin:bevel;stroke-dasharray:none;stroke-dashoffset:0;stroke-opacity:1;paint-order:markers fill stroke"
       id="rect1"
       width="145.70303"
       height="10.889822"
       x="906.44043"
       y="56.146282" />
    <rect
       style="display:inline;fill:#ffffff;fill-opacity:1;stroke:none;stroke-width:0;stroke-linejoin:round;stroke-dasharray:none;stroke-opacity:1;paint-order:markers fill stroke"
       id="rect15"
       width="143.74467"
       height="8.0387812"
       x="907.70898"
       y="57.575909"
       ry="0" />
    <rect
       style="display:inline;fill:#00ff00;fill-opacity:1;stroke:#000000;stroke-width:2.76314;stroke-linecap:round;stroke-linejoin:bevel;stroke-dasharray:none;stroke-dashoffset:0;stroke-opacity:1;paint-order:markers fill stroke"
       id="rect4"
       width="145.70303"
       height="10.889822"
       x="635.57275"
       y="56.146282" />
    <rect
       style="display:inline;fill:#ffffff;fill-opacity:1;stroke:none;stroke-width:0;stroke-linejoin:round;stroke-dasharray:none;stroke-opacity:1;paint-order:markers fill stroke"
       id="rect5"
       width="46.898823"
       height="8.0387812"
       x="733.68713"
       y="57.575909"
       ry="0" />
    <rect
       style="display:inline;fill:#00ff00;fill-opacity:1;stroke:#000000;stroke-width:2.76314;stroke-linecap:round;stroke-linejoin:bevel;stroke-dasharray:none;stroke-dashoffset:0;stroke-opacity:1;paint-order:markers fill stroke"
       id="rect6"
       width="145.70303"
       height="10.889822"
       x="362.30804"
       y="55.347263" />
    <rect
       style="display:inline;fill:#ffffff;fill-opacity:1;stroke:none;stroke-width:0;stroke-linejoin:round;stroke-dasharray:none;stroke-opacity:1;paint-order:markers fill stroke"
       id="rect7"
       width="110.74294"
       height="8.0387812"
       x="396.57831"
       y="56.77689"
       ry="0" />
    <rect
       style="display:inline;fill:#ff5a08;fill-opacity:1;stroke:#000000;stroke-width:2.76314;stroke-linecap:round;stroke-linejoin:bevel;stroke-dasharray:none;stroke-dashoffset:0;stroke-opacity:1;paint-order:markers fill stroke"
       id="rect8"
       width="145.70303"
       height="10.889822"
       x="101.02863"
       y="56.945301" />
    <rect
       style="display:inline;fill:#ffffff;fill-opacity:1;stroke:none;stroke-width:0;stroke-linejoin:round;stroke-dasharray:none;stroke-opacity:1;paint-order:markers fill stroke"
       id="rect9"
       width="143.64479"
       height="8.0387812"
       x="102.39705"
       y="58.374928"
       ry="0" />
  </g>
</svg>
