<?xml version="1.0" encoding="UTF-8" standalone="no"?>
<!-- Created with Inkscape (http://www.inkscape.org/) -->

<svg
   version="1.1"
   id="svg1"
   width="632"
   height="307"
   viewBox="0 0 632 307"
   sodipodi:docname="Ruka_faze dotknuti.svg"
   inkscape:version="1.3.2 (091e20e, 2023-11-25, custom)"
   xmlns:inkscape="http://www.inkscape.org/namespaces/inkscape"
   xmlns:sodipodi="http://sodipodi.sourceforge.net/DTD/sodipodi-0.dtd"
   xmlns="http://www.w3.org/2000/svg"
   xmlns:svg="http://www.w3.org/2000/svg">
  <defs
     id="defs1" />
  <sodipodi:namedview
     id="namedview1"
     pagecolor="#505050"
     bordercolor="#eeeeee"
     borderopacity="1"
     inkscape:showpageshadow="0"
     inkscape:pageopacity="0"
     inkscape:pagecheckerboard="0"
     inkscape:deskcolor="#505050"
     inkscape:zoom="0.79885162"
     inkscape:cx="257.24427"
     inkscape:cy="200.91341"
     inkscape:window-width="1280"
     inkscape:window-height="649"
     inkscape:window-x="-8"
     inkscape:window-y="-8"
     inkscape:window-maximized="1"
     inkscape:current-layer="g1" />
  <g
     inkscape:groupmode="layer"
     inkscape:label="Image"
     id="g1"
     style="display:inline">
    <rect
       style="display:inline;fill:#ffffff;fill-opacity:1;stroke:#000000;stroke-width:3.417;stroke-linecap:butt;stroke-linejoin:round;stroke-dasharray:0, 37.587;stroke-dashoffset:0;paint-order:markers fill stroke"
       id="rect3"
       width="632.88519"
       height="305.37817"
       x="0"
       y="0" />
    <path
       style="fill:#000000"
       d="M 46.17134,293.5 46.41133,287 H 339.20567 632 v 6.5 6.5 H 338.96568 45.93135 Z M 285.25,284.25237 c -0.6875,-0.23047 -1.25,-0.91119 -1.25,-1.5127 0,-0.60152 4.52961,-9.65049 10.0658,-20.10882 l 10.06581,-19.01515 -0.31581,-22.72645 c -0.17369,-12.49955 -0.57397,-22.98375 -0.88951,-23.29823 -0.31554,-0.31447 -8.52804,-0.87186 -18.25,-1.23863 C 270.88169,195.83198 267,195.39067 267,194.34277 267,193.26881 270.60342,193 285,193 h 18 V 180.51905 168.0381 l -2.75,-0.66095 c -15.9221,-3.82681 -24.60837,-21.95356 -17.34374,-36.19341 10.21735,-20.02766 39.13878,-18.31336 46.57412,2.76066 5.13259,14.54729 -3.89563,30.28784 -19.23038,33.52783 L 307,168.15891 V 180.57946 193 h 20 20 v -2.53432 c 0,-2.47405 0.16054,-2.53145 6.75,-2.41364 11.85408,0.21194 14.25,0.79652 14.25,3.47684 0,1.2942 -0.45,2.6312 -1,2.97112 -0.55,0.33992 -1,1.71648 -1,3.05902 0,2.41668 -0.0946,2.44098 -9.5,2.44098 -7.77778,0 -9.5,-0.27193 -9.5,-1.5 0,-1.28372 -2.90599,-1.5 -20.15391,-1.5 h -20.15391 l 0.70685,23.20903 0.70684,23.20904 11.40511,18.59983 c 12.98152,21.1707 13.15226,21.51361 11.10347,22.29981 -1.10117,0.42256 -4.3046,-4.00082 -12.03697,-16.62096 -5.79506,-9.45821 -10.94265,-17.81248 -11.4391,-18.56504 -0.65397,-0.99134 -2.49649,1.62576 -6.68832,9.5 -12.82344,24.08853 -13.97588,26.03104 -15.20006,25.62066 z m 28.53212,-121.80542 c 14.68575,-6.13459 17.79601,-25.70807 5.76377,-36.27251 C 314.72756,121.94388 312.14626,121 305.39506,121 c -18.18981,0 -27.94432,21.17258 -16.27615,35.32809 5.75562,6.98257 16.3207,9.60373 24.66321,6.11886 z"
       id="path1"
       sodipodi:nodetypes="cccccccccssscssssscccsssscccccsssssssscccsssssssssss" />
    <ellipse
       style="fill:#ff6600;stroke-width:0.426946"
       id="path11"
       cx="-376.39221"
       cy="289.44083"
       rx="93.672539"
       ry="2.2873058"
       transform="matrix(-0.95729538,0.28911168,0.33253907,0.94308948,0,0)" />
    <ellipse
       style="fill:#ff6600;stroke-width:0.426946"
       id="ellipse1"
       cx="-477.21002"
       cy="136.82588"
       rx="93.672539"
       ry="2.2873058"
       transform="matrix(-0.98964302,-0.14355034,-0.09819367,0.99516732,0,0)" />
    <path
       d="m 274.74736,224.43578 c -0.7384,-3.69199 -2.79791,-4.7943 -12.38437,-6.62849 -7.15886,-1.36972 -8.14587,-1.3342 -15.4357,0.55541 -9.28373,2.40646 -13.85427,2.52491 -20.43188,0.52952 -6.48523,-1.96736 -11.30028,-1.89559 -35.52651,0.52951 -11.21033,1.12217 -26.23242,2.13467 -33.38242,2.25 l -13,0.20967 -0.28241,-11.82767 c -0.26154,-10.95388 -0.15073,-11.78745 1.5,-11.28313 4.23054,1.29248 31.85492,5.67281 43.78241,6.94247 7.28158,0.77511 15.63927,1.0896 19,0.71495 6.81725,-0.75998 24.95564,-7.67105 40,-15.24075 7.2674,-3.65666 13.00586,-5.68988 21,-7.44062 12.0567,-2.64044 33.5,-4.33656 33.5,-2.64978 0,1.10348 -6.86157,2.27901 -13.38957,2.29391 -2.7389,0.006 -5.88297,1.02588 -9.42267,3.05578 -6.31972,3.62414 -6.63048,6.13276 -1.18776,9.58812 7.27081,4.61594 8.21816,5.86274 11.5544,15.20673 2.35274,6.58943 2.8515,8.89211 1.72337,7.95656 -0.87317,-0.72411 -2.23266,-2.85984 -3.02109,-4.74607 -2.05987,-4.92795 -11.06542,-13.03108 -14.50668,-13.05299 -2.25372,-0.0143 -2.75,0.423 -2.75,2.42347 0,1.34254 0.43777,2.71154 0.97283,3.04223 0.53505,0.33068 1.47916,2.48165 2.09803,4.77993 0.61886,2.29828 1.70231,5.00263 2.40767,6.00967 0.95894,1.36908 1.02966,2.82696 0.28033,5.77908 -1.19111,4.6926 -2.28891,5.04784 -3.09798,1.00249 z m -8.14565,-14.10237 c 1.16342,-3.66561 -4.12972,-7.34677 -7.06322,-4.91218 -1.93938,1.60954 -1.83217,2.58001 0.54799,4.96017 2.58356,2.58356 5.68727,2.5607 6.51523,-0.048 z"
       style="fill:#000000"
       id="path1-5" />
    <rect
       style="display:inline;fill:#ff5a08;fill-opacity:1;stroke:#000000;stroke-width:2.76314;stroke-linecap:round;stroke-linejoin:bevel;stroke-dasharray:none;stroke-dashoffset:0;stroke-opacity:1;paint-order:markers fill stroke"
       id="rect1"
       width="145.70303"
       height="10.889822"
       x="233.08664"
       y="85.957153" />
    <rect
       style="display:inline;fill:#ffffff;fill-opacity:1;stroke:none;stroke-width:0;stroke-linejoin:round;stroke-dasharray:none;stroke-opacity:1;paint-order:markers fill stroke"
       id="rect15"
       width="67.238541"
       height="8.0387812"
       x="310.86133"
       y="87.386787"
       ry="0" />
  </g>
</svg>
