<?xml version="1.0" encoding="UTF-8" standalone="no"?>
<!-- Created with Inkscape (http://www.inkscape.org/) -->

<svg
   version="1.1"
   id="svg1"
   width="632"
   height="307"
   viewBox="0 0 632 307"
   sodipodi:docname="Ruka_faze otoceni.svg"
   inkscape:version="1.3.2 (091e20e, 2023-11-25, custom)"
   xmlns:inkscape="http://www.inkscape.org/namespaces/inkscape"
   xmlns:sodipodi="http://sodipodi.sourceforge.net/DTD/sodipodi-0.dtd"
   xmlns="http://www.w3.org/2000/svg"
   xmlns:svg="http://www.w3.org/2000/svg">
  <defs
     id="defs1" />
  <sodipodi:namedview
     id="namedview1"
     pagecolor="#505050"
     bordercolor="#eeeeee"
     borderopacity="1"
     inkscape:showpageshadow="0"
     inkscape:pageopacity="0"
     inkscape:pagecheckerboard="0"
     inkscape:deskcolor="#505050"
     inkscape:zoom="0.79885162"
     inkscape:cx="454.40228"
     inkscape:cy="138.32356"
     inkscape:window-width="1280"
     inkscape:window-height="649"
     inkscape:window-x="-8"
     inkscape:window-y="-8"
     inkscape:window-maximized="1"
     inkscape:current-layer="g1" />
  <g
     inkscape:groupmode="layer"
     id="layer2"
     inkscape:label="Image 1"
     style="display:inline">
    <rect
       style="fill:#ffffff;fill-opacity:1;stroke:#000000;stroke-width:3.417;stroke-linecap:butt;stroke-linejoin:round;stroke-dasharray:0, 37.587;stroke-dashoffset:0;paint-order:markers fill stroke"
       id="rect3"
       width="632.88519"
       height="305.37817"
       x="0"
       y="0" />
  </g>
  <g
     inkscape:groupmode="layer"
     inkscape:label="Image"
     id="g1"
     style="display:inline">
    <path
       style="fill:#000000;stroke-width:1.00062"
       d="m 619.22323,294.01851 -0.24029,-6.5 H 325.82772 32.67251 v 6.5 6.5 h 293.3955 293.3955 z M 379.8499,284.77088 c 0.68835,-0.23047 1.25154,-0.91119 1.25154,-1.5127 0,-0.60152 -4.53519,-9.65049 -10.07821,-20.10882 l -10.07822,-19.01515 0.3162,-22.72645 c 0.17391,-12.49955 0.57469,-22.98375 0.89061,-23.29823 0.31593,-0.31447 8.53855,-0.87186 18.27249,-1.23863 13.81161,-0.52041 17.69808,-0.96172 17.69808,-2.00962 0,-1.07396 -3.60785,-1.34277 -18.02219,-1.34277 h -18.02218 v -12.48095 -12.48095 l 2.75338,-0.66095 c 15.94174,-3.82681 24.63871,-21.95356 17.36512,-36.19341 -10.22994,-20.02766 -39.18702,-18.31336 -46.63152,2.76066 -5.13891,14.54729 3.90044,30.28784 19.25409,33.52783 l 3.254,0.68668 v 12.42055 12.42054 h -20.02465 -20.02465 v -2.53432 c 0,-2.47405 -0.16074,-2.53145 -6.75832,-2.41364 -11.8687,0.21194 -14.26757,0.79652 -14.26757,3.47684 0,1.2942 0.45056,2.6312 1.00124,2.97112 0.55067,0.33992 1.00123,1.71648 1.00123,3.05902 0,2.41668 0.0947,2.44098 9.5117,2.44098 7.78737,0 9.51172,-0.27193 9.51172,-1.5 0,-1.28372 2.90957,-1.5 20.17875,-1.5 h 20.17874 l -0.70771,23.20903 -0.70771,23.20904 -11.41917,18.59983 c -12.99753,21.1707 -13.16847,21.51361 -11.11715,22.29981 1.10251,0.42256 4.3099,-4.00082 12.0518,-16.62096 5.8022,-9.45821 10.95613,-17.81248 11.4532,-18.56504 0.65477,-0.99134 2.49957,1.62576 6.69657,9.5 12.83924,24.08853 13.9931,26.03104 15.21879,25.62066 z M 351.28261,162.96546 c -14.70385,-6.13459 -17.81794,-25.70807 -5.77088,-36.27251 4.82427,-4.23056 7.40875,-5.17444 14.16828,-5.17444 18.21223,0 27.97875,21.17258 16.29621,35.32809 -5.76272,6.98257 -16.34082,9.60373 -24.69361,6.11886 z"
       id="path1"
       sodipodi:nodetypes="cccccccccssscssssscccsssscccccsssssssscccsssssssssss" />
    <ellipse
       style="fill:#ff6600;stroke-width:0.426946"
       id="path11"
       cx="122.68707"
       cy="-271.80453"
       rx="93.672539"
       ry="2.2873058"
       transform="matrix(0.95729538,-0.28911168,-0.33253907,-0.94308948,0,0)" />
    <ellipse
       style="fill:#ff6600;stroke-width:0.428369"
       id="ellipse1"
       cx="-220.6741"
       cy="149.1682"
       rx="94.291992"
       ry="2.2874553"
       transform="matrix(-0.98977935,-0.14260728,-0.09885019,0.99510233,0,0)" />
    <rect
       style="display:inline;fill:#ff5a08;fill-opacity:1;stroke:#000000;stroke-width:2.76314;stroke-linecap:round;stroke-linejoin:bevel;stroke-dasharray:none;stroke-dashoffset:0;stroke-opacity:1;paint-order:markers fill stroke"
       id="rect1"
       width="145.70303"
       height="10.889822"
       x="280.34488"
       y="88.558006" />
    <rect
       style="display:inline;fill:#ffffff;fill-opacity:1;stroke:none;stroke-width:0;stroke-linejoin:round;stroke-dasharray:none;stroke-opacity:1;paint-order:markers fill stroke"
       id="rect15"
       width="36.743343"
       height="8.1494246"
       x="388.00623"
       y="89.93232"
       ry="0" />
  </g>
</svg>
