<?xml version="1.0" encoding="UTF-8" standalone="no"?>
<!-- Created with Inkscape (http://www.inkscape.org/) -->

<svg
   version="1.1"
   id="svg1"
   width="658"
   height="359"
   viewBox="0 0 658 359"
   sodipodi:docname="vzdalenost1.svg"
   inkscape:version="1.3.2 (091e20e, 2023-11-25, custom)"
   xmlns:inkscape="http://www.inkscape.org/namespaces/inkscape"
   xmlns:sodipodi="http://sodipodi.sourceforge.net/DTD/sodipodi-0.dtd"
   xmlns="http://www.w3.org/2000/svg"
   xmlns:svg="http://www.w3.org/2000/svg">
  <defs
     id="defs1" />
  <sodipodi:namedview
     id="namedview1"
     pagecolor="#505050"
     bordercolor="#eeeeee"
     borderopacity="1"
     inkscape:showpageshadow="0"
     inkscape:pageopacity="0"
     inkscape:pagecheckerboard="0"
     inkscape:deskcolor="#505050"
     inkscape:zoom="0.76728609"
     inkscape:cx="269.13038"
     inkscape:cy="33.234018"
     inkscape:window-width="1920"
     inkscape:window-height="974"
     inkscape:window-x="-11"
     inkscape:window-y="-11"
     inkscape:window-maximized="1"
     inkscape:current-layer="g1" />
  <g
     inkscape:groupmode="layer"
     inkscape:label="Image"
     id="g1">
    <rect
       style="fill:#ffffff;stroke-width:0;stroke-linejoin:round;paint-order:markers fill stroke"
       id="rect2"
       width="656.15686"
       height="357.56863"
       x="1.8431373"
       y="0" />
    <path
       style="fill:#000000"
       d="m 46.109183,347 0.143888,-7 H 347.62654 649 v 7 7 H 347.48265 45.965296 Z M 401,244.33865 v -7.66134 l 31.5,0.64216 c 17.325,0.35319 31.5,0.2908 31.5,-0.13865 0,-0.42945 -0.42242,-1.20832 -0.93871,-1.73082 -0.58745,-0.59453 2.93445,-8.24654 9.41228,-20.45 l 10.35098,-19.5 -0.55783,-23.10694 -0.55782,-23.10694 -10.51001,-0.64306 C 465.41838,148.28938 457.15888,148 452.84444,148 446.53827,148 445,147.70585 445,146.5 c 0,-1.27928 2.72222,-1.5 18.5,-1.5 H 482 V 132.51905 120.0381 l -2.75,-0.64627 c -4.85788,-1.14165 -12.185,-5.61783 -14.79307,-9.03718 -9.87048,-12.94087 -5.90857,-31.073682 8.42554,-38.561912 19.30302,-10.084018 41.84788,8.423591 35.7621,29.357952 -2.70414,9.30193 -10.66294,16.63652 -19.94108,18.37711 -4.24464,0.7963 -4.18005,0.45113 -3.05375,16.31858 L 486.29949,145 h 19.35025 C 524.33333,145 525,145.0689 525,147 c 0,1.93162 -0.66667,2 -19.5,2 H 486 l 0.0453,22.75 0.0453,22.75 12.37793,20 c 7.65633,12.37093 12.02577,20.36238 11.45472,20.95 -0.50777,0.5225 -0.92321,1.28614 -0.92321,1.69697 0,0.41083 12.6,0.47458 28,0.14166 l 28,-0.60531 V 244.34166 252 h -82 -82 z m 106.22497,-6.89695 c 0.81827,-0.81827 -21.29395,-36.58537 -22.39184,-36.21941 -1.24428,0.41476 -19.63514,35.07005 -19.11918,36.02771 0.46197,0.85744 40.65964,1.04307 41.51102,0.1917 z M 496.22943,112.44773 C 501.18758,109.01103 506,100.50925 506,95.186705 506,81.730151 495.66012,72.205535 482.11535,73.185275 460.54354,74.745639 455.70363,104.72262 475.5,114.15886 c 6.0837,2.89988 15.15769,2.15086 20.72943,-1.71113 z"
       id="path1"
       sodipodi:nodetypes="cccccccccccsssscccsssscccsssssscssscccssssccccccsssssssss" />
    <rect
       style="display:inline;fill:#0000ff;fill-opacity:1;stroke:#000000;stroke-width:2.76314;stroke-linecap:round;stroke-linejoin:bevel;stroke-dasharray:none;stroke-dashoffset:0;stroke-opacity:1;paint-order:markers fill stroke"
       id="rect1"
       width="145.70303"
       height="10.889822"
       x="-225.34467"
       y="415.3764"
       transform="rotate(-90)" />
    <rect
       style="display:inline;fill:#ffffff;fill-opacity:1;stroke:none;stroke-width:0;stroke-linejoin:round;stroke-dasharray:none;stroke-opacity:1;paint-order:markers fill stroke"
       id="rect15"
       width="101.70077"
       height="8.0387812"
       x="-182.03221"
       y="416.80603"
       ry="0"
       transform="rotate(-90)" />
  </g>
</svg>
