<?xml version="1.0" encoding="UTF-8" standalone="no"?>
<!-- Created with Inkscape (http://www.inkscape.org/) -->

<svg
   version="1.1"
   id="svg1"
   width="1031"
   height="407"
   viewBox="0 0 1031 407"
   sodipodi:docname="vzdalenost0.svg"
   inkscape:version="1.3.2 (091e20e, 2023-11-25, custom)"
   xmlns:inkscape="http://www.inkscape.org/namespaces/inkscape"
   xmlns:sodipodi="http://sodipodi.sourceforge.net/DTD/sodipodi-0.dtd"
   xmlns="http://www.w3.org/2000/svg"
   xmlns:svg="http://www.w3.org/2000/svg">
  <defs
     id="defs1" />
  <sodipodi:namedview
     id="namedview1"
     pagecolor="#505050"
     bordercolor="#eeeeee"
     borderopacity="1"
     inkscape:showpageshadow="0"
     inkscape:pageopacity="0"
     inkscape:pagecheckerboard="0"
     inkscape:deskcolor="#505050"
     inkscape:zoom="0.34626576"
     inkscape:cx="476.51261"
     inkscape:cy="116.96219"
     inkscape:window-width="1280"
     inkscape:window-height="649"
     inkscape:window-x="-8"
     inkscape:window-y="-8"
     inkscape:window-maximized="1"
     inkscape:current-layer="g1" />
  <g
     inkscape:groupmode="layer"
     inkscape:label="Image"
     id="g1">
    <rect
       style="fill:#ffffff;stroke-width:0;stroke-linejoin:round;paint-order:markers fill stroke"
       id="rect1"
       width="1029.2147"
       height="408.41855"
       x="0"
       y="-2.0420928" />
    <path
       style="fill:#000000"
       d="M 79.814338,389.49789 79.5,378.99578 531.75,378.99789 984,379 V 389.5 400 H 532.06434 80.128677 Z M 285.58944,374.68906 c -1.71266,-1.25233 -0.83533,-3.21992 13.71722,-30.76348 L 314.85356,314.5 314.2722,279.25 313.69083,244 H 286.34541 259 v -3 -3 h 27.5 27.5 l -0.005,-7.25 c -0.002,-3.9875 -0.29556,-12.30035 -0.65124,-18.47301 l -0.6467,-11.22301 -5.59875,-1.6083 c -11.29348,-3.24416 -19.14962,-10.1082 -24.49114,-21.39831 -2.75337,-5.81966 -3.09647,-7.54768 -3.08691,-15.54737 0.009,-7.71529 0.40492,-9.8465 2.77216,-14.93013 5.55629,-11.93212 13.9148,-19.12733 25.73865,-22.15646 26.553,-6.80256 51.68975,16.39648 46.99251,43.37002 -2.83799,16.2969 -14.31545,28.07602 -30.70718,31.51422 l -5.3164,1.11522 0.004,5.54356 c 0.002,3.04897 0.29633,11.27438 0.65356,18.27871 l 0.64952,12.73514 29.09643,0.26486 L 378.5,238.5 v 3 3 l -29.41335,-0.39885 -29.41335,-0.39885 0.69153,34.86237 0.69152,34.86237 18.34019,30.02249 c 16.21323,26.54068 18.15251,30.16539 16.72183,31.25468 -0.8901,0.6777 -2.12288,1.24649 -2.73951,1.26399 -0.61662,0.0175 -8.67614,-12.34618 -17.91004,-27.47482 -9.2339,-15.12864 -17.0148,-27.28073 -17.29088,-27.00465 -0.27609,0.27609 -6.861,12.51054 -14.63315,27.18769 -7.77214,14.67714 -14.57993,26.83529 -15.12842,27.01812 -0.54848,0.18283 -1.8206,-0.26964 -2.82693,-1.00548 z m 45.12432,-182.65258 c 6.09478,-2.63206 13.55117,-10.12049 16.32814,-16.39829 6.93416,-15.67583 -0.16,-34.63825 -15.83929,-42.33783 C 326.39966,130.94179 324.2379,130.5 317.5,130.5 c -6.7174,0 -8.90447,0.44418 -13.64151,2.77047 -6.61106,3.2466 -13.17153,9.96888 -16.15542,16.55386 -2.96402,6.54116 -2.96402,18.81018 0,25.35134 2.47898,5.47073 9.38912,13.29792 13.74506,15.56918 9.19678,4.79535 20.04391,5.27408 29.26563,1.29163 z M 612,235.5 V 224 H 735 858 V 235.5 247 H 735 612 Z"
       id="path1"
       sodipodi:nodetypes="cccccccccssccccccccccscsscssscccscccccccccsssssssssssssssssccccccccc" />
    <rect
       style="display:inline;fill:#00ffff;fill-opacity:1;stroke:#000000;stroke-width:3.08563;stroke-linecap:round;stroke-linejoin:bevel;stroke-dasharray:none;stroke-dashoffset:0;stroke-opacity:1;paint-order:markers fill stroke"
       id="rect1-1"
       width="187.24344"
       height="10.56733"
       x="-336.76315"
       y="225.50148"
       transform="rotate(-90)" />
    <rect
       style="display:inline;fill:#ffffff;fill-opacity:1;stroke:none;stroke-width:0;stroke-linejoin:round;stroke-dasharray:none;stroke-opacity:1;paint-order:markers fill stroke"
       id="rect15"
       width="184.84514"
       height="7.8007202"
       x="-335.25134"
       y="226.88878"
       ry="0"
       transform="rotate(-90)" />
  </g>
</svg>
